# LibreViesHeroine — groupe importé indépendant, CC0
# Généré par compilation/outils/generer_heroine_librevies.py
mtllib LibreViesHeroineParts.mtl
v 0.000000 1.920000 0.205000
v 0.014030 1.925447 0.212472
v 0.000000 1.920000 0.205000
v 0.015186 1.925447 0.205000
v 0.010738 1.925447 0.218806
v 0.000000 1.920000 0.205000
v 0.005811 1.925447 0.223039
v 0.000000 1.920000 0.205000
v 0.000000 1.925447 0.224525
v 0.000000 1.920000 0.205000
v -0.005811 1.925447 0.223039
v -0.000000 1.920000 0.205000
v -0.010738 1.925447 0.218806
v -0.000000 1.920000 0.205000
v -0.014030 1.925447 0.212472
v -0.000000 1.920000 0.205000
v -0.015186 1.925447 0.205000
v -0.000000 1.920000 0.205000
v -0.014030 1.925447 0.197528
v -0.000000 1.920000 0.205000
v -0.010738 1.925447 0.191194
v -0.000000 1.920000 0.205000
v -0.005811 1.925447 0.186961
v -0.000000 1.920000 0.205000
v -0.000000 1.925447 0.185475
v -0.000000 1.920000 0.205000
v 0.005811 1.925447 0.186961
v 0.000000 1.920000 0.205000
v 0.010738 1.925447 0.191194
v 0.000000 1.920000 0.205000
v 0.014030 1.925447 0.197528
v 0.000000 1.920000 0.205000
v 0.025281 1.940708 0.218464
v 0.027364 1.940708 0.205000
v 0.019349 1.940708 0.229878
v 0.010472 1.940708 0.237504
v 0.000000 1.940708 0.240182
v -0.010472 1.940708 0.237504
v -0.019349 1.940708 0.229878
v -0.025281 1.940708 0.218464
v -0.027364 1.940708 0.205000
v -0.025281 1.940708 0.191536
v -0.019349 1.940708 0.180122
v -0.010472 1.940708 0.172496
v -0.000000 1.940708 0.169818
v 0.010472 1.940708 0.172496
v 0.019349 1.940708 0.180122
v 0.025281 1.940708 0.191536
v 0.031525 1.962761 0.221789
v 0.034122 1.962761 0.205000
v 0.024128 1.962761 0.236022
v 0.013058 1.962761 0.245532
v 0.000000 1.962761 0.248872
v -0.013058 1.962761 0.245532
v -0.024128 1.962761 0.236022
v -0.031525 1.962761 0.221789
v -0.034122 1.962761 0.205000
v -0.031525 1.962761 0.188211
v -0.024128 1.962761 0.173978
v -0.013058 1.962761 0.164468
v -0.000000 1.962761 0.161128
v 0.013058 1.962761 0.164468
v 0.024128 1.962761 0.173978
v 0.031525 1.962761 0.188211
v 0.031525 1.987239 0.221789
v 0.034122 1.987239 0.205000
v 0.024128 1.987239 0.236022
v 0.013058 1.987239 0.245532
v 0.000000 1.987239 0.248872
v -0.013058 1.987239 0.245532
v -0.024128 1.987239 0.236022
v -0.031525 1.987239 0.221789
v -0.034122 1.987239 0.205000
v -0.031525 1.987239 0.188211
v -0.024128 1.987239 0.173978
v -0.013058 1.987239 0.164468
v -0.000000 1.987239 0.161128
v 0.013058 1.987239 0.164468
v 0.024128 1.987239 0.173978
v 0.031525 1.987239 0.188211
v 0.025281 2.009292 0.218464
v 0.027364 2.009292 0.205000
v 0.019349 2.009292 0.229878
v 0.010472 2.009292 0.237504
v 0.000000 2.009292 0.240182
v -0.010472 2.009292 0.237504
v -0.019349 2.009292 0.229878
v -0.025281 2.009292 0.218464
v -0.027364 2.009292 0.205000
v -0.025281 2.009292 0.191536
v -0.019349 2.009292 0.180122
v -0.010472 2.009292 0.172496
v -0.000000 2.009292 0.169818
v 0.010472 2.009292 0.172496
v 0.019349 2.009292 0.180122
v 0.025281 2.009292 0.191536
v 0.014030 2.024553 0.212472
v 0.015186 2.024553 0.205000
v 0.010738 2.024553 0.218806
v 0.005811 2.024553 0.223039
v 0.000000 2.024553 0.224525
v -0.005811 2.024553 0.223039
v -0.010738 2.024553 0.218806
v -0.014030 2.024553 0.212472
v -0.015186 2.024553 0.205000
v -0.014030 2.024553 0.197528
v -0.010738 2.024553 0.191194
v -0.005811 2.024553 0.186961
v -0.000000 2.024553 0.185475
v 0.005811 2.024553 0.186961
v 0.010738 2.024553 0.191194
v 0.014030 2.024553 0.197528
v 0.000000 2.030000 0.205000
v 0.000000 2.030000 0.205000
v 0.000000 2.030000 0.205000
v 0.000000 2.030000 0.205000
v 0.000000 2.030000 0.205000
v -0.000000 2.030000 0.205000
v -0.000000 2.030000 0.205000
v -0.000000 2.030000 0.205000
v -0.000000 2.030000 0.205000
v -0.000000 2.030000 0.205000
v -0.000000 2.030000 0.205000
v -0.000000 2.030000 0.205000
v -0.000000 2.030000 0.205000
v 0.000000 2.030000 0.205000
v 0.000000 2.030000 0.205000
v 0.000000 2.030000 0.205000
o Nose
usemtl SkinLight
f 1 2 3
f 1 4 2
f 3 5 6
f 3 2 5
f 6 7 8
f 6 5 7
f 8 9 10
f 8 7 9
f 10 11 12
f 10 9 11
f 12 13 14
f 12 11 13
f 14 15 16
f 14 13 15
f 16 17 18
f 16 15 17
f 18 19 20
f 18 17 19
f 20 21 22
f 20 19 21
f 22 23 24
f 22 21 23
f 24 25 26
f 24 23 25
f 26 27 28
f 26 25 27
f 28 29 30
f 28 27 29
f 30 31 32
f 30 29 31
f 32 4 1
f 32 31 4
f 4 33 2
f 4 34 33
f 2 35 5
f 2 33 35
f 5 36 7
f 5 35 36
f 7 37 9
f 7 36 37
f 9 38 11
f 9 37 38
f 11 39 13
f 11 38 39
f 13 40 15
f 13 39 40
f 15 41 17
f 15 40 41
f 17 42 19
f 17 41 42
f 19 43 21
f 19 42 43
f 21 44 23
f 21 43 44
f 23 45 25
f 23 44 45
f 25 46 27
f 25 45 46
f 27 47 29
f 27 46 47
f 29 48 31
f 29 47 48
f 31 34 4
f 31 48 34
f 34 49 33
f 34 50 49
f 33 51 35
f 33 49 51
f 35 52 36
f 35 51 52
f 36 53 37
f 36 52 53
f 37 54 38
f 37 53 54
f 38 55 39
f 38 54 55
f 39 56 40
f 39 55 56
f 40 57 41
f 40 56 57
f 41 58 42
f 41 57 58
f 42 59 43
f 42 58 59
f 43 60 44
f 43 59 60
f 44 61 45
f 44 60 61
f 45 62 46
f 45 61 62
f 46 63 47
f 46 62 63
f 47 64 48
f 47 63 64
f 48 50 34
f 48 64 50
f 50 65 49
f 50 66 65
f 49 67 51
f 49 65 67
f 51 68 52
f 51 67 68
f 52 69 53
f 52 68 69
f 53 70 54
f 53 69 70
f 54 71 55
f 54 70 71
f 55 72 56
f 55 71 72
f 56 73 57
f 56 72 73
f 57 74 58
f 57 73 74
f 58 75 59
f 58 74 75
f 59 76 60
f 59 75 76
f 60 77 61
f 60 76 77
f 61 78 62
f 61 77 78
f 62 79 63
f 62 78 79
f 63 80 64
f 63 79 80
f 64 66 50
f 64 80 66
f 66 81 65
f 66 82 81
f 65 83 67
f 65 81 83
f 67 84 68
f 67 83 84
f 68 85 69
f 68 84 85
f 69 86 70
f 69 85 86
f 70 87 71
f 70 86 87
f 71 88 72
f 71 87 88
f 72 89 73
f 72 88 89
f 73 90 74
f 73 89 90
f 74 91 75
f 74 90 91
f 75 92 76
f 75 91 92
f 76 93 77
f 76 92 93
f 77 94 78
f 77 93 94
f 78 95 79
f 78 94 95
f 79 96 80
f 79 95 96
f 80 82 66
f 80 96 82
f 82 97 81
f 82 98 97
f 81 99 83
f 81 97 99
f 83 100 84
f 83 99 100
f 84 101 85
f 84 100 101
f 85 102 86
f 85 101 102
f 86 103 87
f 86 102 103
f 87 104 88
f 87 103 104
f 88 105 89
f 88 104 105
f 89 106 90
f 89 105 106
f 90 107 91
f 90 106 107
f 91 108 92
f 91 107 108
f 92 109 93
f 92 108 109
f 93 110 94
f 93 109 110
f 94 111 95
f 94 110 111
f 95 112 96
f 95 111 112
f 96 98 82
f 96 112 98
f 98 113 97
f 98 114 113
f 97 115 99
f 97 113 115
f 99 116 100
f 99 115 116
f 100 117 101
f 100 116 117
f 101 118 102
f 101 117 118
f 102 119 103
f 102 118 119
f 103 120 104
f 103 119 120
f 104 121 105
f 104 120 121
f 105 122 106
f 105 121 122
f 106 123 107
f 106 122 123
f 107 124 108
f 107 123 124
f 108 125 109
f 108 124 125
f 109 126 110
f 109 125 126
f 110 127 111
f 110 126 127
f 111 128 112
f 111 127 128
f 112 114 98
f 112 128 114
