# LibreViesHeroine — groupe importé indépendant, CC0
# Généré par compilation/outils/generer_heroine_librevies.py
mtllib LibreViesHeroineParts.mtl
v 0.350000 1.050000 0.000000
v 0.360723 1.130000 0.044504
v 0.341225 1.050000 0.042279
v 0.370000 1.130000 0.000000
v 0.333358 1.130000 0.086777
v 0.315339 1.050000 0.082438
v 0.289278 1.130000 0.124698
v 0.273641 1.050000 0.118463
v 0.230691 1.130000 0.156366
v 0.218221 1.050000 0.148548
v 0.160537 1.130000 0.180194
v 0.151859 1.050000 0.171184
v 0.082333 1.130000 0.194986
v 0.077882 1.050000 0.185236
v 0.000000 1.130000 0.200000
v 0.000000 1.050000 0.190000
v -0.082333 1.130000 0.194986
v -0.077882 1.050000 0.185236
v -0.160537 1.130000 0.180194
v -0.151859 1.050000 0.171184
v -0.230691 1.130000 0.156366
v -0.218221 1.050000 0.148548
v -0.289278 1.130000 0.124698
v -0.273641 1.050000 0.118463
v -0.333358 1.130000 0.086777
v -0.315339 1.050000 0.082438
v -0.360723 1.130000 0.044504
v -0.341225 1.050000 0.042279
v -0.370000 1.130000 0.000000
v -0.350000 1.050000 0.000000
v -0.360723 1.130000 -0.044504
v -0.341225 1.050000 -0.042279
v -0.333358 1.130000 -0.086777
v -0.315339 1.050000 -0.082438
v -0.289278 1.130000 -0.124698
v -0.273641 1.050000 -0.118463
v -0.230691 1.130000 -0.156366
v -0.218221 1.050000 -0.148548
v -0.160537 1.130000 -0.180194
v -0.151859 1.050000 -0.171184
v -0.082333 1.130000 -0.194986
v -0.077882 1.050000 -0.185236
v -0.000000 1.130000 -0.200000
v -0.000000 1.050000 -0.190000
v 0.082333 1.130000 -0.194986
v 0.077882 1.050000 -0.185236
v 0.160537 1.130000 -0.180194
v 0.151859 1.050000 -0.171184
v 0.230691 1.130000 -0.156366
v 0.218221 1.050000 -0.148548
v 0.289278 1.130000 -0.124698
v 0.273641 1.050000 -0.118463
v 0.333358 1.130000 -0.086777
v 0.315339 1.050000 -0.082438
v 0.360723 1.130000 -0.044504
v 0.341225 1.050000 -0.042279
v 0.000000 1.050000 0.000000
v 0.000000 1.130000 0.000000
o Belt
usemtl Belt
f 1 2 3
f 1 4 2
f 3 5 6
f 3 2 5
f 6 7 8
f 6 5 7
f 8 9 10
f 8 7 9
f 10 11 12
f 10 9 11
f 12 13 14
f 12 11 13
f 14 15 16
f 14 13 15
f 16 17 18
f 16 15 17
f 18 19 20
f 18 17 19
f 20 21 22
f 20 19 21
f 22 23 24
f 22 21 23
f 24 25 26
f 24 23 25
f 26 27 28
f 26 25 27
f 28 29 30
f 28 27 29
f 30 31 32
f 30 29 31
f 32 33 34
f 32 31 33
f 34 35 36
f 34 33 35
f 36 37 38
f 36 35 37
f 38 39 40
f 38 37 39
f 40 41 42
f 40 39 41
f 42 43 44
f 42 41 43
f 44 45 46
f 44 43 45
f 46 47 48
f 46 45 47
f 48 49 50
f 48 47 49
f 50 51 52
f 50 49 51
f 52 53 54
f 52 51 53
f 54 55 56
f 54 53 55
f 56 4 1
f 56 55 4
f 57 1 3
f 58 2 4
f 57 3 6
f 58 5 2
f 57 6 8
f 58 7 5
f 57 8 10
f 58 9 7
f 57 10 12
f 58 11 9
f 57 12 14
f 58 13 11
f 57 14 16
f 58 15 13
f 57 16 18
f 58 17 15
f 57 18 20
f 58 19 17
f 57 20 22
f 58 21 19
f 57 22 24
f 58 23 21
f 57 24 26
f 58 25 23
f 57 26 28
f 58 27 25
f 57 28 30
f 58 29 27
f 57 30 32
f 58 31 29
f 57 32 34
f 58 33 31
f 57 34 36
f 58 35 33
f 57 36 38
f 58 37 35
f 57 38 40
f 58 39 37
f 57 40 42
f 58 41 39
f 57 42 44
f 58 43 41
f 57 44 46
f 58 45 43
f 57 46 48
f 58 47 45
f 57 48 50
f 58 49 47
f 57 50 52
f 58 51 49
f 57 52 54
f 58 53 51
f 57 54 56
f 58 55 53
f 57 56 1
f 58 4 55
