# LibreViesHeroine — groupe importé indépendant, CC0
# Généré par compilation/outils/generer_heroine_librevies.py
mtllib LibreViesHeroineParts.mtl
v 0.320000 0.110000 0.075000
v 0.300104 0.250000 0.135364
v 0.309343 0.110000 0.170671
v 0.310000 0.250000 0.055000
v 0.271924 0.250000 0.203492
v 0.278995 0.110000 0.251777
v 0.229749 0.250000 0.249015
v 0.233576 0.110000 0.305970
v 0.180000 0.250000 0.265000
v 0.180000 0.110000 0.325000
v 0.130251 0.250000 0.249015
v 0.126424 0.110000 0.305970
v 0.088076 0.250000 0.203492
v 0.081005 0.110000 0.251777
v 0.059896 0.250000 0.135364
v 0.050657 0.110000 0.170671
v 0.050000 0.250000 0.055000
v 0.040000 0.110000 0.075000
v 0.059896 0.250000 -0.025364
v 0.050657 0.110000 -0.020671
v 0.088076 0.250000 -0.093492
v 0.081005 0.110000 -0.101777
v 0.130251 0.250000 -0.139015
v 0.126424 0.110000 -0.155970
v 0.180000 0.250000 -0.155000
v 0.180000 0.110000 -0.175000
v 0.229749 0.250000 -0.139015
v 0.233576 0.110000 -0.155970
v 0.271924 0.250000 -0.093492
v 0.278995 0.110000 -0.101777
v 0.300104 0.250000 -0.025364
v 0.309343 0.110000 -0.020671
v 0.290866 0.340000 0.113883
v 0.300000 0.340000 0.045000
v 0.264853 0.340000 0.172279
v 0.225922 0.340000 0.211298
v 0.180000 0.340000 0.225000
v 0.134078 0.340000 0.211298
v 0.095147 0.340000 0.172279
v 0.069134 0.340000 0.113883
v 0.060000 0.340000 0.045000
v 0.069134 0.340000 -0.023883
v 0.095147 0.340000 -0.082279
v 0.134078 0.340000 -0.121298
v 0.180000 0.340000 -0.135000
v 0.225922 0.340000 -0.121298
v 0.264853 0.340000 -0.082279
v 0.290866 0.340000 -0.023883
v 0.180000 0.110000 0.075000
v 0.180000 0.340000 0.045000
o Boot_R
usemtl Shoes
f 1 2 3
f 1 4 2
f 3 5 6
f 3 2 5
f 6 7 8
f 6 5 7
f 8 9 10
f 8 7 9
f 10 11 12
f 10 9 11
f 12 13 14
f 12 11 13
f 14 15 16
f 14 13 15
f 16 17 18
f 16 15 17
f 18 19 20
f 18 17 19
f 20 21 22
f 20 19 21
f 22 23 24
f 22 21 23
f 24 25 26
f 24 23 25
f 26 27 28
f 26 25 27
f 28 29 30
f 28 27 29
f 30 31 32
f 30 29 31
f 32 4 1
f 32 31 4
f 4 33 2
f 4 34 33
f 2 35 5
f 2 33 35
f 5 36 7
f 5 35 36
f 7 37 9
f 7 36 37
f 9 38 11
f 9 37 38
f 11 39 13
f 11 38 39
f 13 40 15
f 13 39 40
f 15 41 17
f 15 40 41
f 17 42 19
f 17 41 42
f 19 43 21
f 19 42 43
f 21 44 23
f 21 43 44
f 23 45 25
f 23 44 45
f 25 46 27
f 25 45 46
f 27 47 29
f 27 46 47
f 29 48 31
f 29 47 48
f 31 34 4
f 31 48 34
f 49 1 3
f 50 33 34
f 49 3 6
f 50 35 33
f 49 6 8
f 50 36 35
f 49 8 10
f 50 37 36
f 49 10 12
f 50 38 37
f 49 12 14
f 50 39 38
f 49 14 16
f 50 40 39
f 49 16 18
f 50 41 40
f 49 18 20
f 50 42 41
f 49 20 22
f 50 43 42
f 49 22 24
f 50 44 43
f 49 24 26
f 50 45 44
f 49 26 28
f 50 46 45
f 49 28 30
f 50 47 46
f 49 30 32
f 50 48 47
f 49 32 1
f 50 34 48
