# LibreViesHeroine — groupe importé indépendant, CC0
# Généré par compilation/outils/generer_heroine_librevies.py
mtllib LibreViesHeroineParts.mtl
v -0.460000 1.180000 0.040000
v -0.495398 1.120000 0.090558
v -0.470893 1.180000 0.087727
v -0.485000 1.120000 0.045000
v -0.524534 1.120000 0.127092
v -0.501416 1.180000 0.126001
v -0.566635 1.120000 0.147367
v -0.545523 1.180000 0.147242
v -0.613365 1.120000 0.147367
v -0.594477 1.180000 0.147242
v -0.655466 1.120000 0.127092
v -0.638584 1.180000 0.126001
v -0.684602 1.120000 0.090558
v -0.669107 1.180000 0.087727
v -0.695000 1.120000 0.045000
v -0.680000 1.180000 0.040000
v -0.684602 1.120000 -0.000558
v -0.669107 1.180000 -0.007727
v -0.655466 1.120000 -0.037092
v -0.638584 1.180000 -0.046001
v -0.613365 1.120000 -0.057367
v -0.594477 1.180000 -0.067242
v -0.566635 1.120000 -0.057367
v -0.545523 1.180000 -0.067242
v -0.524534 1.120000 -0.037092
v -0.501416 1.180000 -0.046001
v -0.495398 1.120000 -0.000558
v -0.470893 1.180000 -0.007727
v -0.570000 1.180000 0.040000
v -0.590000 1.120000 0.045000
o Cuff_L
usemtl Jacket
f 1 2 3
f 1 4 2
f 3 5 6
f 3 2 5
f 6 7 8
f 6 5 7
f 8 9 10
f 8 7 9
f 10 11 12
f 10 9 11
f 12 13 14
f 12 11 13
f 14 15 16
f 14 13 15
f 16 17 18
f 16 15 17
f 18 19 20
f 18 17 19
f 20 21 22
f 20 19 21
f 22 23 24
f 22 21 23
f 24 25 26
f 24 23 25
f 26 27 28
f 26 25 27
f 28 4 1
f 28 27 4
f 29 1 3
f 30 2 4
f 29 3 6
f 30 5 2
f 29 6 8
f 30 7 5
f 29 8 10
f 30 9 7
f 29 10 12
f 30 11 9
f 29 12 14
f 30 13 11
f 29 14 16
f 30 15 13
f 29 16 18
f 30 17 15
f 29 18 20
f 30 19 17
f 29 20 22
f 30 21 19
f 29 22 24
f 30 23 21
f 29 24 26
f 30 25 23
f 29 26 28
f 30 27 25
f 29 28 1
f 30 4 27
