# LibreViesHeroine — groupe importé indépendant, CC0
# Généré par compilation/outils/generer_heroine_librevies.py
mtllib LibreViesHeroineParts.mtl
v 0.680000 1.180000 0.040000
v 0.669107 1.180000 0.087727
v 0.684602 1.120000 0.090558
v 0.695000 1.120000 0.045000
v 0.638584 1.180000 0.126001
v 0.655466 1.120000 0.127092
v 0.594477 1.180000 0.147242
v 0.613365 1.120000 0.147367
v 0.545523 1.180000 0.147242
v 0.566635 1.120000 0.147367
v 0.501416 1.180000 0.126001
v 0.524534 1.120000 0.127092
v 0.470893 1.180000 0.087727
v 0.495398 1.120000 0.090558
v 0.460000 1.180000 0.040000
v 0.485000 1.120000 0.045000
v 0.470893 1.180000 -0.007727
v 0.495398 1.120000 -0.000558
v 0.501416 1.180000 -0.046001
v 0.524534 1.120000 -0.037092
v 0.545523 1.180000 -0.067242
v 0.566635 1.120000 -0.057367
v 0.594477 1.180000 -0.067242
v 0.613365 1.120000 -0.057367
v 0.638584 1.180000 -0.046001
v 0.655466 1.120000 -0.037092
v 0.669107 1.180000 -0.007727
v 0.684602 1.120000 -0.000558
v 0.570000 1.180000 0.040000
v 0.590000 1.120000 0.045000
o Cuff_R
usemtl Jacket
f 1 2 3
f 1 3 4
f 2 5 6
f 2 6 3
f 5 7 8
f 5 8 6
f 7 9 10
f 7 10 8
f 9 11 12
f 9 12 10
f 11 13 14
f 11 14 12
f 13 15 16
f 13 16 14
f 15 17 18
f 15 18 16
f 17 19 20
f 17 20 18
f 19 21 22
f 19 22 20
f 21 23 24
f 21 24 22
f 23 25 26
f 23 26 24
f 25 27 28
f 25 28 26
f 27 1 4
f 27 4 28
f 29 2 1
f 30 4 3
f 29 5 2
f 30 3 6
f 29 7 5
f 30 6 8
f 29 9 7
f 30 8 10
f 29 11 9
f 30 10 12
f 29 13 11
f 30 12 14
f 29 15 13
f 30 14 16
f 29 17 15
f 30 16 18
f 29 19 17
f 30 18 20
f 29 21 19
f 30 20 22
f 29 23 21
f 30 22 24
f 29 25 23
f 30 24 26
f 29 27 25
f 30 26 28
f 29 1 27
f 30 28 4
