# LibreViesHeroine — groupe importé indépendant, CC0
# Généré par compilation/outils/generer_heroine_librevies.py
mtllib LibreViesHeroineParts.mtl
v 0.225000 1.925000 0.005000
v 0.247907 1.939324 0.015286
v 0.225000 1.925000 0.005000
v 0.251450 1.939324 0.005000
v 0.238225 1.939324 0.022816
v 0.225000 1.925000 0.005000
v 0.225000 1.939324 0.025572
v 0.225000 1.925000 0.005000
v 0.211775 1.939324 0.022816
v 0.225000 1.925000 0.005000
v 0.202093 1.939324 0.015286
v 0.225000 1.925000 0.005000
v 0.198550 1.939324 0.005000
v 0.225000 1.925000 0.005000
v 0.202093 1.939324 -0.005286
v 0.225000 1.925000 0.005000
v 0.211775 1.939324 -0.012816
v 0.225000 1.925000 0.005000
v 0.225000 1.939324 -0.015572
v 0.225000 1.925000 0.005000
v 0.238225 1.939324 -0.012816
v 0.225000 1.925000 0.005000
v 0.247907 1.939324 -0.005286
v 0.225000 1.925000 0.005000
v 0.262064 1.976824 0.021643
v 0.267798 1.976824 0.005000
v 0.246399 1.976824 0.033827
v 0.225000 1.976824 0.038287
v 0.203601 1.976824 0.033827
v 0.187936 1.976824 0.021643
v 0.182202 1.976824 0.005000
v 0.187936 1.976824 -0.011643
v 0.203601 1.976824 -0.023827
v 0.225000 1.976824 -0.028287
v 0.246399 1.976824 -0.023827
v 0.262064 1.976824 -0.011643
v 0.262064 2.023176 0.021643
v 0.267798 2.023176 0.005000
v 0.246399 2.023176 0.033827
v 0.225000 2.023176 0.038287
v 0.203601 2.023176 0.033827
v 0.187936 2.023176 0.021643
v 0.182202 2.023176 0.005000
v 0.187936 2.023176 -0.011643
v 0.203601 2.023176 -0.023827
v 0.225000 2.023176 -0.028287
v 0.246399 2.023176 -0.023827
v 0.262064 2.023176 -0.011643
v 0.247907 2.060676 0.015286
v 0.251450 2.060676 0.005000
v 0.238225 2.060676 0.022816
v 0.225000 2.060676 0.025572
v 0.211775 2.060676 0.022816
v 0.202093 2.060676 0.015286
v 0.198550 2.060676 0.005000
v 0.202093 2.060676 -0.005286
v 0.211775 2.060676 -0.012816
v 0.225000 2.060676 -0.015572
v 0.238225 2.060676 -0.012816
v 0.247907 2.060676 -0.005286
v 0.225000 2.075000 0.005000
v 0.225000 2.075000 0.005000
v 0.225000 2.075000 0.005000
v 0.225000 2.075000 0.005000
v 0.225000 2.075000 0.005000
v 0.225000 2.075000 0.005000
v 0.225000 2.075000 0.005000
v 0.225000 2.075000 0.005000
v 0.225000 2.075000 0.005000
v 0.225000 2.075000 0.005000
v 0.225000 2.075000 0.005000
v 0.225000 2.075000 0.005000
o Ear_R
usemtl Skin
f 1 2 3
f 1 4 2
f 3 5 6
f 3 2 5
f 6 7 8
f 6 5 7
f 8 9 10
f 8 7 9
f 10 11 12
f 10 9 11
f 12 13 14
f 12 11 13
f 14 15 16
f 14 13 15
f 16 17 18
f 16 15 17
f 18 19 20
f 18 17 19
f 20 21 22
f 20 19 21
f 22 23 24
f 22 21 23
f 24 4 1
f 24 23 4
f 4 25 2
f 4 26 25
f 2 27 5
f 2 25 27
f 5 28 7
f 5 27 28
f 7 29 9
f 7 28 29
f 9 30 11
f 9 29 30
f 11 31 13
f 11 30 31
f 13 32 15
f 13 31 32
f 15 33 17
f 15 32 33
f 17 34 19
f 17 33 34
f 19 35 21
f 19 34 35
f 21 36 23
f 21 35 36
f 23 26 4
f 23 36 26
f 26 37 25
f 26 38 37
f 25 39 27
f 25 37 39
f 27 40 28
f 27 39 40
f 28 41 29
f 28 40 41
f 29 42 30
f 29 41 42
f 30 43 31
f 30 42 43
f 31 44 32
f 31 43 44
f 32 45 33
f 32 44 45
f 33 46 34
f 33 45 46
f 34 47 35
f 34 46 47
f 35 48 36
f 35 47 48
f 36 38 26
f 36 48 38
f 38 49 37
f 38 50 49
f 37 51 39
f 37 49 51
f 39 52 40
f 39 51 52
f 40 53 41
f 40 52 53
f 41 54 42
f 41 53 54
f 42 55 43
f 42 54 55
f 43 56 44
f 43 55 56
f 44 57 45
f 44 56 57
f 45 58 46
f 45 57 58
f 46 59 47
f 46 58 59
f 47 60 48
f 47 59 60
f 48 50 38
f 48 60 50
f 50 61 49
f 50 62 61
f 49 63 51
f 49 61 63
f 51 64 52
f 51 63 64
f 52 65 53
f 52 64 65
f 53 66 54
f 53 65 66
f 54 67 55
f 54 66 67
f 55 68 56
f 55 67 68
f 56 69 57
f 56 68 69
f 57 70 58
f 57 69 70
f 58 71 59
f 58 70 71
f 59 72 60
f 59 71 72
f 60 62 50
f 60 72 62
