# LibreViesHeroine — groupe importé indépendant, CC0
# Généré par compilation/outils/generer_heroine_librevies.py
mtllib LibreViesHeroineParts.mtl
v -0.225000 1.925000 0.005000
v -0.225000 1.925000 0.005000
v -0.202093 1.939324 0.015286
v -0.198550 1.939324 0.005000
v -0.225000 1.925000 0.005000
v -0.211775 1.939324 0.022816
v -0.225000 1.925000 0.005000
v -0.225000 1.939324 0.025572
v -0.225000 1.925000 0.005000
v -0.238225 1.939324 0.022816
v -0.225000 1.925000 0.005000
v -0.247907 1.939324 0.015286
v -0.225000 1.925000 0.005000
v -0.251450 1.939324 0.005000
v -0.225000 1.925000 0.005000
v -0.247907 1.939324 -0.005286
v -0.225000 1.925000 0.005000
v -0.238225 1.939324 -0.012816
v -0.225000 1.925000 0.005000
v -0.225000 1.939324 -0.015572
v -0.225000 1.925000 0.005000
v -0.211775 1.939324 -0.012816
v -0.225000 1.925000 0.005000
v -0.202093 1.939324 -0.005286
v -0.187936 1.976824 0.021643
v -0.182202 1.976824 0.005000
v -0.203601 1.976824 0.033827
v -0.225000 1.976824 0.038287
v -0.246399 1.976824 0.033827
v -0.262064 1.976824 0.021643
v -0.267798 1.976824 0.005000
v -0.262064 1.976824 -0.011643
v -0.246399 1.976824 -0.023827
v -0.225000 1.976824 -0.028287
v -0.203601 1.976824 -0.023827
v -0.187936 1.976824 -0.011643
v -0.187936 2.023176 0.021643
v -0.182202 2.023176 0.005000
v -0.203601 2.023176 0.033827
v -0.225000 2.023176 0.038287
v -0.246399 2.023176 0.033827
v -0.262064 2.023176 0.021643
v -0.267798 2.023176 0.005000
v -0.262064 2.023176 -0.011643
v -0.246399 2.023176 -0.023827
v -0.225000 2.023176 -0.028287
v -0.203601 2.023176 -0.023827
v -0.187936 2.023176 -0.011643
v -0.202093 2.060676 0.015286
v -0.198550 2.060676 0.005000
v -0.211775 2.060676 0.022816
v -0.225000 2.060676 0.025572
v -0.238225 2.060676 0.022816
v -0.247907 2.060676 0.015286
v -0.251450 2.060676 0.005000
v -0.247907 2.060676 -0.005286
v -0.238225 2.060676 -0.012816
v -0.225000 2.060676 -0.015572
v -0.211775 2.060676 -0.012816
v -0.202093 2.060676 -0.005286
v -0.225000 2.075000 0.005000
v -0.225000 2.075000 0.005000
v -0.225000 2.075000 0.005000
v -0.225000 2.075000 0.005000
v -0.225000 2.075000 0.005000
v -0.225000 2.075000 0.005000
v -0.225000 2.075000 0.005000
v -0.225000 2.075000 0.005000
v -0.225000 2.075000 0.005000
v -0.225000 2.075000 0.005000
v -0.225000 2.075000 0.005000
v -0.225000 2.075000 0.005000
o Ear_L
usemtl Skin
f 1 2 3
f 1 3 4
f 2 5 6
f 2 6 3
f 5 7 8
f 5 8 6
f 7 9 10
f 7 10 8
f 9 11 12
f 9 12 10
f 11 13 14
f 11 14 12
f 13 15 16
f 13 16 14
f 15 17 18
f 15 18 16
f 17 19 20
f 17 20 18
f 19 21 22
f 19 22 20
f 21 23 24
f 21 24 22
f 23 1 4
f 23 4 24
f 4 3 25
f 4 25 26
f 3 6 27
f 3 27 25
f 6 8 28
f 6 28 27
f 8 10 29
f 8 29 28
f 10 12 30
f 10 30 29
f 12 14 31
f 12 31 30
f 14 16 32
f 14 32 31
f 16 18 33
f 16 33 32
f 18 20 34
f 18 34 33
f 20 22 35
f 20 35 34
f 22 24 36
f 22 36 35
f 24 4 26
f 24 26 36
f 26 25 37
f 26 37 38
f 25 27 39
f 25 39 37
f 27 28 40
f 27 40 39
f 28 29 41
f 28 41 40
f 29 30 42
f 29 42 41
f 30 31 43
f 30 43 42
f 31 32 44
f 31 44 43
f 32 33 45
f 32 45 44
f 33 34 46
f 33 46 45
f 34 35 47
f 34 47 46
f 35 36 48
f 35 48 47
f 36 26 38
f 36 38 48
f 38 37 49
f 38 49 50
f 37 39 51
f 37 51 49
f 39 40 52
f 39 52 51
f 40 41 53
f 40 53 52
f 41 42 54
f 41 54 53
f 42 43 55
f 42 55 54
f 43 44 56
f 43 56 55
f 44 45 57
f 44 57 56
f 45 46 58
f 45 58 57
f 46 47 59
f 46 59 58
f 47 48 60
f 47 60 59
f 48 38 50
f 48 50 60
f 50 49 61
f 50 61 62
f 49 51 63
f 49 63 61
f 51 52 64
f 51 64 63
f 52 53 65
f 52 65 64
f 53 54 66
f 53 66 65
f 54 55 67
f 54 67 66
f 55 56 68
f 55 68 67
f 56 57 69
f 56 69 68
f 57 58 70
f 57 70 69
f 58 59 71
f 58 71 70
f 59 60 72
f 59 72 71
f 60 50 62
f 60 62 72
