# LibreViesHeroine — groupe importé indépendant, CC0
# Généré par compilation/outils/generer_heroine_librevies.py
mtllib LibreViesHeroineParts.mtl
v 0.302104 2.160000 0.029411
v 0.340104 1.920000 0.078033
v 0.280104 2.160000 0.063033
v 0.362104 1.920000 0.044411
v 0.302000 1.920000 0.097444
v 0.242000 2.160000 0.082444
v 0.258000 1.920000 0.097444
v 0.198000 2.160000 0.082444
v 0.219896 1.920000 0.078033
v 0.159896 2.160000 0.063033
v 0.197896 1.920000 0.044411
v 0.137896 2.160000 0.029411
v 0.197896 1.920000 0.005589
v 0.137896 2.160000 -0.009411
v 0.219896 1.920000 -0.028033
v 0.159896 2.160000 -0.043033
v 0.258000 1.920000 -0.047444
v 0.198000 2.160000 -0.062444
v 0.302000 1.920000 -0.047444
v 0.242000 2.160000 -0.062444
v 0.340104 1.920000 -0.028033
v 0.280104 2.160000 -0.043033
v 0.362104 1.920000 0.005589
v 0.302104 2.160000 -0.009411
v 0.295962 1.670000 0.077426
v 0.312785 1.670000 0.050529
v 0.266823 1.670000 0.092956
v 0.233177 1.670000 0.092956
v 0.204038 1.670000 0.077426
v 0.187215 1.670000 0.050529
v 0.187215 1.670000 0.019471
v 0.204038 1.670000 -0.007426
v 0.233177 1.670000 -0.022956
v 0.266823 1.670000 -0.022956
v 0.295962 1.670000 -0.007426
v 0.312785 1.670000 0.019471
v 0.224749 1.480000 0.074749
v 0.233807 1.480000 0.059059
v 0.209059 1.480000 0.083807
v 0.190941 1.480000 0.083807
v 0.175251 1.480000 0.074749
v 0.166193 1.480000 0.059059
v 0.166193 1.480000 0.040941
v 0.175251 1.480000 0.025251
v 0.190941 1.480000 0.016193
v 0.209059 1.480000 0.016193
v 0.224749 1.480000 0.025251
v 0.233807 1.480000 0.040941
v 0.220000 2.160000 0.010000
v 0.200000 1.480000 0.050000
o HairLock_R
usemtl Hair_Red_Light
f 1 2 3
f 1 4 2
f 3 5 6
f 3 2 5
f 6 7 8
f 6 5 7
f 8 9 10
f 8 7 9
f 10 11 12
f 10 9 11
f 12 13 14
f 12 11 13
f 14 15 16
f 14 13 15
f 16 17 18
f 16 15 17
f 18 19 20
f 18 17 19
f 20 21 22
f 20 19 21
f 22 23 24
f 22 21 23
f 24 4 1
f 24 23 4
f 4 25 2
f 4 26 25
f 2 27 5
f 2 25 27
f 5 28 7
f 5 27 28
f 7 29 9
f 7 28 29
f 9 30 11
f 9 29 30
f 11 31 13
f 11 30 31
f 13 32 15
f 13 31 32
f 15 33 17
f 15 32 33
f 17 34 19
f 17 33 34
f 19 35 21
f 19 34 35
f 21 36 23
f 21 35 36
f 23 26 4
f 23 36 26
f 26 37 25
f 26 38 37
f 25 39 27
f 25 37 39
f 27 40 28
f 27 39 40
f 28 41 29
f 28 40 41
f 29 42 30
f 29 41 42
f 30 43 31
f 30 42 43
f 31 44 32
f 31 43 44
f 32 45 33
f 32 44 45
f 33 46 34
f 33 45 46
f 34 47 35
f 34 46 47
f 35 48 36
f 35 47 48
f 36 38 26
f 36 48 38
f 49 1 3
f 50 37 38
f 49 3 6
f 50 39 37
f 49 6 8
f 50 40 39
f 49 8 10
f 50 41 40
f 49 10 12
f 50 42 41
f 49 12 14
f 50 43 42
f 49 14 16
f 50 44 43
f 49 16 18
f 50 45 44
f 49 18 20
f 50 46 45
f 49 20 22
f 50 47 46
f 49 22 24
f 50 48 47
f 49 24 1
f 50 38 48
