# LibreViesHeroine — groupe importé indépendant, CC0
# Généré par compilation/outils/generer_heroine_librevies.py
mtllib LibreViesHeroineParts.mtl
v 0.250000 2.070000 -0.005000
v 0.275806 2.180000 0.062984
v 0.237764 2.070000 0.059894
v 0.290000 2.180000 -0.005000
v 0.234615 2.180000 0.124313
v 0.202254 2.070000 0.118435
v 0.170458 2.180000 0.172984
v 0.146946 2.070000 0.164894
v 0.089615 2.180000 0.204232
v 0.077254 2.070000 0.194722
v 0.000000 2.180000 0.215000
v 0.000000 2.070000 0.205000
v -0.089615 2.180000 0.204232
v -0.077254 2.070000 0.194722
v -0.170458 2.180000 0.172984
v -0.146946 2.070000 0.164894
v -0.234615 2.180000 0.124313
v -0.202254 2.070000 0.118435
v -0.275806 2.180000 0.062984
v -0.237764 2.070000 0.059894
v -0.290000 2.180000 -0.005000
v -0.250000 2.070000 -0.005000
v -0.275806 2.180000 -0.072984
v -0.237764 2.070000 -0.069894
v -0.234615 2.180000 -0.134313
v -0.202254 2.070000 -0.128435
v -0.170458 2.180000 -0.182984
v -0.146946 2.070000 -0.174894
v -0.089615 2.180000 -0.214232
v -0.077254 2.070000 -0.204722
v -0.000000 2.180000 -0.225000
v -0.000000 2.070000 -0.215000
v 0.089615 2.180000 -0.214232
v 0.077254 2.070000 -0.204722
v 0.170458 2.180000 -0.182984
v 0.146946 2.070000 -0.174894
v 0.234615 2.180000 -0.134313
v 0.202254 2.070000 -0.128435
v 0.275806 2.180000 -0.072984
v 0.237764 2.070000 -0.069894
v 0.209232 2.290000 0.047533
v 0.220000 2.290000 -0.005000
v 0.177984 2.290000 0.094923
v 0.129313 2.290000 0.132533
v 0.067984 2.290000 0.156680
v 0.000000 2.290000 0.165000
v -0.067984 2.290000 0.156680
v -0.129313 2.290000 0.132533
v -0.177984 2.290000 0.094923
v -0.209232 2.290000 0.047533
v -0.220000 2.290000 -0.005000
v -0.209232 2.290000 -0.057533
v -0.177984 2.290000 -0.104923
v -0.129313 2.290000 -0.142533
v -0.067984 2.290000 -0.166680
v -0.000000 2.290000 -0.175000
v 0.067984 2.290000 -0.166680
v 0.129313 2.290000 -0.142533
v 0.177984 2.290000 -0.104923
v 0.209232 2.290000 -0.057533
v 0.052308 2.360000 0.008906
v 0.055000 2.360000 -0.005000
v 0.044496 2.360000 0.021450
v 0.032328 2.360000 0.031406
v 0.016996 2.360000 0.037798
v 0.000000 2.360000 0.040000
v -0.016996 2.360000 0.037798
v -0.032328 2.360000 0.031406
v -0.044496 2.360000 0.021450
v -0.052308 2.360000 0.008906
v -0.055000 2.360000 -0.005000
v -0.052308 2.360000 -0.018906
v -0.044496 2.360000 -0.031450
v -0.032328 2.360000 -0.041406
v -0.016996 2.360000 -0.047798
v -0.000000 2.360000 -0.050000
v 0.016996 2.360000 -0.047798
v 0.032328 2.360000 -0.041406
v 0.044496 2.360000 -0.031450
v 0.052308 2.360000 -0.018906
v 0.000000 2.070000 -0.005000
v 0.000000 2.360000 -0.005000
o HairCap
usemtl Hair_Red
f 1 2 3
f 1 4 2
f 3 5 6
f 3 2 5
f 6 7 8
f 6 5 7
f 8 9 10
f 8 7 9
f 10 11 12
f 10 9 11
f 12 13 14
f 12 11 13
f 14 15 16
f 14 13 15
f 16 17 18
f 16 15 17
f 18 19 20
f 18 17 19
f 20 21 22
f 20 19 21
f 22 23 24
f 22 21 23
f 24 25 26
f 24 23 25
f 26 27 28
f 26 25 27
f 28 29 30
f 28 27 29
f 30 31 32
f 30 29 31
f 32 33 34
f 32 31 33
f 34 35 36
f 34 33 35
f 36 37 38
f 36 35 37
f 38 39 40
f 38 37 39
f 40 4 1
f 40 39 4
f 4 41 2
f 4 42 41
f 2 43 5
f 2 41 43
f 5 44 7
f 5 43 44
f 7 45 9
f 7 44 45
f 9 46 11
f 9 45 46
f 11 47 13
f 11 46 47
f 13 48 15
f 13 47 48
f 15 49 17
f 15 48 49
f 17 50 19
f 17 49 50
f 19 51 21
f 19 50 51
f 21 52 23
f 21 51 52
f 23 53 25
f 23 52 53
f 25 54 27
f 25 53 54
f 27 55 29
f 27 54 55
f 29 56 31
f 29 55 56
f 31 57 33
f 31 56 57
f 33 58 35
f 33 57 58
f 35 59 37
f 35 58 59
f 37 60 39
f 37 59 60
f 39 42 4
f 39 60 42
f 42 61 41
f 42 62 61
f 41 63 43
f 41 61 63
f 43 64 44
f 43 63 64
f 44 65 45
f 44 64 65
f 45 66 46
f 45 65 66
f 46 67 47
f 46 66 67
f 47 68 48
f 47 67 68
f 48 69 49
f 48 68 69
f 49 70 50
f 49 69 70
f 50 71 51
f 50 70 71
f 51 72 52
f 51 71 72
f 52 73 53
f 52 72 73
f 53 74 54
f 53 73 74
f 54 75 55
f 54 74 75
f 55 76 56
f 55 75 76
f 56 77 57
f 56 76 77
f 57 78 58
f 57 77 78
f 58 79 59
f 58 78 79
f 59 80 60
f 59 79 80
f 60 62 42
f 60 80 62
f 81 1 3
f 81 3 6
f 81 6 8
f 81 8 10
f 81 10 12
f 81 12 14
f 81 14 16
f 81 16 18
f 81 18 20
f 81 20 22
f 81 22 24
f 81 24 26
f 81 26 28
f 81 28 30
f 81 30 32
f 81 32 34
f 81 34 36
f 81 36 38
f 81 38 40
f 81 40 1
f 82 61 62
f 82 63 61
f 82 64 63
f 82 65 64
f 82 66 65
f 82 67 66
f 82 68 67
f 82 69 68
f 82 70 69
f 82 71 70
f 82 72 71
f 82 73 72
f 82 74 73
f 82 75 74
f 82 76 75
f 82 77 76
f 82 78 77
f 82 79 78
f 82 80 79
f 82 62 80
