# LibreViesHeroine — groupe importé indépendant, CC0
# Généré par compilation/outils/generer_heroine_librevies.py
mtllib LibreViesHeroineParts.mtl
v -0.620000 0.920000 0.050000
v -0.620000 0.920000 0.050000
v -0.572699 0.937417 0.071694
v -0.567500 0.937417 0.050000
v -0.620000 0.920000 0.050000
v -0.587267 0.937417 0.089092
v -0.620000 0.920000 0.050000
v -0.608318 0.937417 0.098746
v -0.620000 0.920000 0.050000
v -0.631682 0.937417 0.098746
v -0.620000 0.920000 0.050000
v -0.652733 0.937417 0.089092
v -0.620000 0.920000 0.050000
v -0.667301 0.937417 0.071694
v -0.620000 0.920000 0.050000
v -0.672500 0.937417 0.050000
v -0.620000 0.920000 0.050000
v -0.667301 0.937417 0.028306
v -0.620000 0.920000 0.050000
v -0.652733 0.937417 0.010908
v -0.620000 0.920000 0.050000
v -0.631682 0.937417 0.001254
v -0.620000 0.920000 0.050000
v -0.608318 0.937417 0.001254
v -0.620000 0.920000 0.050000
v -0.587267 0.937417 0.010908
v -0.620000 0.920000 0.050000
v -0.572699 0.937417 0.028306
v -0.538072 0.985000 0.087575
v -0.529067 0.985000 0.050000
v -0.563304 0.985000 0.117709
v -0.599766 0.985000 0.134431
v -0.640234 0.985000 0.134431
v -0.676696 0.985000 0.117709
v -0.701928 0.985000 0.087575
v -0.710933 0.985000 0.050000
v -0.701928 0.985000 0.012425
v -0.676696 0.985000 -0.017709
v -0.640234 0.985000 -0.034431
v -0.599766 0.985000 -0.034431
v -0.563304 0.985000 -0.017709
v -0.538072 0.985000 0.012425
v -0.525398 1.050000 0.093388
v -0.515000 1.050000 0.050000
v -0.554534 1.050000 0.128183
v -0.596635 1.050000 0.147493
v -0.643365 1.050000 0.147493
v -0.685466 1.050000 0.128183
v -0.714602 1.050000 0.093388
v -0.725000 1.050000 0.050000
v -0.714602 1.050000 0.006612
v -0.685466 1.050000 -0.028183
v -0.643365 1.050000 -0.047493
v -0.596635 1.050000 -0.047493
v -0.554534 1.050000 -0.028183
v -0.525398 1.050000 0.006612
v -0.538072 1.115000 0.087575
v -0.529067 1.115000 0.050000
v -0.563304 1.115000 0.117709
v -0.599766 1.115000 0.134431
v -0.640234 1.115000 0.134431
v -0.676696 1.115000 0.117709
v -0.701928 1.115000 0.087575
v -0.710933 1.115000 0.050000
v -0.701928 1.115000 0.012425
v -0.676696 1.115000 -0.017709
v -0.640234 1.115000 -0.034431
v -0.599766 1.115000 -0.034431
v -0.563304 1.115000 -0.017709
v -0.538072 1.115000 0.012425
v -0.572699 1.162583 0.071694
v -0.567500 1.162583 0.050000
v -0.587267 1.162583 0.089092
v -0.608318 1.162583 0.098746
v -0.631682 1.162583 0.098746
v -0.652733 1.162583 0.089092
v -0.667301 1.162583 0.071694
v -0.672500 1.162583 0.050000
v -0.667301 1.162583 0.028306
v -0.652733 1.162583 0.010908
v -0.631682 1.162583 0.001254
v -0.608318 1.162583 0.001254
v -0.587267 1.162583 0.010908
v -0.572699 1.162583 0.028306
v -0.620000 1.180000 0.050000
v -0.620000 1.180000 0.050000
v -0.620000 1.180000 0.050000
v -0.620000 1.180000 0.050000
v -0.620000 1.180000 0.050000
v -0.620000 1.180000 0.050000
v -0.620000 1.180000 0.050000
v -0.620000 1.180000 0.050000
v -0.620000 1.180000 0.050000
v -0.620000 1.180000 0.050000
v -0.620000 1.180000 0.050000
v -0.620000 1.180000 0.050000
v -0.620000 1.180000 0.050000
v -0.620000 1.180000 0.050000
o Hand_L
usemtl SkinLight
f 1 2 3
f 1 3 4
f 2 5 6
f 2 6 3
f 5 7 8
f 5 8 6
f 7 9 10
f 7 10 8
f 9 11 12
f 9 12 10
f 11 13 14
f 11 14 12
f 13 15 16
f 13 16 14
f 15 17 18
f 15 18 16
f 17 19 20
f 17 20 18
f 19 21 22
f 19 22 20
f 21 23 24
f 21 24 22
f 23 25 26
f 23 26 24
f 25 27 28
f 25 28 26
f 27 1 4
f 27 4 28
f 4 3 29
f 4 29 30
f 3 6 31
f 3 31 29
f 6 8 32
f 6 32 31
f 8 10 33
f 8 33 32
f 10 12 34
f 10 34 33
f 12 14 35
f 12 35 34
f 14 16 36
f 14 36 35
f 16 18 37
f 16 37 36
f 18 20 38
f 18 38 37
f 20 22 39
f 20 39 38
f 22 24 40
f 22 40 39
f 24 26 41
f 24 41 40
f 26 28 42
f 26 42 41
f 28 4 30
f 28 30 42
f 30 29 43
f 30 43 44
f 29 31 45
f 29 45 43
f 31 32 46
f 31 46 45
f 32 33 47
f 32 47 46
f 33 34 48
f 33 48 47
f 34 35 49
f 34 49 48
f 35 36 50
f 35 50 49
f 36 37 51
f 36 51 50
f 37 38 52
f 37 52 51
f 38 39 53
f 38 53 52
f 39 40 54
f 39 54 53
f 40 41 55
f 40 55 54
f 41 42 56
f 41 56 55
f 42 30 44
f 42 44 56
f 44 43 57
f 44 57 58
f 43 45 59
f 43 59 57
f 45 46 60
f 45 60 59
f 46 47 61
f 46 61 60
f 47 48 62
f 47 62 61
f 48 49 63
f 48 63 62
f 49 50 64
f 49 64 63
f 50 51 65
f 50 65 64
f 51 52 66
f 51 66 65
f 52 53 67
f 52 67 66
f 53 54 68
f 53 68 67
f 54 55 69
f 54 69 68
f 55 56 70
f 55 70 69
f 56 44 58
f 56 58 70
f 58 57 71
f 58 71 72
f 57 59 73
f 57 73 71
f 59 60 74
f 59 74 73
f 60 61 75
f 60 75 74
f 61 62 76
f 61 76 75
f 62 63 77
f 62 77 76
f 63 64 78
f 63 78 77
f 64 65 79
f 64 79 78
f 65 66 80
f 65 80 79
f 66 67 81
f 66 81 80
f 67 68 82
f 67 82 81
f 68 69 83
f 68 83 82
f 69 70 84
f 69 84 83
f 70 58 72
f 70 72 84
f 72 71 85
f 72 85 86
f 71 73 87
f 71 87 85
f 73 74 88
f 73 88 87
f 74 75 89
f 74 89 88
f 75 76 90
f 75 90 89
f 76 77 91
f 76 91 90
f 77 78 92
f 77 92 91
f 78 79 93
f 78 93 92
f 79 80 94
f 79 94 93
f 80 81 95
f 80 95 94
f 81 82 96
f 81 96 95
f 82 83 97
f 82 97 96
f 83 84 98
f 83 98 97
f 84 72 86
f 84 86 98
