# LibreViesHeroine — groupe importé indépendant, CC0
# Généré par compilation/outils/generer_heroine_librevies.py
mtllib LibreViesHeroineParts.mtl
v 0.000000 1.690000 0.010000
v 0.069065 1.704194 0.029576
v 0.000000 1.690000 0.010000
v 0.072619 1.704194 0.010000
v 0.058750 1.704194 0.047235
v 0.000000 1.690000 0.010000
v 0.042684 1.704194 0.061250
v 0.000000 1.690000 0.010000
v 0.022441 1.704194 0.070248
v 0.000000 1.690000 0.010000
v 0.000000 1.704194 0.073348
v 0.000000 1.690000 0.010000
v -0.022441 1.704194 0.070248
v -0.000000 1.690000 0.010000
v -0.042684 1.704194 0.061250
v -0.000000 1.690000 0.010000
v -0.058750 1.704194 0.047235
v -0.000000 1.690000 0.010000
v -0.069065 1.704194 0.029576
v -0.000000 1.690000 0.010000
v -0.072619 1.704194 0.010000
v -0.000000 1.690000 0.010000
v -0.069065 1.704194 -0.009576
v -0.000000 1.690000 0.010000
v -0.058750 1.704194 -0.027235
v -0.000000 1.690000 0.010000
v -0.042684 1.704194 -0.041250
v -0.000000 1.690000 0.010000
v -0.022441 1.704194 -0.050248
v -0.000000 1.690000 0.010000
v -0.000000 1.704194 -0.053348
v -0.000000 1.690000 0.010000
v 0.022441 1.704194 -0.050248
v 0.000000 1.690000 0.010000
v 0.042684 1.704194 -0.041250
v 0.000000 1.690000 0.010000
v 0.058750 1.704194 -0.027235
v 0.000000 1.690000 0.010000
v 0.069065 1.704194 -0.009576
v 0.000000 1.690000 0.010000
v 0.131369 1.745385 0.047235
v 0.138130 1.745385 0.010000
v 0.111749 1.745385 0.080826
v 0.081191 1.745385 0.107483
v 0.042684 1.745385 0.124598
v 0.000000 1.745385 0.130496
v -0.042684 1.745385 0.124598
v -0.081191 1.745385 0.107483
v -0.111749 1.745385 0.080826
v -0.131369 1.745385 0.047235
v -0.138130 1.745385 0.010000
v -0.131369 1.745385 -0.027235
v -0.111749 1.745385 -0.060826
v -0.081191 1.745385 -0.087483
v -0.042684 1.745385 -0.104598
v -0.000000 1.745385 -0.110496
v 0.042684 1.745385 -0.104598
v 0.081191 1.745385 -0.087483
v 0.111749 1.745385 -0.060826
v 0.131369 1.745385 -0.027235
v 0.180814 1.809542 0.061250
v 0.190119 1.809542 0.010000
v 0.153809 1.809542 0.107483
v 0.111749 1.809542 0.144174
v 0.058750 1.809542 0.167731
v 0.000000 1.809542 0.175848
v -0.058750 1.809542 0.167731
v -0.111749 1.809542 0.144174
v -0.153809 1.809542 0.107483
v -0.180814 1.809542 0.061250
v -0.190119 1.809542 0.010000
v -0.180814 1.809542 -0.041250
v -0.153809 1.809542 -0.087483
v -0.111749 1.809542 -0.124174
v -0.058750 1.809542 -0.147731
v -0.000000 1.809542 -0.155848
v 0.058750 1.809542 -0.147731
v 0.111749 1.809542 -0.124174
v 0.153809 1.809542 -0.087483
v 0.180814 1.809542 -0.041250
v 0.212559 1.890385 0.070248
v 0.223498 1.890385 0.010000
v 0.180814 1.890385 0.124598
v 0.131369 1.890385 0.167731
v 0.069065 1.890385 0.195424
v 0.000000 1.890385 0.204967
v -0.069065 1.890385 0.195424
v -0.131369 1.890385 0.167731
v -0.180814 1.890385 0.124598
v -0.212559 1.890385 0.070248
v -0.223498 1.890385 0.010000
v -0.212559 1.890385 -0.050248
v -0.180814 1.890385 -0.104598
v -0.131369 1.890385 -0.147731
v -0.069065 1.890385 -0.175424
v -0.000000 1.890385 -0.184967
v 0.069065 1.890385 -0.175424
v 0.131369 1.890385 -0.147731
v 0.180814 1.890385 -0.104598
v 0.212559 1.890385 -0.050248
v 0.223498 1.980000 0.073348
v 0.235000 1.980000 0.010000
v 0.190119 1.980000 0.130496
v 0.138130 1.980000 0.175848
v 0.072619 1.980000 0.204967
v 0.000000 1.980000 0.215000
v -0.072619 1.980000 0.204967
v -0.138130 1.980000 0.175848
v -0.190119 1.980000 0.130496
v -0.223498 1.980000 0.073348
v -0.235000 1.980000 0.010000
v -0.223498 1.980000 -0.053348
v -0.190119 1.980000 -0.110496
v -0.138130 1.980000 -0.155848
v -0.072619 1.980000 -0.184967
v -0.000000 1.980000 -0.195000
v 0.072619 1.980000 -0.184967
v 0.138130 1.980000 -0.155848
v 0.190119 1.980000 -0.110496
v 0.223498 1.980000 -0.053348
v 0.212559 2.069615 0.070248
v 0.223498 2.069615 0.010000
v 0.180814 2.069615 0.124598
v 0.131369 2.069615 0.167731
v 0.069065 2.069615 0.195424
v 0.000000 2.069615 0.204967
v -0.069065 2.069615 0.195424
v -0.131369 2.069615 0.167731
v -0.180814 2.069615 0.124598
v -0.212559 2.069615 0.070248
v -0.223498 2.069615 0.010000
v -0.212559 2.069615 -0.050248
v -0.180814 2.069615 -0.104598
v -0.131369 2.069615 -0.147731
v -0.069065 2.069615 -0.175424
v -0.000000 2.069615 -0.184967
v 0.069065 2.069615 -0.175424
v 0.131369 2.069615 -0.147731
v 0.180814 2.069615 -0.104598
v 0.212559 2.069615 -0.050248
v 0.180814 2.150458 0.061250
v 0.190119 2.150458 0.010000
v 0.153809 2.150458 0.107483
v 0.111749 2.150458 0.144174
v 0.058750 2.150458 0.167731
v 0.000000 2.150458 0.175848
v -0.058750 2.150458 0.167731
v -0.111749 2.150458 0.144174
v -0.153809 2.150458 0.107483
v -0.180814 2.150458 0.061250
v -0.190119 2.150458 0.010000
v -0.180814 2.150458 -0.041250
v -0.153809 2.150458 -0.087483
v -0.111749 2.150458 -0.124174
v -0.058750 2.150458 -0.147731
v -0.000000 2.150458 -0.155848
v 0.058750 2.150458 -0.147731
v 0.111749 2.150458 -0.124174
v 0.153809 2.150458 -0.087483
v 0.180814 2.150458 -0.041250
v 0.131369 2.214615 0.047235
v 0.138130 2.214615 0.010000
v 0.111749 2.214615 0.080826
v 0.081191 2.214615 0.107483
v 0.042684 2.214615 0.124598
v 0.000000 2.214615 0.130496
v -0.042684 2.214615 0.124598
v -0.081191 2.214615 0.107483
v -0.111749 2.214615 0.080826
v -0.131369 2.214615 0.047235
v -0.138130 2.214615 0.010000
v -0.131369 2.214615 -0.027235
v -0.111749 2.214615 -0.060826
v -0.081191 2.214615 -0.087483
v -0.042684 2.214615 -0.104598
v -0.000000 2.214615 -0.110496
v 0.042684 2.214615 -0.104598
v 0.081191 2.214615 -0.087483
v 0.111749 2.214615 -0.060826
v 0.131369 2.214615 -0.027235
v 0.069065 2.255806 0.029576
v 0.072619 2.255806 0.010000
v 0.058750 2.255806 0.047235
v 0.042684 2.255806 0.061250
v 0.022441 2.255806 0.070248
v 0.000000 2.255806 0.073348
v -0.022441 2.255806 0.070248
v -0.042684 2.255806 0.061250
v -0.058750 2.255806 0.047235
v -0.069065 2.255806 0.029576
v -0.072619 2.255806 0.010000
v -0.069065 2.255806 -0.009576
v -0.058750 2.255806 -0.027235
v -0.042684 2.255806 -0.041250
v -0.022441 2.255806 -0.050248
v -0.000000 2.255806 -0.053348
v 0.022441 2.255806 -0.050248
v 0.042684 2.255806 -0.041250
v 0.058750 2.255806 -0.027235
v 0.069065 2.255806 -0.009576
v 0.000000 2.270000 0.010000
v 0.000000 2.270000 0.010000
v 0.000000 2.270000 0.010000
v 0.000000 2.270000 0.010000
v 0.000000 2.270000 0.010000
v 0.000000 2.270000 0.010000
v -0.000000 2.270000 0.010000
v -0.000000 2.270000 0.010000
v -0.000000 2.270000 0.010000
v -0.000000 2.270000 0.010000
v -0.000000 2.270000 0.010000
v -0.000000 2.270000 0.010000
v -0.000000 2.270000 0.010000
v -0.000000 2.270000 0.010000
v -0.000000 2.270000 0.010000
v -0.000000 2.270000 0.010000
v 0.000000 2.270000 0.010000
v 0.000000 2.270000 0.010000
v 0.000000 2.270000 0.010000
v 0.000000 2.270000 0.010000
o Head
usemtl SkinLight
f 1 2 3
f 1 4 2
f 3 5 6
f 3 2 5
f 6 7 8
f 6 5 7
f 8 9 10
f 8 7 9
f 10 11 12
f 10 9 11
f 12 13 14
f 12 11 13
f 14 15 16
f 14 13 15
f 16 17 18
f 16 15 17
f 18 19 20
f 18 17 19
f 20 21 22
f 20 19 21
f 22 23 24
f 22 21 23
f 24 25 26
f 24 23 25
f 26 27 28
f 26 25 27
f 28 29 30
f 28 27 29
f 30 31 32
f 30 29 31
f 32 33 34
f 32 31 33
f 34 35 36
f 34 33 35
f 36 37 38
f 36 35 37
f 38 39 40
f 38 37 39
f 40 4 1
f 40 39 4
f 4 41 2
f 4 42 41
f 2 43 5
f 2 41 43
f 5 44 7
f 5 43 44
f 7 45 9
f 7 44 45
f 9 46 11
f 9 45 46
f 11 47 13
f 11 46 47
f 13 48 15
f 13 47 48
f 15 49 17
f 15 48 49
f 17 50 19
f 17 49 50
f 19 51 21
f 19 50 51
f 21 52 23
f 21 51 52
f 23 53 25
f 23 52 53
f 25 54 27
f 25 53 54
f 27 55 29
f 27 54 55
f 29 56 31
f 29 55 56
f 31 57 33
f 31 56 57
f 33 58 35
f 33 57 58
f 35 59 37
f 35 58 59
f 37 60 39
f 37 59 60
f 39 42 4
f 39 60 42
f 42 61 41
f 42 62 61
f 41 63 43
f 41 61 63
f 43 64 44
f 43 63 64
f 44 65 45
f 44 64 65
f 45 66 46
f 45 65 66
f 46 67 47
f 46 66 67
f 47 68 48
f 47 67 68
f 48 69 49
f 48 68 69
f 49 70 50
f 49 69 70
f 50 71 51
f 50 70 71
f 51 72 52
f 51 71 72
f 52 73 53
f 52 72 73
f 53 74 54
f 53 73 74
f 54 75 55
f 54 74 75
f 55 76 56
f 55 75 76
f 56 77 57
f 56 76 77
f 57 78 58
f 57 77 78
f 58 79 59
f 58 78 79
f 59 80 60
f 59 79 80
f 60 62 42
f 60 80 62
f 62 81 61
f 62 82 81
f 61 83 63
f 61 81 83
f 63 84 64
f 63 83 84
f 64 85 65
f 64 84 85
f 65 86 66
f 65 85 86
f 66 87 67
f 66 86 87
f 67 88 68
f 67 87 88
f 68 89 69
f 68 88 89
f 69 90 70
f 69 89 90
f 70 91 71
f 70 90 91
f 71 92 72
f 71 91 92
f 72 93 73
f 72 92 93
f 73 94 74
f 73 93 94
f 74 95 75
f 74 94 95
f 75 96 76
f 75 95 96
f 76 97 77
f 76 96 97
f 77 98 78
f 77 97 98
f 78 99 79
f 78 98 99
f 79 100 80
f 79 99 100
f 80 82 62
f 80 100 82
f 82 101 81
f 82 102 101
f 81 103 83
f 81 101 103
f 83 104 84
f 83 103 104
f 84 105 85
f 84 104 105
f 85 106 86
f 85 105 106
f 86 107 87
f 86 106 107
f 87 108 88
f 87 107 108
f 88 109 89
f 88 108 109
f 89 110 90
f 89 109 110
f 90 111 91
f 90 110 111
f 91 112 92
f 91 111 112
f 92 113 93
f 92 112 113
f 93 114 94
f 93 113 114
f 94 115 95
f 94 114 115
f 95 116 96
f 95 115 116
f 96 117 97
f 96 116 117
f 97 118 98
f 97 117 118
f 98 119 99
f 98 118 119
f 99 120 100
f 99 119 120
f 100 102 82
f 100 120 102
f 102 121 101
f 102 122 121
f 101 123 103
f 101 121 123
f 103 124 104
f 103 123 124
f 104 125 105
f 104 124 125
f 105 126 106
f 105 125 126
f 106 127 107
f 106 126 127
f 107 128 108
f 107 127 128
f 108 129 109
f 108 128 129
f 109 130 110
f 109 129 130
f 110 131 111
f 110 130 131
f 111 132 112
f 111 131 132
f 112 133 113
f 112 132 133
f 113 134 114
f 113 133 134
f 114 135 115
f 114 134 135
f 115 136 116
f 115 135 136
f 116 137 117
f 116 136 137
f 117 138 118
f 117 137 138
f 118 139 119
f 118 138 139
f 119 140 120
f 119 139 140
f 120 122 102
f 120 140 122
f 122 141 121
f 122 142 141
f 121 143 123
f 121 141 143
f 123 144 124
f 123 143 144
f 124 145 125
f 124 144 145
f 125 146 126
f 125 145 146
f 126 147 127
f 126 146 147
f 127 148 128
f 127 147 148
f 128 149 129
f 128 148 149
f 129 150 130
f 129 149 150
f 130 151 131
f 130 150 151
f 131 152 132
f 131 151 152
f 132 153 133
f 132 152 153
f 133 154 134
f 133 153 154
f 134 155 135
f 134 154 155
f 135 156 136
f 135 155 156
f 136 157 137
f 136 156 157
f 137 158 138
f 137 157 158
f 138 159 139
f 138 158 159
f 139 160 140
f 139 159 160
f 140 142 122
f 140 160 142
f 142 161 141
f 142 162 161
f 141 163 143
f 141 161 163
f 143 164 144
f 143 163 164
f 144 165 145
f 144 164 165
f 145 166 146
f 145 165 166
f 146 167 147
f 146 166 167
f 147 168 148
f 147 167 168
f 148 169 149
f 148 168 169
f 149 170 150
f 149 169 170
f 150 171 151
f 150 170 171
f 151 172 152
f 151 171 172
f 152 173 153
f 152 172 173
f 153 174 154
f 153 173 174
f 154 175 155
f 154 174 175
f 155 176 156
f 155 175 176
f 156 177 157
f 156 176 177
f 157 178 158
f 157 177 178
f 158 179 159
f 158 178 179
f 159 180 160
f 159 179 180
f 160 162 142
f 160 180 162
f 162 181 161
f 162 182 181
f 161 183 163
f 161 181 183
f 163 184 164
f 163 183 184
f 164 185 165
f 164 184 185
f 165 186 166
f 165 185 186
f 166 187 167
f 166 186 187
f 167 188 168
f 167 187 188
f 168 189 169
f 168 188 189
f 169 190 170
f 169 189 190
f 170 191 171
f 170 190 191
f 171 192 172
f 171 191 192
f 172 193 173
f 172 192 193
f 173 194 174
f 173 193 194
f 174 195 175
f 174 194 195
f 175 196 176
f 175 195 196
f 176 197 177
f 176 196 197
f 177 198 178
f 177 197 198
f 178 199 179
f 178 198 199
f 179 200 180
f 179 199 200
f 180 182 162
f 180 200 182
f 182 201 181
f 182 202 201
f 181 203 183
f 181 201 203
f 183 204 184
f 183 203 204
f 184 205 185
f 184 204 205
f 185 206 186
f 185 205 206
f 186 207 187
f 186 206 207
f 187 208 188
f 187 207 208
f 188 209 189
f 188 208 209
f 189 210 190
f 189 209 210
f 190 211 191
f 190 210 211
f 191 212 192
f 191 211 212
f 192 213 193
f 192 212 213
f 193 214 194
f 193 213 214
f 194 215 195
f 194 214 215
f 195 216 196
f 195 215 216
f 196 217 197
f 196 216 217
f 197 218 198
f 197 217 218
f 198 219 199
f 198 218 219
f 199 220 200
f 199 219 220
f 200 202 182
f 200 220 202
