# LibreViesHeroine — groupe importé indépendant, CC0
# Généré par compilation/outils/generer_heroine_librevies.py
mtllib LibreViesHeroineParts.mtl
v 0.337862 1.080000 0.020154
v 0.339798 1.300000 0.062753
v 0.320920 1.080000 0.059450
v 0.357736 1.300000 0.021273
v 0.304821 1.300000 0.101086
v 0.287886 1.080000 0.095766
v 0.254558 1.300000 0.134350
v 0.240416 1.080000 0.127279
v 0.191532 1.300000 0.160878
v 0.180891 1.080000 0.152410
v 0.118900 1.300000 0.179338
v 0.112295 1.080000 0.169899
v 0.040307 1.300000 0.188805
v 0.038068 1.080000 0.178868
v -0.040307 1.300000 0.188805
v -0.038068 1.080000 0.178868
v -0.118900 1.300000 0.179338
v -0.112295 1.080000 0.169899
v -0.191532 1.300000 0.160878
v -0.180891 1.080000 0.152410
v -0.254558 1.300000 0.134350
v -0.240416 1.080000 0.127279
v -0.304821 1.300000 0.101086
v -0.287886 1.080000 0.095766
v -0.339798 1.300000 0.062753
v -0.320920 1.080000 0.059450
v -0.357736 1.300000 0.021273
v -0.337862 1.080000 0.020154
v -0.357736 1.300000 -0.021273
v -0.337862 1.080000 -0.020154
v -0.339798 1.300000 -0.062753
v -0.320920 1.080000 -0.059450
v -0.304821 1.300000 -0.101086
v -0.287886 1.080000 -0.095766
v -0.254558 1.300000 -0.134350
v -0.240416 1.080000 -0.127279
v -0.191532 1.300000 -0.160878
v -0.180891 1.080000 -0.152410
v -0.118900 1.300000 -0.179338
v -0.112295 1.080000 -0.169899
v -0.040307 1.300000 -0.188805
v -0.038068 1.080000 -0.178868
v 0.040307 1.300000 -0.188805
v 0.038068 1.080000 -0.178868
v 0.118900 1.300000 -0.179338
v 0.112295 1.080000 -0.169899
v 0.191532 1.300000 -0.160878
v 0.180891 1.080000 -0.152410
v 0.254558 1.300000 -0.134350
v 0.240416 1.080000 -0.127279
v 0.304821 1.300000 -0.101086
v 0.287886 1.080000 -0.095766
v 0.339798 1.300000 -0.062753
v 0.320920 1.080000 -0.059450
v 0.357736 1.300000 -0.021273
v 0.337862 1.080000 -0.020154
v 0.405870 1.580000 0.069359
v 0.427296 1.580000 0.023513
v 0.364091 1.580000 0.111727
v 0.304056 1.580000 0.148492
v 0.228774 1.580000 0.177812
v 0.142020 1.580000 0.198215
v 0.048145 1.580000 0.208680
v -0.048145 1.580000 0.208680
v -0.142020 1.580000 0.198215
v -0.228774 1.580000 0.177812
v -0.304056 1.580000 0.148492
v -0.364091 1.580000 0.111727
v -0.405870 1.580000 0.069359
v -0.427296 1.580000 0.023513
v -0.427296 1.580000 -0.023513
v -0.405870 1.580000 -0.069359
v -0.364091 1.580000 -0.111727
v -0.304056 1.580000 -0.148492
v -0.228774 1.580000 -0.177812
v -0.142020 1.580000 -0.198215
v -0.048145 1.580000 -0.208680
v 0.048145 1.580000 -0.208680
v 0.142020 1.580000 -0.198215
v 0.228774 1.580000 -0.177812
v 0.304056 1.580000 -0.148492
v 0.364091 1.580000 -0.111727
v 0.405870 1.580000 -0.069359
v 0.427296 1.580000 -0.023513
v 0.320920 1.700000 0.059450
v 0.337862 1.700000 0.020154
v 0.287886 1.700000 0.095766
v 0.240416 1.700000 0.127279
v 0.180891 1.700000 0.152410
v 0.112295 1.700000 0.169899
v 0.038068 1.700000 0.178868
v -0.038068 1.700000 0.178868
v -0.112295 1.700000 0.169899
v -0.180891 1.700000 0.152410
v -0.240416 1.700000 0.127279
v -0.287886 1.700000 0.095766
v -0.320920 1.700000 0.059450
v -0.337862 1.700000 0.020154
v -0.337862 1.700000 -0.020154
v -0.320920 1.700000 -0.059450
v -0.287886 1.700000 -0.095766
v -0.240416 1.700000 -0.127279
v -0.180891 1.700000 -0.152410
v -0.112295 1.700000 -0.169899
v -0.038068 1.700000 -0.178868
v 0.038068 1.700000 -0.178868
v 0.112295 1.700000 -0.169899
v 0.180891 1.700000 -0.152410
v 0.240416 1.700000 -0.127279
v 0.287886 1.700000 -0.095766
v 0.320920 1.700000 -0.059450
v 0.337862 1.700000 -0.020154
v 0.000000 1.080000 0.000000
v 0.000000 1.700000 0.000000
o Jacket
usemtl Jacket
f 1 2 3
f 1 4 2
f 3 5 6
f 3 2 5
f 6 7 8
f 6 5 7
f 8 9 10
f 8 7 9
f 10 11 12
f 10 9 11
f 12 13 14
f 12 11 13
f 14 15 16
f 14 13 15
f 16 17 18
f 16 15 17
f 18 19 20
f 18 17 19
f 20 21 22
f 20 19 21
f 22 23 24
f 22 21 23
f 24 25 26
f 24 23 25
f 26 27 28
f 26 25 27
f 28 29 30
f 28 27 29
f 30 31 32
f 30 29 31
f 32 33 34
f 32 31 33
f 34 35 36
f 34 33 35
f 36 37 38
f 36 35 37
f 38 39 40
f 38 37 39
f 40 41 42
f 40 39 41
f 42 43 44
f 42 41 43
f 44 45 46
f 44 43 45
f 46 47 48
f 46 45 47
f 48 49 50
f 48 47 49
f 50 51 52
f 50 49 51
f 52 53 54
f 52 51 53
f 54 55 56
f 54 53 55
f 56 4 1
f 56 55 4
f 4 57 2
f 4 58 57
f 2 59 5
f 2 57 59
f 5 60 7
f 5 59 60
f 7 61 9
f 7 60 61
f 9 62 11
f 9 61 62
f 11 63 13
f 11 62 63
f 13 64 15
f 13 63 64
f 15 65 17
f 15 64 65
f 17 66 19
f 17 65 66
f 19 67 21
f 19 66 67
f 21 68 23
f 21 67 68
f 23 69 25
f 23 68 69
f 25 70 27
f 25 69 70
f 27 71 29
f 27 70 71
f 29 72 31
f 29 71 72
f 31 73 33
f 31 72 73
f 33 74 35
f 33 73 74
f 35 75 37
f 35 74 75
f 37 76 39
f 37 75 76
f 39 77 41
f 39 76 77
f 41 78 43
f 41 77 78
f 43 79 45
f 43 78 79
f 45 80 47
f 45 79 80
f 47 81 49
f 47 80 81
f 49 82 51
f 49 81 82
f 51 83 53
f 51 82 83
f 53 84 55
f 53 83 84
f 55 58 4
f 55 84 58
f 58 85 57
f 58 86 85
f 57 87 59
f 57 85 87
f 59 88 60
f 59 87 88
f 60 89 61
f 60 88 89
f 61 90 62
f 61 89 90
f 62 91 63
f 62 90 91
f 63 92 64
f 63 91 92
f 64 93 65
f 64 92 93
f 65 94 66
f 65 93 94
f 66 95 67
f 66 94 95
f 67 96 68
f 67 95 96
f 68 97 69
f 68 96 97
f 69 98 70
f 69 97 98
f 70 99 71
f 70 98 99
f 71 100 72
f 71 99 100
f 72 101 73
f 72 100 101
f 73 102 74
f 73 101 102
f 74 103 75
f 74 102 103
f 75 104 76
f 75 103 104
f 76 105 77
f 76 104 105
f 77 106 78
f 77 105 106
f 78 107 79
f 78 106 107
f 79 108 80
f 79 107 108
f 80 109 81
f 80 108 109
f 81 110 82
f 81 109 110
f 82 111 83
f 82 110 111
f 83 112 84
f 83 111 112
f 84 86 58
f 84 112 86
f 113 1 3
f 114 85 86
f 113 3 6
f 114 87 85
f 113 6 8
f 114 88 87
f 113 8 10
f 114 89 88
f 113 10 12
f 114 90 89
f 113 12 14
f 114 91 90
f 113 14 16
f 114 92 91
f 113 16 18
f 114 93 92
f 113 18 20
f 114 94 93
f 113 20 22
f 114 95 94
f 113 22 24
f 114 96 95
f 113 24 26
f 114 97 96
f 113 26 28
f 114 98 97
f 113 28 30
f 114 99 98
f 113 30 32
f 114 100 99
f 113 32 34
f 114 101 100
f 113 34 36
f 114 102 101
f 113 36 38
f 114 103 102
f 113 38 40
f 114 104 103
f 113 40 42
f 114 105 104
f 113 42 44
f 114 106 105
f 113 44 46
f 114 107 106
f 113 46 48
f 114 108 107
f 113 48 50
f 114 109 108
f 113 50 52
f 114 110 109
f 113 52 54
f 114 111 110
f 113 54 56
f 114 112 111
f 113 56 1
f 114 86 112
