# LibreViesHeroine — groupe importé indépendant, CC0
# Généré par compilation/outils/generer_heroine_librevies.py
mtllib LibreViesHeroineParts.mtl
v 0.107500 1.380000 0.199000
v 0.182500 1.380000 0.211000
v 0.107500 1.380000 0.211000
v 0.182500 1.380000 0.199000
v 0.107500 1.680000 0.199000
v 0.182500 1.680000 0.211000
v 0.182500 1.680000 0.199000
v 0.107500 1.680000 0.211000
o JacketLapel_R
usemtl JacketLight
f 1 2 3
f 1 4 2
f 5 6 7
f 5 8 6
f 1 7 4
f 1 5 7
f 3 6 8
f 3 2 6
f 4 6 2
f 4 7 6
f 1 8 5
f 1 3 8
