# LibreViesHeroine — groupe importé indépendant, CC0
# Généré par compilation/outils/generer_heroine_librevies.py
mtllib LibreViesHeroineParts.mtl
v -0.035000 0.560000 0.000000
v -0.036076 0.920000 0.042260
v -0.040874 0.560000 0.040851
v -0.030000 0.920000 0.000000
v -0.053812 0.920000 0.081096
v -0.058018 0.560000 0.078393
v -0.081771 0.920000 0.113362
v -0.085045 0.560000 0.109584
v -0.117688 0.920000 0.136445
v -0.119765 0.560000 0.131897
v -0.158653 0.920000 0.148473
v -0.159364 0.560000 0.143524
v -0.201347 0.920000 0.148473
v -0.200636 0.560000 0.143524
v -0.242312 0.920000 0.136445
v -0.240235 0.560000 0.131897
v -0.278229 0.920000 0.113362
v -0.274955 0.560000 0.109584
v -0.306188 0.920000 0.081096
v -0.301982 0.560000 0.078393
v -0.323924 0.920000 0.042260
v -0.319126 0.560000 0.040851
v -0.330000 0.920000 0.000000
v -0.325000 0.560000 0.000000
v -0.323924 0.920000 -0.042260
v -0.319126 0.560000 -0.040851
v -0.306188 0.920000 -0.081096
v -0.301982 0.560000 -0.078393
v -0.278229 0.920000 -0.113362
v -0.274955 0.560000 -0.109584
v -0.242312 0.920000 -0.136445
v -0.240235 0.560000 -0.131897
v -0.201347 0.920000 -0.148473
v -0.200636 0.560000 -0.143524
v -0.158653 0.920000 -0.148473
v -0.159364 0.560000 -0.143524
v -0.117688 0.920000 -0.136445
v -0.119765 0.560000 -0.131897
v -0.081771 0.920000 -0.113362
v -0.085045 0.560000 -0.109584
v -0.053812 0.920000 -0.081096
v -0.058018 0.560000 -0.078393
v -0.036076 0.920000 -0.042260
v -0.040874 0.560000 -0.040851
v 0.002304 1.120000 0.047895
v 0.010000 1.120000 0.000000
v -0.020162 1.120000 0.091909
v -0.055576 1.120000 0.128477
v -0.101071 1.120000 0.154637
v -0.152960 1.120000 0.168270
v -0.207040 1.120000 0.168270
v -0.258929 1.120000 0.154637
v -0.304424 1.120000 0.128477
v -0.339838 1.120000 0.091909
v -0.362304 1.120000 0.047895
v -0.370000 1.120000 0.000000
v -0.362304 1.120000 -0.047895
v -0.339838 1.120000 -0.091909
v -0.304424 1.120000 -0.128477
v -0.258929 1.120000 -0.154637
v -0.207040 1.120000 -0.168270
v -0.152960 1.120000 -0.168270
v -0.101071 1.120000 -0.154637
v -0.055576 1.120000 -0.128477
v -0.020162 1.120000 -0.091909
v 0.002304 1.120000 -0.047895
o JeansUpper_L
usemtl Jeans
f 1 2 3
f 1 4 2
f 3 5 6
f 3 2 5
f 6 7 8
f 6 5 7
f 8 9 10
f 8 7 9
f 10 11 12
f 10 9 11
f 12 13 14
f 12 11 13
f 14 15 16
f 14 13 15
f 16 17 18
f 16 15 17
f 18 19 20
f 18 17 19
f 20 21 22
f 20 19 21
f 22 23 24
f 22 21 23
f 24 25 26
f 24 23 25
f 26 27 28
f 26 25 27
f 28 29 30
f 28 27 29
f 30 31 32
f 30 29 31
f 32 33 34
f 32 31 33
f 34 35 36
f 34 33 35
f 36 37 38
f 36 35 37
f 38 39 40
f 38 37 39
f 40 41 42
f 40 39 41
f 42 43 44
f 42 41 43
f 44 4 1
f 44 43 4
f 4 45 2
f 4 46 45
f 2 47 5
f 2 45 47
f 5 48 7
f 5 47 48
f 7 49 9
f 7 48 49
f 9 50 11
f 9 49 50
f 11 51 13
f 11 50 51
f 13 52 15
f 13 51 52
f 15 53 17
f 15 52 53
f 17 54 19
f 17 53 54
f 19 55 21
f 19 54 55
f 21 56 23
f 21 55 56
f 23 57 25
f 23 56 57
f 25 58 27
f 25 57 58
f 27 59 29
f 27 58 59
f 29 60 31
f 29 59 60
f 31 61 33
f 31 60 61
f 33 62 35
f 33 61 62
f 35 63 37
f 35 62 63
f 37 64 39
f 37 63 64
f 39 65 41
f 39 64 65
f 41 66 43
f 41 65 66
f 43 46 4
f 43 66 46
