# LibreViesHeroine — groupe importé indépendant, CC0
# Généré par compilation/outils/generer_heroine_librevies.py
mtllib LibreViesHeroineParts.mtl
v 0.155000 0.820000 0.132000
v 0.315000 0.820000 0.158000
v 0.155000 0.820000 0.158000
v 0.315000 0.820000 0.132000
v 0.155000 0.940000 0.132000
v 0.315000 0.940000 0.158000
v 0.315000 0.940000 0.132000
v 0.155000 0.940000 0.158000
o JeansPocket_R
usemtl JeansLight
f 1 2 3
f 1 4 2
f 5 6 7
f 5 8 6
f 1 7 4
f 1 5 7
f 3 6 8
f 3 2 6
f 4 6 2
f 4 7 6
f 1 8 5
f 1 3 8
