# LibreViesHeroine — groupe importé indépendant, CC0
# Généré par compilation/outils/generer_heroine_librevies.py
mtllib LibreViesHeroineParts.mtl
v -0.300000 0.845000 0.145000
v -0.170000 0.845000 0.153000
v -0.300000 0.845000 0.153000
v -0.170000 0.845000 0.145000
v -0.300000 0.915000 0.145000
v -0.170000 0.915000 0.153000
v -0.170000 0.915000 0.145000
v -0.300000 0.915000 0.153000
o JeansPocket_L
usemtl JeansLight
f 1 2 3
f 1 4 2
f 5 6 7
f 5 8 6
f 1 7 4
f 1 5 7
f 3 6 8
f 3 2 6
f 4 6 2
f 4 7 6
f 1 8 5
f 1 3 8
