# LibreViesHeroine — groupe importé indépendant, CC0
# Généré par compilation/outils/generer_heroine_librevies.py
mtllib LibreViesHeroineParts.mtl
v 0.315000 0.660000 0.000000
v 0.318582 0.920000 0.057403
v 0.304724 0.660000 0.051662
v 0.330000 0.920000 0.000000
v 0.286066 0.920000 0.106066
v 0.275459 0.660000 0.095459
v 0.237403 0.920000 0.138582
v 0.231662 0.660000 0.124724
v 0.180000 0.920000 0.150000
v 0.180000 0.660000 0.135000
v 0.122597 0.920000 0.138582
v 0.128338 0.660000 0.124724
v 0.073934 0.920000 0.106066
v 0.084541 0.660000 0.095459
v 0.041418 0.920000 0.057403
v 0.055276 0.660000 0.051662
v 0.030000 0.920000 0.000000
v 0.045000 0.660000 0.000000
v 0.041418 0.920000 -0.057403
v 0.055276 0.660000 -0.051662
v 0.073934 0.920000 -0.106066
v 0.084541 0.660000 -0.095459
v 0.122597 0.920000 -0.138582
v 0.128338 0.660000 -0.124724
v 0.180000 0.920000 -0.150000
v 0.180000 0.660000 -0.135000
v 0.237403 0.920000 -0.138582
v 0.231662 0.660000 -0.124724
v 0.286066 0.920000 -0.106066
v 0.275459 0.660000 -0.095459
v 0.318582 0.920000 -0.057403
v 0.304724 0.660000 -0.051662
v 0.355537 1.120000 0.065056
v 0.370000 1.120000 0.000000
v 0.314350 1.120000 0.120208
v 0.252710 1.120000 0.157060
v 0.180000 1.120000 0.170000
v 0.107290 1.120000 0.157060
v 0.045650 1.120000 0.120208
v 0.004463 1.120000 0.065056
v -0.010000 1.120000 0.000000
v 0.004463 1.120000 -0.065056
v 0.045650 1.120000 -0.120208
v 0.107290 1.120000 -0.157060
v 0.180000 1.120000 -0.170000
v 0.252710 1.120000 -0.157060
v 0.314350 1.120000 -0.120208
v 0.355537 1.120000 -0.065056
o JeansUpper_R
usemtl Jeans
f 1 2 3
f 1 4 2
f 3 5 6
f 3 2 5
f 6 7 8
f 6 5 7
f 8 9 10
f 8 7 9
f 10 11 12
f 10 9 11
f 12 13 14
f 12 11 13
f 14 15 16
f 14 13 15
f 16 17 18
f 16 15 17
f 18 19 20
f 18 17 19
f 20 21 22
f 20 19 21
f 22 23 24
f 22 21 23
f 24 25 26
f 24 23 25
f 26 27 28
f 26 25 27
f 28 29 30
f 28 27 29
f 30 31 32
f 30 29 31
f 32 4 1
f 32 31 4
f 4 33 2
f 4 34 33
f 2 35 5
f 2 33 35
f 5 36 7
f 5 35 36
f 7 37 9
f 7 36 37
f 9 38 11
f 9 37 38
f 11 39 13
f 11 38 39
f 13 40 15
f 13 39 40
f 15 41 17
f 15 40 41
f 17 42 19
f 17 41 42
f 19 43 21
f 19 42 43
f 21 44 23
f 21 43 44
f 23 45 25
f 23 44 45
f 25 46 27
f 25 45 46
f 27 47 29
f 27 46 47
f 29 48 31
f 29 47 48
f 31 34 4
f 31 48 34
