# LibreViesHeroine — groupe importé indépendant, CC0
# Généré par compilation/outils/generer_heroine_librevies.py
mtllib LibreViesHeroineParts.mtl
v 0.310000 0.280000 0.000000
v 0.310400 0.500000 0.034941
v 0.305570 0.280000 0.033646
v 0.315000 0.500000 0.000000
v 0.296913 0.500000 0.067500
v 0.292583 0.280000 0.065000
v 0.275459 0.500000 0.095459
v 0.271924 0.280000 0.091924
v 0.247500 0.500000 0.116913
v 0.245000 0.280000 0.112583
v 0.214941 0.500000 0.130400
v 0.213646 0.280000 0.125570
v 0.180000 0.500000 0.135000
v 0.180000 0.280000 0.130000
v 0.145059 0.500000 0.130400
v 0.146354 0.280000 0.125570
v 0.112500 0.500000 0.116913
v 0.115000 0.280000 0.112583
v 0.084541 0.500000 0.095459
v 0.088076 0.280000 0.091924
v 0.063087 0.500000 0.067500
v 0.067417 0.280000 0.065000
v 0.049600 0.500000 0.034941
v 0.054430 0.280000 0.033646
v 0.045000 0.500000 0.000000
v 0.050000 0.280000 0.000000
v 0.049600 0.500000 -0.034941
v 0.054430 0.280000 -0.033646
v 0.063087 0.500000 -0.067500
v 0.067417 0.280000 -0.065000
v 0.084541 0.500000 -0.095459
v 0.088076 0.280000 -0.091924
v 0.112500 0.500000 -0.116913
v 0.115000 0.280000 -0.112583
v 0.145059 0.500000 -0.130400
v 0.146354 0.280000 -0.125570
v 0.180000 0.500000 -0.135000
v 0.180000 0.280000 -0.130000
v 0.214941 0.500000 -0.130400
v 0.213646 0.280000 -0.125570
v 0.247500 0.500000 -0.116913
v 0.245000 0.280000 -0.112583
v 0.275459 0.500000 -0.095459
v 0.271924 0.280000 -0.091924
v 0.296913 0.500000 -0.067500
v 0.292583 0.280000 -0.065000
v 0.310400 0.500000 -0.034941
v 0.305570 0.280000 -0.033646
v 0.320059 0.760000 0.037529
v 0.325000 0.760000 0.000000
v 0.305574 0.760000 0.072500
v 0.282530 0.760000 0.102530
v 0.252500 0.760000 0.125574
v 0.217529 0.760000 0.140059
v 0.180000 0.760000 0.145000
v 0.142471 0.760000 0.140059
v 0.107500 0.760000 0.125574
v 0.077470 0.760000 0.102530
v 0.054426 0.760000 0.072500
v 0.039941 0.760000 0.037529
v 0.035000 0.760000 0.000000
v 0.039941 0.760000 -0.037529
v 0.054426 0.760000 -0.072500
v 0.077470 0.760000 -0.102530
v 0.107500 0.760000 -0.125574
v 0.142471 0.760000 -0.140059
v 0.180000 0.760000 -0.145000
v 0.217529 0.760000 -0.140059
v 0.252500 0.760000 -0.125574
v 0.282530 0.760000 -0.102530
v 0.305574 0.760000 -0.072500
v 0.320059 0.760000 -0.037529
o JeansLower_R
usemtl Jeans
f 1 2 3
f 1 4 2
f 3 5 6
f 3 2 5
f 6 7 8
f 6 5 7
f 8 9 10
f 8 7 9
f 10 11 12
f 10 9 11
f 12 13 14
f 12 11 13
f 14 15 16
f 14 13 15
f 16 17 18
f 16 15 17
f 18 19 20
f 18 17 19
f 20 21 22
f 20 19 21
f 22 23 24
f 22 21 23
f 24 25 26
f 24 23 25
f 26 27 28
f 26 25 27
f 28 29 30
f 28 27 29
f 30 31 32
f 30 29 31
f 32 33 34
f 32 31 33
f 34 35 36
f 34 33 35
f 36 37 38
f 36 35 37
f 38 39 40
f 38 37 39
f 40 41 42
f 40 39 41
f 42 43 44
f 42 41 43
f 44 45 46
f 44 43 45
f 46 47 48
f 46 45 47
f 48 4 1
f 48 47 4
f 4 49 2
f 4 50 49
f 2 51 5
f 2 49 51
f 5 52 7
f 5 51 52
f 7 53 9
f 7 52 53
f 9 54 11
f 9 53 54
f 11 55 13
f 11 54 55
f 13 56 15
f 13 55 56
f 15 57 17
f 15 56 57
f 17 58 19
f 17 57 58
f 19 59 21
f 19 58 59
f 21 60 23
f 21 59 60
f 23 61 25
f 23 60 61
f 25 62 27
f 25 61 62
f 27 63 29
f 27 62 63
f 29 64 31
f 29 63 64
f 31 65 33
f 31 64 65
f 33 66 35
f 33 65 66
f 35 67 37
f 35 66 67
f 37 68 39
f 37 67 68
f 39 69 41
f 39 68 69
f 41 70 43
f 41 69 70
f 43 71 45
f 43 70 71
f 45 72 47
f 45 71 72
f 47 50 4
f 47 72 50
