# LibreViesHeroine — groupe importé indépendant, CC0
# Généré par compilation/outils/generer_heroine_librevies.py
mtllib LibreViesHeroineParts.mtl
v 0.350000 0.055000 0.075000
v 0.327821 0.130000 0.178325
v 0.337060 0.055000 0.189805
v 0.340000 0.130000 0.075000
v 0.293137 0.130000 0.265919
v 0.300208 0.055000 0.287132
v 0.241229 0.130000 0.324447
v 0.245056 0.055000 0.352164
v 0.180000 0.130000 0.345000
v 0.180000 0.055000 0.375000
v 0.118771 0.130000 0.324447
v 0.114944 0.055000 0.352164
v 0.066863 0.130000 0.265919
v 0.059792 0.055000 0.287132
v 0.032179 0.130000 0.178325
v 0.022940 0.055000 0.189805
v 0.020000 0.130000 0.075000
v 0.010000 0.055000 0.075000
v 0.032179 0.130000 -0.028325
v 0.022940 0.055000 -0.039805
v 0.066863 0.130000 -0.115919
v 0.059792 0.055000 -0.137132
v 0.118771 0.130000 -0.174447
v 0.114944 0.055000 -0.202164
v 0.180000 0.130000 -0.195000
v 0.180000 0.055000 -0.225000
v 0.241229 0.130000 -0.174447
v 0.245056 0.055000 -0.202164
v 0.293137 0.130000 -0.115919
v 0.300208 0.055000 -0.137132
v 0.327821 0.130000 -0.028325
v 0.337060 0.055000 -0.039805
v 0.180000 0.055000 0.075000
v 0.180000 0.130000 0.075000
o Shoe_R
usemtl Sole
f 1 2 3
f 1 4 2
f 3 5 6
f 3 2 5
f 6 7 8
f 6 5 7
f 8 9 10
f 8 7 9
f 10 11 12
f 10 9 11
f 12 13 14
f 12 11 13
f 14 15 16
f 14 13 15
f 16 17 18
f 16 15 17
f 18 19 20
f 18 17 19
f 20 21 22
f 20 19 21
f 22 23 24
f 22 21 23
f 24 25 26
f 24 23 25
f 26 27 28
f 26 25 27
f 28 29 30
f 28 27 29
f 30 31 32
f 30 29 31
f 32 4 1
f 32 31 4
f 33 1 3
f 34 2 4
f 33 3 6
f 34 5 2
f 33 6 8
f 34 7 5
f 33 8 10
f 34 9 7
f 33 10 12
f 34 11 9
f 33 12 14
f 34 13 11
f 33 14 16
f 34 15 13
f 33 16 18
f 34 17 15
f 33 18 20
f 34 19 17
f 33 20 22
f 34 21 19
f 33 22 24
f 34 23 21
f 33 24 26
f 34 25 23
f 33 26 28
f 34 27 25
f 33 28 30
f 34 29 27
f 33 30 32
f 34 31 29
f 33 32 1
f 34 4 31
