# LibreViesHeroine — groupe importé indépendant, CC0
# Généré par compilation/outils/generer_heroine_librevies.py
mtllib LibreViesHeroineParts.mtl
v -0.303259 1.480000 0.048928
v -0.453999 1.290000 0.098584
v -0.328362 1.480000 0.101054
v -0.432758 1.290000 0.054477
v -0.492273 1.290000 0.129107
v -0.373595 1.480000 0.137126
v -0.540000 1.290000 0.140000
v -0.430000 1.480000 0.150000
v -0.587727 1.290000 0.129107
v -0.486405 1.480000 0.137126
v -0.626001 1.290000 0.098584
v -0.531638 1.480000 0.101054
v -0.647242 1.290000 0.054477
v -0.556741 1.480000 0.048928
v -0.647242 1.290000 0.005523
v -0.556741 1.480000 -0.008928
v -0.626001 1.290000 -0.038584
v -0.531638 1.480000 -0.061054
v -0.587727 1.290000 -0.069107
v -0.486405 1.480000 -0.097126
v -0.540000 1.290000 -0.080000
v -0.430000 1.480000 -0.110000
v -0.492273 1.290000 -0.069107
v -0.373595 1.480000 -0.097126
v -0.453999 1.290000 -0.038584
v -0.328362 1.480000 -0.061054
v -0.432758 1.290000 0.005523
v -0.303259 1.480000 -0.008928
v -0.487908 1.200000 0.105466
v -0.467633 1.200000 0.063365
v -0.524442 1.200000 0.134602
v -0.570000 1.200000 0.145000
v -0.615558 1.200000 0.134602
v -0.652092 1.200000 0.105466
v -0.672367 1.200000 0.063365
v -0.672367 1.200000 0.016635
v -0.652092 1.200000 -0.025466
v -0.615558 1.200000 -0.054602
v -0.570000 1.200000 -0.065000
v -0.524442 1.200000 -0.054602
v -0.487908 1.200000 -0.025466
v -0.467633 1.200000 0.016635
o SleeveLower_L
usemtl JacketLight
f 1 2 3
f 1 4 2
f 3 5 6
f 3 2 5
f 6 7 8
f 6 5 7
f 8 9 10
f 8 7 9
f 10 11 12
f 10 9 11
f 12 13 14
f 12 11 13
f 14 15 16
f 14 13 15
f 16 17 18
f 16 15 17
f 18 19 20
f 18 17 19
f 20 21 22
f 20 19 21
f 22 23 24
f 22 21 23
f 24 25 26
f 24 23 25
f 26 27 28
f 26 25 27
f 28 4 1
f 28 27 4
f 4 29 2
f 4 30 29
f 2 31 5
f 2 29 31
f 5 32 7
f 5 31 32
f 7 33 9
f 7 32 33
f 9 34 11
f 9 33 34
f 11 35 13
f 11 34 35
f 13 36 15
f 13 35 36
f 15 37 17
f 15 36 37
f 17 38 19
f 17 37 38
f 19 39 21
f 19 38 39
f 21 40 23
f 21 39 40
f 23 41 25
f 23 40 41
f 25 42 27
f 25 41 42
f 27 30 4
f 27 42 30
