# LibreViesHeroine — groupe importé indépendant, CC0
# Généré par compilation/outils/generer_heroine_librevies.py
mtllib LibreViesHeroineParts.mtl
v -0.273259 1.580000 0.028928
v -0.298362 1.580000 0.081054
v -0.352271 1.460000 0.087936
v -0.328134 1.460000 0.037815
v -0.343595 1.580000 0.117126
v -0.395765 1.460000 0.122621
v -0.400000 1.580000 0.130000
v -0.450000 1.460000 0.135000
v -0.456405 1.580000 0.117126
v -0.504235 1.460000 0.122621
v -0.501638 1.580000 0.081054
v -0.547729 1.460000 0.087936
v -0.526741 1.580000 0.028928
v -0.571866 1.460000 0.037815
v -0.526741 1.580000 -0.028928
v -0.571866 1.460000 -0.017815
v -0.501638 1.580000 -0.081054
v -0.547729 1.460000 -0.067936
v -0.456405 1.580000 -0.117126
v -0.504235 1.460000 -0.102621
v -0.400000 1.580000 -0.130000
v -0.450000 1.460000 -0.115000
v -0.343595 1.580000 -0.117126
v -0.395765 1.460000 -0.102621
v -0.298362 1.580000 -0.081054
v -0.352271 1.460000 -0.067936
v -0.273259 1.580000 -0.028928
v -0.328134 1.460000 -0.017815
v -0.436180 1.300000 0.094819
v -0.413009 1.300000 0.046703
v -0.477934 1.300000 0.128116
v -0.530000 1.300000 0.140000
v -0.582066 1.300000 0.128116
v -0.623820 1.300000 0.094819
v -0.646991 1.300000 0.046703
v -0.646991 1.300000 -0.006703
v -0.623820 1.300000 -0.054819
v -0.582066 1.300000 -0.088116
v -0.530000 1.300000 -0.100000
v -0.477934 1.300000 -0.088116
v -0.436180 1.300000 -0.054819
v -0.413009 1.300000 -0.006703
o SleeveUpper_L
usemtl JacketLight
f 1 2 3
f 1 3 4
f 2 5 6
f 2 6 3
f 5 7 8
f 5 8 6
f 7 9 10
f 7 10 8
f 9 11 12
f 9 12 10
f 11 13 14
f 11 14 12
f 13 15 16
f 13 16 14
f 15 17 18
f 15 18 16
f 17 19 20
f 17 20 18
f 19 21 22
f 19 22 20
f 21 23 24
f 21 24 22
f 23 25 26
f 23 26 24
f 25 27 28
f 25 28 26
f 27 1 4
f 27 4 28
f 4 3 29
f 4 29 30
f 3 6 31
f 3 31 29
f 6 8 32
f 6 32 31
f 8 10 33
f 8 33 32
f 10 12 34
f 10 34 33
f 12 14 35
f 12 35 34
f 14 16 36
f 14 36 35
f 16 18 37
f 16 37 36
f 18 20 38
f 18 38 37
f 20 22 39
f 20 39 38
f 22 24 40
f 22 40 39
f 24 26 41
f 24 41 40
f 26 28 42
f 26 42 41
f 28 4 30
f 28 30 42
