# LibreViesHeroine — groupe importé indépendant, CC0
# Généré par compilation/outils/generer_heroine_librevies.py
mtllib LibreViesHeroineParts.mtl
v 0.556741 1.480000 0.048928
v 0.531638 1.480000 0.101054
v 0.626001 1.290000 0.098584
v 0.647242 1.290000 0.054477
v 0.486405 1.480000 0.137126
v 0.587727 1.290000 0.129107
v 0.430000 1.480000 0.150000
v 0.540000 1.290000 0.140000
v 0.373595 1.480000 0.137126
v 0.492273 1.290000 0.129107
v 0.328362 1.480000 0.101054
v 0.453999 1.290000 0.098584
v 0.303259 1.480000 0.048928
v 0.432758 1.290000 0.054477
v 0.303259 1.480000 -0.008928
v 0.432758 1.290000 0.005523
v 0.328362 1.480000 -0.061054
v 0.453999 1.290000 -0.038584
v 0.373595 1.480000 -0.097126
v 0.492273 1.290000 -0.069107
v 0.430000 1.480000 -0.110000
v 0.540000 1.290000 -0.080000
v 0.486405 1.480000 -0.097126
v 0.587727 1.290000 -0.069107
v 0.531638 1.480000 -0.061054
v 0.626001 1.290000 -0.038584
v 0.556741 1.480000 -0.008928
v 0.647242 1.290000 0.005523
v 0.656001 1.160000 0.108584
v 0.677242 1.160000 0.064477
v 0.617727 1.160000 0.139107
v 0.570000 1.160000 0.150000
v 0.522273 1.160000 0.139107
v 0.483999 1.160000 0.108584
v 0.462758 1.160000 0.064477
v 0.462758 1.160000 0.015523
v 0.483999 1.160000 -0.028584
v 0.522273 1.160000 -0.059107
v 0.570000 1.160000 -0.070000
v 0.617727 1.160000 -0.059107
v 0.656001 1.160000 -0.028584
v 0.677242 1.160000 0.015523
o SleeveLower_R
usemtl JacketLight
f 1 2 3
f 1 3 4
f 2 5 6
f 2 6 3
f 5 7 8
f 5 8 6
f 7 9 10
f 7 10 8
f 9 11 12
f 9 12 10
f 11 13 14
f 11 14 12
f 13 15 16
f 13 16 14
f 15 17 18
f 15 18 16
f 17 19 20
f 17 20 18
f 19 21 22
f 19 22 20
f 21 23 24
f 21 24 22
f 23 25 26
f 23 26 24
f 25 27 28
f 25 28 26
f 27 1 4
f 27 4 28
f 4 3 29
f 4 29 30
f 3 6 31
f 3 31 29
f 6 8 32
f 6 32 31
f 8 10 33
f 8 33 32
f 10 12 34
f 10 34 33
f 12 14 35
f 12 35 34
f 14 16 36
f 14 36 35
f 16 18 37
f 16 37 36
f 18 20 38
f 18 38 37
f 20 22 39
f 20 39 38
f 22 24 40
f 22 40 39
f 24 26 41
f 24 41 40
f 26 28 42
f 26 42 41
f 28 4 30
f 28 30 42
