# LibreViesHeroine — groupe importé indépendant, CC0
# Généré par compilation/outils/generer_heroine_librevies.py
mtllib LibreViesHeroineParts.mtl
v 0.526741 1.580000 0.028928
v 0.537729 1.490000 0.087936
v 0.501638 1.580000 0.081054
v 0.561866 1.490000 0.037815
v 0.494235 1.490000 0.122621
v 0.456405 1.580000 0.117126
v 0.440000 1.490000 0.135000
v 0.400000 1.580000 0.130000
v 0.385765 1.490000 0.122621
v 0.343595 1.580000 0.117126
v 0.342271 1.490000 0.087936
v 0.298362 1.580000 0.081054
v 0.318134 1.490000 0.037815
v 0.273259 1.580000 0.028928
v 0.318134 1.490000 -0.017815
v 0.273259 1.580000 -0.028928
v 0.342271 1.490000 -0.067936
v 0.298362 1.580000 -0.081054
v 0.385765 1.490000 -0.102621
v 0.343595 1.580000 -0.117126
v 0.440000 1.490000 -0.115000
v 0.400000 1.580000 -0.130000
v 0.494235 1.490000 -0.102621
v 0.456405 1.580000 -0.117126
v 0.537729 1.490000 -0.067936
v 0.501638 1.580000 -0.081054
v 0.561866 1.490000 -0.017815
v 0.526741 1.580000 -0.028928
v 0.573820 1.400000 0.094819
v 0.596991 1.400000 0.046703
v 0.532066 1.400000 0.128116
v 0.480000 1.400000 0.140000
v 0.427934 1.400000 0.128116
v 0.386180 1.400000 0.094819
v 0.363009 1.400000 0.046703
v 0.363009 1.400000 -0.006703
v 0.386180 1.400000 -0.054819
v 0.427934 1.400000 -0.088116
v 0.480000 1.400000 -0.100000
v 0.532066 1.400000 -0.088116
v 0.573820 1.400000 -0.054819
v 0.596991 1.400000 -0.006703
v 0.400000 1.580000 0.000000
v 0.480000 1.400000 0.020000
o SleeveUpper_R
usemtl JacketLight
f 1 2 3
f 1 4 2
f 3 5 6
f 3 2 5
f 6 7 8
f 6 5 7
f 8 9 10
f 8 7 9
f 10 11 12
f 10 9 11
f 12 13 14
f 12 11 13
f 14 15 16
f 14 13 15
f 16 17 18
f 16 15 17
f 18 19 20
f 18 17 19
f 20 21 22
f 20 19 21
f 22 23 24
f 22 21 23
f 24 25 26
f 24 23 25
f 26 27 28
f 26 25 27
f 28 4 1
f 28 27 4
f 4 29 2
f 4 30 29
f 2 31 5
f 2 29 31
f 5 32 7
f 5 31 32
f 7 33 9
f 7 32 33
f 9 34 11
f 9 33 34
f 11 35 13
f 11 34 35
f 13 36 15
f 13 35 36
f 15 37 17
f 15 36 37
f 17 38 19
f 17 37 38
f 19 39 21
f 19 38 39
f 21 40 23
f 21 39 40
f 23 41 25
f 23 40 41
f 25 42 27
f 25 41 42
f 27 30 4
f 27 42 30
f 43 1 3
f 44 29 30
f 43 3 6
f 44 31 29
f 43 6 8
f 44 32 31
f 43 8 10
f 44 33 32
f 43 10 12
f 44 34 33
f 43 12 14
f 44 35 34
f 43 14 16
f 44 36 35
f 43 16 18
f 44 37 36
f 43 18 20
f 44 38 37
f 43 20 22
f 44 39 38
f 43 22 24
f 44 40 39
f 43 24 26
f 44 41 40
f 43 26 28
f 44 42 41
f 43 28 1
f 44 30 42
