# https://github.com/mikedh/trimesh
mtllib material.mtl

o Plane.021
usemtl Leaves
v -0.10891717 0.00065974 -0.18417064
v -0.15184252 0.45559305 -0.22392910
v -0.14519520 0.45609478 -0.23020016
v -0.11104933 0.00091057 -0.17388611
v -0.10126648 0.00128683 -0.19131964
v -0.13603947 0.45709812 -0.23120353
v -0.09085655 0.00241558 -0.19257385
v -0.12813794 0.45810152 -0.22681379
v -0.08182624 0.00366981 -0.18755701
v -0.12434395 0.45897944 -0.21853599
v -0.07743650 0.00454779 -0.17802502
v -0.12609985 0.45910485 -0.20950568
v -0.07956865 0.00479863 -0.16774049
v -0.13290395 0.45872860 -0.20323464
v -0.08721933 0.00417148 -0.16059149
v -0.14193426 0.45772520 -0.20210585
v -0.09762928 0.00304273 -0.15933728
v -0.14983579 0.45659645 -0.20662101
v -0.10665959 0.00178849 -0.16435412
v -0.15359839 0.45584389 -0.21489879
v -0.17629961 0.68577198 -0.22016648
v -0.17291325 0.68664993 -0.21276663
v -0.16563881 0.68777871 -0.20875316
v -0.15748645 0.68853125 -0.20988195
v -0.15134082 0.68890750 -0.21552589
v -0.14958492 0.68853125 -0.22367826
v -0.15297131 0.68765330 -0.23107809
v -0.16024572 0.68652451 -0.23496615
v -0.16852350 0.68564656 -0.23396278
v -0.17466912 0.68539572 -0.22831884
v -0.19975332 0.95006540 -0.22392910
v -0.19699408 0.95157045 -0.21753262
v -0.19097388 0.95295008 -0.21414627
v -0.18382485 0.95370261 -0.21489879
v -0.17843176 0.95345176 -0.21953936
v -0.17680128 0.95244840 -0.22643752
v -0.17956055 0.95094334 -0.23270858
v -0.18558075 0.94968913 -0.23609493
v -0.19272975 0.94893661 -0.23534241
v -0.19812287 0.94906203 -0.23070184
v -0.21844107 1.20504631 -0.26243335
v -0.21630891 1.20680221 -0.25716566
v -0.21141749 1.20830726 -0.25428099
v -0.20552270 1.20905978 -0.25465724
v -0.20100756 1.20855810 -0.25816903
v -0.19950249 1.20717846 -0.26359351
v -0.20163464 1.20529716 -0.26873577
v -0.20652607 1.20379211 -0.27174587
v -0.21242086 1.20316499 -0.27136959
v -0.21693600 1.20366667 -0.26773240
v -0.24026433 1.41829338 -0.31250768
v -0.23863384 1.41979845 -0.30836879
v -0.23462037 1.42105265 -0.30598580
v -0.22997978 1.42155432 -0.30636205
v -0.22621718 1.42105265 -0.30937216
v -0.22496294 1.41967300 -0.31376191
v -0.22671884 1.41816796 -0.31790080
v -0.23060690 1.41691376 -0.32015837
v -0.23524749 1.41641206 -0.31978212
v -0.23901010 1.41703918 -0.31689743
v -0.27663641 1.65612300 -0.38575355
v -0.27550763 1.65712633 -0.38286886
v -0.27274836 1.65800425 -0.38123841
v -0.26948742 1.65838057 -0.38148924
v -0.26685357 1.65800425 -0.38349598
v -0.26597562 1.65712633 -0.38663150
v -0.26710440 1.65599752 -0.38951619
v -0.26986367 1.65511960 -0.39114667
v -0.27325006 1.65486876 -0.39089580
v -0.27575846 1.65524501 -0.38888907
v -0.27939568 1.70767099 -0.40720056
v -0.45112840 0.61854632 -0.39980070
v -0.38249173 0.67122312 -0.43479317
v -0.53854680 0.75302899 -0.47229407
v -0.56827160 0.72540500 -0.46890768
v -0.36731579 0.53238208 -0.35251698
v -0.27237211 0.56561864 -0.40105493
v -0.29582582 0.43439694 -0.31037552
v -0.19448565 0.44969826 -0.36819462
v -0.22182742 0.27134958 -0.26785781
v -0.13215141 0.26608193 -0.31338563
v -0.13553777 0.01696446 -0.21953936
v -0.09323954 0.00605280 -0.23032557
v -0.13428357 0.00429690 -0.17927922
v -0.22659343 0.26119048 -0.16222196
v -0.29983930 0.44593562 -0.19746526
v -0.36731579 0.53238208 -0.35251698
v -0.37195638 0.56223229 -0.24111177
v -0.45112840 0.61854632 -0.39980070
v -0.46003326 0.67009434 -0.30999927
v -0.56174972 0.75302899 -0.43567112
v 0.13841306 0.33368388 -0.10176904
v 0.10818660 0.35174450 -0.05461074
v 0.20262862 0.39614353 -0.07380016
v 0.21930962 0.38197096 -0.08784731
v 0.08197361 0.29279659 -0.11230440
v 0.04246599 0.29442707 -0.05323111
v 0.03431363 0.24250277 -0.12321603
v -0.00469231 0.23071319 -0.06000384
v -0.01171589 0.15179204 -0.13926991
v -0.04695919 0.13147384 -0.08822357
v -0.06175888 0.00617822 -0.16322533
v -0.08119912 -0.00548589 -0.14579181
v -0.07981950 0.00680537 -0.17501491
v -0.04131525 0.17750335 -0.19959743
v 0.00095163 0.28376631 -0.18529943
v 0.08197361 0.29279659 -0.11230440
v 0.04823535 0.34421923 -0.17125228
v 0.13841306 0.33368388 -0.10176904
v 0.11220007 0.39037416 -0.14666976
v 0.20388283 0.40755680 -0.10076567
v -0.21706145 0.66783677 0.12210747
v -0.28416166 0.68727701 0.07821012
v -0.26346721 0.82138344 0.19447539
v -0.24302357 0.80721087 0.21955959
v -0.20025502 0.56260854 0.05249880
v -0.28278204 0.55370364 -0.00306270
v -0.18244523 0.45358632 -0.00055428
v -0.26597562 0.42774958 -0.05272942
v -0.15033745 0.28840687 -0.04206864
v -0.21467843 0.24977721 -0.08684394
v -0.11205270 0.03979106 -0.07956952
v -0.13503610 0.01433058 -0.10402661
v -0.09537171 0.02386259 -0.10314867
v -0.07091461 0.28426798 -0.08408468
v -0.09687676 0.46851145 -0.04971932
v -0.20025502 0.56260854 0.05249880
v -0.11769664 0.59333670 0.00245582
v -0.21706145 0.66783677 0.12210747
v -0.15472718 0.71900854 0.08347780
v -0.22559006 0.83154254 0.19648212
v -0.38402812 1.11662450 -0.44896574
v -0.32592687 1.14735264 -0.49386646
v -0.44711492 1.24505561 -0.54268657
v -0.47270082 1.21721214 -0.52964282
v -0.32216423 1.03133821 -0.38863823
v -0.24615912 1.02481632 -0.43454233
v -0.27099246 0.92949635 -0.32530063
v -0.19335686 0.89676147 -0.37195726
v -0.22320707 0.74048689 -0.25152172
v -0.15623225 0.69404976 -0.29306743
v -0.17153360 0.40730597 -0.23007472
v -0.13904957 0.37971333 -0.24600320
v -0.15485263 0.40454673 -0.20800063
v -0.21969527 0.79818055 -0.17300818
v -0.26710440 1.02481632 -0.25841988
v -0.32216423 1.03133821 -0.38863823
v -0.31789992 1.15124070 -0.32642941
v -0.38402812 1.11662450 -0.44896574
v -0.38136295 1.24543188 -0.40908188
v -0.46354506 1.27393379 -0.51794730
v 0.01587673 -0.01790262 0.17892318
v 0.03055100 0.43841041 0.22307138
v 0.03895420 0.43891208 0.21943417
v 0.01048363 -0.01903137 0.18782808
v 0.02553415 -0.01727547 0.17478429
v 0.04798451 0.43866124 0.22144091
v 0.03581868 -0.01765178 0.17704186
v 0.05400472 0.43765784 0.22821363
v 0.04271683 -0.01865512 0.18481797
v 0.05488267 0.43652909 0.23724395
v 0.04372020 -0.02003477 0.19510249
v 0.05024209 0.43552569 0.24514547
v 0.03845251 -0.02116352 0.20413280
v 0.04183889 0.43502402 0.24878268
v 0.02879510 -0.02179067 0.20827171
v 0.03280857 0.43527486 0.24677594
v 0.01851058 -0.02141436 0.20601412
v 0.02678836 0.43615284 0.24000322
v 0.01161242 -0.02041102 0.19823802
v 0.02591041 0.43740701 0.23097290
v 0.03092725 0.66595545 0.25295292
v 0.03180521 0.66495208 0.26135615
v 0.03732373 0.66407413 0.26750178
v 0.04560152 0.66382330 0.26938310
v 0.05325219 0.66432500 0.26599671
v 0.05751651 0.66520292 0.25884772
v 0.05676398 0.66633173 0.25053858
v 0.05112004 0.66708423 0.24426752
v 0.04296767 0.66733510 0.24251164
v 0.03519157 0.66695882 0.24577258
v 0.03381194 0.93388609 0.29246056
v 0.03443904 0.93288272 0.29973497
v 0.03933047 0.93225561 0.30512806
v 0.04647946 0.93200477 0.30675855
v 0.05325219 0.93238103 0.30374844
v 0.05688941 0.93325898 0.29747740
v 0.05626230 0.93413693 0.29032841
v 0.05137088 0.93488945 0.28480987
v 0.04422188 0.93501488 0.28330483
v 0.03744915 0.93463861 0.28618949
v 0.03519157 1.19839900 0.35730320
v 0.03581868 1.19752105 0.36332341
v 0.03983215 1.19701936 0.36783858
v 0.04585236 1.19676853 0.36921820
v 0.05137088 1.19714478 0.36670980
v 0.05450640 1.19777190 0.36156754
v 0.05387930 1.19852442 0.35542188
v 0.04986583 1.19915152 0.35090674
v 0.04397104 1.19940237 0.34965254
v 0.03832710 1.19902610 0.35203553
v 0.03243231 1.42293397 0.40972921
v 0.03293399 1.42230685 0.41462060
v 0.03619494 1.42180518 0.41825782
v 0.04096093 1.42167973 0.41938661
v 0.04547609 1.42193060 0.41737987
v 0.04798451 1.42243227 0.41311556
v 0.04748283 1.42305938 0.40834956
v 0.04422188 1.42356105 0.40458692
v 0.03945588 1.42368647 0.40358355
v 0.03494073 1.42343564 0.40559029
v 0.02377826 1.68221057 0.44559959
v 0.02415452 1.68170884 0.44911140
v 0.02641210 1.68133258 0.45161980
v 0.02979847 1.68133258 0.45237234
v 0.03305942 1.68145800 0.45099272
v 0.03481531 1.68183425 0.44810803
v 0.03443904 1.68233598 0.44459623
v 0.03218146 1.68271223 0.44208782
v 0.02879510 1.68271223 0.44133529
v 0.02553415 1.68258682 0.44271491
v 0.02879510 1.74002960 0.44986393
v -0.34223159 0.63798656 0.25307834
v -0.29557499 0.69279555 0.18845518
v -0.43833548 0.78463509 0.24940980
v -0.46479930 0.75829667 0.26662383
v -0.25732159 0.54254118 0.24200995
v -0.19774659 0.57866243 0.15245935
v -0.18658412 0.43640367 0.22921700
v -0.12889047 0.45609478 0.12862936
v -0.12120843 0.26570568 0.20814627
v -0.06940955 0.26357353 0.12185663
v -0.05323025 0.00341898 0.17566224
v -0.02438341 -0.00761810 0.14305278
v -0.03278662 -0.01539415 0.20751917
v -0.07166712 0.23961811 0.29848077
v -0.13014468 0.43063430 0.32770386
v -0.25732159 0.54254118 0.24200995
v -0.19962791 0.55458159 0.33999511
v -0.34223159 0.63798656 0.25307834
v -0.29632752 0.67348073 0.33447660
v -0.43871173 0.77899114 0.29233514
v -0.08082287 0.91582546 -0.06313937
v 0.00358547 0.95320092 -0.02940111
v -0.09060570 1.13230212 -0.14002245
v -0.11945254 1.11461776 -0.16485580
v -0.05410818 0.76343894 0.00496424
v 0.05563520 0.76983540 0.04083465
v -0.03215952 0.60424833 0.05676312
v 0.08498371 0.59057743 0.08460658
v -0.01309552 0.36930340 0.09075222
v 0.08573624 0.33393471 0.11408052
v 0.00521595 0.02248294 0.11019247
v 0.04447272 -0.00724179 0.12687346
v -0.00017716 -0.00862144 0.14104604
v -0.08433466 0.32728736 0.16700818
v -0.10590707 0.58443180 0.14568662
v -0.05410818 0.76343894 0.00496424
v -0.12459480 0.76444231 0.09765037
v -0.08082287 0.91582546 -0.06313937
v -0.13666655 0.94780782 0.01549961
v -0.13190058 1.13092249 -0.12710408
v 0.25643424 0.51143677 -0.01535396
v 0.27449486 0.56110350 0.05262423
v 0.32679542 0.62243437 -0.06476984
v 0.32842589 0.59722475 -0.09298957
v 0.20614041 0.44142048 0.03845165
v 0.22997040 0.47553500 0.12599552
v 0.16362269 0.36027312 0.08285069
v 0.19322204 0.37933708 0.17353007
v 0.12223375 0.22256082 0.12285999
v 0.14443327 0.22306249 0.20074645
v 0.07645508 0.00617822 0.16324556
v 0.07871266 -0.00097075 0.19798718
v 0.05086920 -0.00335373 0.17353007
v 0.03907962 0.21274662 0.10705695
v 0.07407209 0.36930340 0.06892896
v 0.20614041 0.44142048 0.03845165
v 0.11796944 0.46600298 0.02691292
v 0.25643424 0.51143677 -0.01535396
v 0.18682557 0.55320197 -0.02413343
v 0.30108412 0.62017680 -0.08747104
v 0.25129197 0.25466860 0.40069890
v 0.20889967 0.26909201 0.43895230
v 0.30798227 0.30094895 0.45939591
v 0.32704627 0.28702722 0.44848428
v 0.19798805 0.22519465 0.36507931
v 0.14154859 0.22306249 0.40809872
v 0.15220937 0.18540488 0.32983601
v 0.09363776 0.16935099 0.37398421
v 0.10617986 0.10689134 0.28192518
v 0.05425556 0.08393926 0.31428379
v 0.05375388 -0.02329568 0.21404106
v 0.02866968 -0.03458359 0.22181717
v 0.04071009 -0.01790262 0.19773634
v 0.10078676 0.14652433 0.22206801
v 0.14543664 0.24112312 0.27038646
v 0.19798805 0.22519465 0.36507931
v 0.19071362 0.29041360 0.31052119
v 0.25129197 0.25466860 0.40069890
v 0.24677681 0.32139256 0.36269633
v 0.31927016 0.31625034 0.43707098
v -0.12484563 0.59484173 0.56465547
v -0.17090652 0.62970878 0.50467289
v -0.17742839 0.72916764 0.64705713
v -0.16802183 0.71035448 0.67464970
v -0.09675133 0.50403694 0.48686310
v -0.15660850 0.51720614 0.40759702
v -0.07254507 0.40391964 0.42064081
v -0.13603947 0.40028242 0.34112390
v -0.04382367 0.24513659 0.35767949
v -0.09286329 0.22481839 0.28844709
v -0.01823778 0.00329356 0.28330483
v -0.03404082 -0.01388914 0.24815558
v 0.00383632 -0.01087901 0.26311202
v 0.04434731 0.23585547 0.34237810
v 0.02553415 0.41357701 0.40446150
v -0.09675133 0.50403694 0.48686310
v 0.00070079 0.52912114 0.47068380
v -0.12484563 0.59484173 0.56465547
v -0.04708461 0.63836284 0.55361845
v -0.14093089 0.73180149 0.66160595
v -0.00883120 1.35821671 0.59638699
v -0.07116544 1.38468056 0.56064199
v -0.03943393 1.43773362 0.68430713
v -0.02062078 1.41804254 0.70449991
v 0.00032453 1.30717036 0.52063275
v -0.07869070 1.31293973 0.47281595
v 0.01010737 1.24342514 0.45588414
v -0.07467723 1.23176098 0.40834956
v 0.02540873 1.12703445 0.39129230
v -0.04382367 1.10358072 0.34752039
v 0.04873704 0.93877751 0.31867355
v 0.02440536 0.92498119 0.29384018
v 0.06290962 0.94003172 0.29446730
v 0.10304434 1.15976933 0.35040504
v 0.09050224 1.29663501 0.41073258
v 0.00032453 1.30717036 0.52063275
v 0.07695677 1.37376893 0.47570064
v -0.00883120 1.35821671 0.59638699
v 0.05011667 1.43183886 0.56227248
v -0.00381436 1.45152994 0.68493422
v -0.11380858 1.54437286 0.20538702
v -0.02626473 1.59228369 0.19159070
v -0.15297131 1.75194460 0.15672367
v -0.18959423 1.71808092 0.14744250
v -0.06301308 1.40374456 0.24175910
v 0.04560152 1.40675466 0.21115638
v -0.02438341 1.24242178 0.26386456
v 0.08586166 1.21119193 0.21830539
v 0.00082621 0.97301744 0.26173240
v 0.09288524 0.91695425 0.22068837
v 0.01474795 0.55232402 0.23348132
v 0.05450640 0.51695531 0.22319679
v 0.02440536 0.54128697 0.26474251
v -0.02237667 1.00775906 0.37812310
v -0.04269488 1.31632609 0.39693626
v -0.06301308 1.40374456 0.24175910
v -0.07618228 1.50546098 0.37900105
v -0.11380858 1.54437286 0.20538702
v -0.12058132 1.66828883 0.32281244
v -0.18081475 1.77430089 0.19497707
v 0.35200504 -0.01614671 -0.04031274
v 0.41549943 0.43740701 -0.06564779
v 0.42039085 0.43753243 -0.05787168
v 0.34234762 -0.01539415 -0.04420079
v 0.35764899 -0.01589588 -0.03128243
v 0.41976374 0.43841041 -0.04871595
v 0.35689646 -0.01501790 -0.02087249
v 0.41386895 0.43953916 -0.04181779
v 0.35012373 -0.01363831 -0.01297096
v 0.40496405 0.44066798 -0.03956022
v 0.33996462 -0.01238408 -0.01046254
v 0.39656085 0.44116965 -0.04307200
v 0.33030721 -0.01175699 -0.01447601
v 0.39166943 0.44104423 -0.05084811
v 0.32478868 -0.01188241 -0.02338091
v 0.39229655 0.44029173 -0.06000384
v 0.32554122 -0.01288574 -0.03379085
v 0.39819134 0.43903749 -0.06702742
v 0.33218853 -0.01426540 -0.04181779
v 0.40709623 0.43803416 -0.06915957
v 0.42478058 0.66783677 -0.08584057
v 0.41687905 0.66896555 -0.08383384
v 0.41161137 0.67009434 -0.07756279
v 0.41110971 0.67084687 -0.06915957
v 0.41549943 0.67084687 -0.06213600
v 0.42315012 0.67021976 -0.05887505
v 0.43105162 0.66896555 -0.06075637
v 0.43619391 0.66783677 -0.06715284
v 0.43682099 0.66708423 -0.07543062
v 0.43243127 0.66708423 -0.08257963
v 0.44246495 0.93213019 -0.10277240
v 0.43569221 0.93388609 -0.10126735
v 0.43117707 0.93526572 -0.09599967
v 0.43067537 0.93589282 -0.08885068
v 0.43418717 0.93539114 -0.08270504
v 0.44045821 0.93413693 -0.07982036
v 0.44723096 0.93238103 -0.08132542
v 0.45162068 0.93100140 -0.08659310
v 0.45224780 0.93037430 -0.09374209
v 0.44873599 0.93087598 -0.09988772
v 0.46955589 1.13568849 -0.10252156
v 0.46416277 1.13756981 -0.10139278
v 0.46040016 1.13920028 -0.09712846
v 0.45952221 1.13970197 -0.09135910
v 0.46215603 1.13907486 -0.08621683
v 0.46717287 1.13756981 -0.08370841
v 0.47256599 1.13556308 -0.08483720
v 0.47632863 1.13405802 -0.08910152
v 0.47708113 1.13343091 -0.09487088
v 0.47444731 1.13405802 -0.10001314
v 0.48335221 1.24593356 -0.09763015
v 0.47908787 1.24768945 -0.09675220
v 0.47607777 1.24894367 -0.09336583
v 0.47557610 1.24931992 -0.08859983
v 0.47770825 1.24869282 -0.08446094
v 0.48172172 1.24731318 -0.08245420
v 0.48611145 1.24555730 -0.08333215
v 0.48912155 1.24430308 -0.08671852
v 0.48962325 1.24380140 -0.09135910
v 0.48736568 1.24442851 -0.09549799
v 0.53966624 1.41440532 -0.10628419
v 0.53653072 1.41553411 -0.10565709
v 0.53452398 1.41641206 -0.10327409
v 0.53414770 1.41678834 -0.10001314
v 0.53565276 1.41628664 -0.09700304
v 0.53841200 1.41528327 -0.09562341
v 0.54142211 1.41402907 -0.09625051
v 0.54355429 1.41315112 -0.09863351
v 0.54393054 1.41290029 -0.10189446
v 0.54242548 1.41340195 -0.10490457
v 0.56299454 1.46507543 -0.10377577
v 0.65169856 0.59722475 -0.32216511
v 0.67452516 0.64764399 -0.24700656
v 0.74438468 0.72979475 -0.39127209
v 0.74588974 0.70270382 -0.42162396
v 0.58594659 0.51181305 -0.25076920
v 0.61642388 0.54203951 -0.14767313
v 0.52737495 0.41470583 -0.19056712
v 0.56500127 0.42649541 -0.07982036
v 0.46554242 0.25253645 -0.12948708
v 0.49263335 0.24438409 -0.03291290
v 0.39242196 -0.00084533 -0.05912589
v 0.39442870 -0.01276033 -0.01585565
v 0.35225589 -0.01200782 -0.06589863
v 0.36254040 0.24651624 -0.15469670
v 0.41788242 0.43063430 -0.21615300
v 0.58594659 0.51181305 -0.25076920
v 0.47871162 0.54605298 -0.27613559
v 0.65169856 0.59722475 -0.32216511
v 0.56713343 0.65228458 -0.34724931
v 0.71290399 0.73155066 -0.42099685
v 0.23523808 0.31675201 0.19309575
v 0.19547963 0.33707020 0.15484235
v 0.19773720 0.37946250 0.25207497
v 0.20777088 0.36453742 0.27088813
v 0.25505460 0.27611561 0.13891388
v 0.20488620 0.28050534 0.08887090
v 0.27311523 0.22607263 0.09326064
v 0.21830625 0.21713635 0.04271597
v 0.29456222 0.13548731 0.04948870
v 0.25053944 0.11742669 0.00471340
v 0.32253111 -0.01037734 0.00220498
v 0.30873479 -0.02116352 -0.02049622
v 0.33758163 -0.01000109 -0.01334722
v 0.36040825 0.15919189 0.03268229
v 0.34197136 0.26532937 0.07344412
v 0.25505460 0.27611561 0.13891388
v 0.32127689 0.32565693 0.11834484
v 0.23523808 0.31675201 0.19309575
v 0.28640986 0.37193728 0.17716730
v 0.22432646 0.38974701 0.25872230
v 0.09639702 0.66369788 -0.19194674
v 0.15296190 0.68226017 -0.24901330
v 0.03983215 0.82063092 -0.24851162
v 0.01085989 0.80721087 -0.23358651
v 0.15760248 0.55558496 -0.16422870
v 0.22771282 0.54567670 -0.23471531
v 0.20225236 0.44443062 -0.13864281
v 0.26860007 0.41771590 -0.21113616
v 0.23097377 0.27749526 -0.10252156
v 0.28578274 0.23786221 -0.15783222
v 0.25141740 0.02699814 -0.06276310
v 0.27888460 0.00103599 -0.08107457
v 0.27073222 0.01006627 -0.04219406
v 0.25668508 0.27072249 -0.01660817
v 0.23448556 0.45647103 -0.04507874
v 0.15760248 0.55558496 -0.16422870
v 0.19184241 0.58342843 -0.07292220
v 0.09639702 0.66369788 -0.19194674
v 0.12398965 0.71261208 -0.12246351
v 0.03092725 0.83041375 -0.21151242
v 0.69108072 1.11499402 -0.22292573
v 0.72055468 1.13782065 -0.15544924
v 0.78828204 1.23690325 -0.26067745
v 0.78451940 1.21796468 -0.29030816
v 0.62307120 1.02958232 -0.17752333
v 0.65357988 1.01979948 -0.09436920
v 0.54731690 0.90880188 -0.14202918
v 0.57628916 0.86502995 -0.05749542
v 0.45513245 0.67385698 -0.11293151
v 0.48009124 0.61340406 -0.04018732
v 0.40508950 0.25767874 -0.07279679
v 0.41286558 0.22215322 -0.03843143
v 0.37997393 0.25441777 -0.06063095
v 0.38047561 0.74813757 -0.12359229
v 0.48535894 1.02694848 -0.14892734
v 0.62307120 1.02958232 -0.17752333
v 0.55308627 1.14246122 -0.17927922
v 0.69108072 1.11499402 -0.22292573
v 0.63448450 1.21432747 -0.21928853
v 0.76332322 1.26001206 -0.27964740
v 0.25681050 0.97703091 -0.17877754
v 0.31199575 0.99258312 -0.23032557
v 0.21278773 1.11687534 -0.24399646
v 0.18331378 1.10270276 -0.23045099
v 0.30472132 0.87594158 -0.14052413
v 0.36693014 0.85725385 -0.20160417
v 0.33908668 0.74086316 -0.09411836
v 0.39593374 0.68865666 -0.15695429
v 0.34962205 0.49312531 -0.03880769
v 0.39355075 0.42586826 -0.09487088
v 0.31626005 0.07327849 -0.04068900
v 0.33707995 0.03414711 -0.06389189
v 0.33570031 0.06437357 -0.02262838
v 0.38285861 0.55583580 0.03945502
v 0.38047561 0.84772186 -0.02551306
v 0.30472132 0.87594158 -0.14052413
v 0.35263215 0.97552586 -0.06690200
v 0.25681050 0.97703091 -0.17877754
v 0.30171122 1.06470020 -0.12058219
v 0.20965220 1.13869860 -0.21201410
vt 0.29987031 0.93896389
vt 0.29474327 0.84664685
vt 0.29401085 0.84664685
vt 0.30157930 0.93871975
vt 0.29913786 0.93896389
vt 0.29474327 0.84664685
vt 0.29987031 0.93896389
vt 0.29620814 0.84640270
vt 0.30157930 0.93871975
vt 0.29791716 0.84640270
vt 0.30377662 0.93871975
vt 0.29938200 0.84640270
vt 0.30548561 0.93871975
vt 0.30011445 0.84640270
vt 0.30621806 0.93871975
vt 0.29938200 0.84640270
vt 0.30548561 0.93871975
vt 0.29791716 0.84640270
vt 0.30377662 0.93871975
vt 0.29620814 0.84640270
vt 0.29352254 0.80024415
vt 0.29523155 0.80024415
vt 0.29645228 0.80024415
vt 0.29694057 0.80024415
vt 0.29645228 0.80024415
vt 0.29523155 0.80024415
vt 0.29352254 0.80024415
vt 0.29205769 0.80024415
vt 0.29156938 0.80024415
vt 0.29205769 0.80024415
vt 0.29303426 0.74554056
vt 0.29449913 0.74554056
vt 0.29571983 0.74554056
vt 0.29596400 0.74554056
vt 0.29571983 0.74554056
vt 0.29449913 0.74554056
vt 0.29303426 0.74554056
vt 0.29181352 0.74554056
vt 0.29132524 0.74578470
vt 0.29181352 0.74554056
vt 0.29742885 0.69085222
vt 0.29889372 0.69085222
vt 0.29987031 0.69085222
vt 0.30011445 0.69085222
vt 0.29987031 0.69085222
vt 0.29864958 0.69085222
vt 0.29742885 0.69085222
vt 0.29645228 0.69085222
vt 0.29620814 0.69085222
vt 0.29645228 0.69085222
vt 0.30084687 0.64444953
vt 0.30182347 0.64444953
vt 0.30255589 0.64444953
vt 0.30304417 0.64444953
vt 0.30255589 0.64444953
vt 0.30182347 0.64444953
vt 0.30084687 0.64444953
vt 0.30011445 0.64444953
vt 0.29962614 0.64444953
vt 0.30011445 0.64444953
vt 0.29962614 0.59169912
vt 0.30035859 0.59169912
vt 0.30084687 0.59169912
vt 0.30109102 0.59169912
vt 0.30084687 0.59169912
vt 0.30035859 0.59169912
vt 0.29962614 0.59169912
vt 0.29913786 0.59169912
vt 0.29889372 0.59169912
vt 0.29913786 0.59169912
vt 0.29889372 0.57998013
vt 0.11842527 0.86080718
vt 0.17190814 0.86227208
vt 0.13479820 0.95898378
vt 0.11940185 0.95898378
vt 0.11793698 0.80000001
vt 0.18803693 0.79877925
vt 0.11744870 0.74822617
vt 0.19414054 0.74822617
vt 0.11696041 0.67521173
vt 0.18094148 0.67521173
vt 0.11598383 0.55262077
vt 0.13919280 0.55262077
vt 0.10426490 0.55262077
vt 0.04809644 0.67521173
vt 0.04467842 0.74822617
vt 0.11793698 0.80000001
vt 0.04711986 0.79902339
vt 0.11842527 0.86080718
vt 0.06201266 0.86227208
vt 0.10255589 0.95898378
vt 0.11842527 0.86080718
vt 0.17190814 0.86227208
vt 0.13479820 0.95898378
vt 0.11940185 0.95898378
vt 0.11793698 0.80000001
vt 0.18803693 0.79877925
vt 0.11744870 0.74822617
vt 0.19414054 0.74822617
vt 0.11696041 0.67521173
vt 0.18094148 0.67521173
vt 0.11598383 0.55262077
vt 0.13919280 0.55262077
vt 0.10426490 0.55262077
vt 0.04809644 0.67521173
vt 0.04467842 0.74822617
vt 0.11793698 0.80000001
vt 0.04711986 0.79902339
vt 0.11842527 0.86080718
vt 0.06201266 0.86227208
vt 0.10255589 0.95898378
vt 0.11842527 0.86080718
vt 0.17190814 0.86227208
vt 0.13479820 0.95898378
vt 0.11940185 0.95898378
vt 0.11793698 0.80000001
vt 0.18803693 0.79877925
vt 0.11744870 0.74822617
vt 0.19414054 0.74822617
vt 0.11696041 0.67521173
vt 0.18094148 0.67521173
vt 0.11598383 0.55262077
vt 0.13919280 0.55262077
vt 0.10426490 0.55262077
vt 0.04809644 0.67521173
vt 0.04467842 0.74822617
vt 0.11793698 0.80000001
vt 0.04711986 0.79902339
vt 0.11842527 0.86080718
vt 0.06201266 0.86227208
vt 0.10255589 0.95898378
vt 0.11842527 0.86080718
vt 0.17190814 0.86227208
vt 0.13479820 0.95898378
vt 0.11940185 0.95898378
vt 0.11793698 0.80000001
vt 0.18803693 0.79877925
vt 0.11744870 0.74822617
vt 0.19414054 0.74822617
vt 0.11696041 0.67521173
vt 0.18094148 0.67521173
vt 0.11598383 0.55262077
vt 0.13919280 0.55262077
vt 0.10426490 0.55262077
vt 0.04809644 0.67521173
vt 0.04467842 0.74822617
vt 0.11793698 0.80000001
vt 0.04711986 0.79902339
vt 0.11842527 0.86080718
vt 0.06201266 0.86227208
vt 0.10255589 0.95898378
vt 0.29987031 0.93896389
vt 0.29474327 0.84664685
vt 0.29401085 0.84664685
vt 0.30157930 0.93871975
vt 0.29913786 0.93896389
vt 0.29474327 0.84664685
vt 0.29987031 0.93896389
vt 0.29620814 0.84640270
vt 0.30157930 0.93871975
vt 0.29791716 0.84640270
vt 0.30377662 0.93871975
vt 0.29938200 0.84640270
vt 0.30548561 0.93871975
vt 0.30011445 0.84640270
vt 0.30621806 0.93871975
vt 0.29938200 0.84640270
vt 0.30548561 0.93871975
vt 0.29791716 0.84640270
vt 0.30377662 0.93871975
vt 0.29620814 0.84640270
vt 0.29352254 0.80024415
vt 0.29523155 0.80024415
vt 0.29645228 0.80024415
vt 0.29694057 0.80024415
vt 0.29645228 0.80024415
vt 0.29523155 0.80024415
vt 0.29352254 0.80024415
vt 0.29205769 0.80024415
vt 0.29156938 0.80024415
vt 0.29205769 0.80024415
vt 0.29303426 0.74554056
vt 0.29449913 0.74554056
vt 0.29571983 0.74554056
vt 0.29596400 0.74554056
vt 0.29571983 0.74554056
vt 0.29449913 0.74554056
vt 0.29303426 0.74554056
vt 0.29181352 0.74554056
vt 0.29132524 0.74578470
vt 0.29181352 0.74554056
vt 0.29742885 0.69085222
vt 0.29889372 0.69085222
vt 0.29987031 0.69085222
vt 0.30011445 0.69085222
vt 0.29987031 0.69085222
vt 0.29864958 0.69085222
vt 0.29742885 0.69085222
vt 0.29645228 0.69085222
vt 0.29620814 0.69085222
vt 0.29645228 0.69085222
vt 0.30084687 0.64444953
vt 0.30182347 0.64444953
vt 0.30255589 0.64444953
vt 0.30304417 0.64444953
vt 0.30255589 0.64444953
vt 0.30182347 0.64444953
vt 0.30084687 0.64444953
vt 0.30011445 0.64444953
vt 0.29962614 0.64444953
vt 0.30011445 0.64444953
vt 0.29962614 0.59169912
vt 0.30035859 0.59169912
vt 0.30084687 0.59169912
vt 0.30109102 0.59169912
vt 0.30084687 0.59169912
vt 0.30035859 0.59169912
vt 0.29962614 0.59169912
vt 0.29913786 0.59169912
vt 0.29889372 0.59169912
vt 0.29913786 0.59169912
vt 0.29889372 0.57998013
vt 0.11842527 0.86080718
vt 0.17190814 0.86227208
vt 0.13479820 0.95898378
vt 0.11940185 0.95898378
vt 0.11793698 0.80000001
vt 0.18803693 0.79877925
vt 0.11744870 0.74822617
vt 0.19414054 0.74822617
vt 0.11696041 0.67521173
vt 0.18094148 0.67521173
vt 0.11598383 0.55262077
vt 0.13919280 0.55262077
vt 0.10426490 0.55262077
vt 0.04809644 0.67521173
vt 0.04467842 0.74822617
vt 0.11793698 0.80000001
vt 0.04711986 0.79902339
vt 0.11842527 0.86080718
vt 0.06201266 0.86227208
vt 0.10255589 0.95898378
vt 0.11842527 0.86080718
vt 0.17190814 0.86227208
vt 0.13479820 0.95898378
vt 0.11940185 0.95898378
vt 0.11793698 0.80000001
vt 0.18803693 0.79877925
vt 0.11744870 0.74822617
vt 0.19414054 0.74822617
vt 0.11696041 0.67521173
vt 0.18094148 0.67521173
vt 0.11598383 0.55262077
vt 0.13919280 0.55262077
vt 0.10426490 0.55262077
vt 0.04809644 0.67521173
vt 0.04467842 0.74822617
vt 0.11793698 0.80000001
vt 0.04711986 0.79902339
vt 0.11842527 0.86080718
vt 0.06201266 0.86227208
vt 0.10255589 0.95898378
vt 0.11842527 0.86080718
vt 0.17190814 0.86227208
vt 0.13479820 0.95898378
vt 0.11940185 0.95898378
vt 0.11793698 0.80000001
vt 0.18803693 0.79877925
vt 0.11744870 0.74822617
vt 0.19414054 0.74822617
vt 0.11696041 0.67521173
vt 0.18094148 0.67521173
vt 0.11598383 0.55262077
vt 0.13919280 0.55262077
vt 0.10426490 0.55262077
vt 0.04809644 0.67521173
vt 0.04467842 0.74822617
vt 0.11793698 0.80000001
vt 0.04711986 0.79902339
vt 0.11842527 0.86080718
vt 0.06201266 0.86227208
vt 0.10255589 0.95898378
vt 0.11842527 0.86080718
vt 0.17190814 0.86227208
vt 0.13479820 0.95898378
vt 0.11940185 0.95898378
vt 0.11793698 0.80000001
vt 0.18803693 0.79877925
vt 0.11744870 0.74822617
vt 0.19414054 0.74822617
vt 0.11696041 0.67521173
vt 0.18094148 0.67521173
vt 0.11598383 0.55262077
vt 0.13919280 0.55262077
vt 0.10426490 0.55262077
vt 0.04809644 0.67521173
vt 0.04467842 0.74822617
vt 0.11793698 0.80000001
vt 0.04711986 0.79902339
vt 0.11842527 0.86080718
vt 0.06201266 0.86227208
vt 0.10255589 0.95898378
vt 0.11842527 0.86080718
vt 0.17190814 0.86227208
vt 0.13479820 0.95898378
vt 0.11940185 0.95898378
vt 0.11793698 0.80000001
vt 0.18803693 0.79877925
vt 0.11744870 0.74822617
vt 0.19414054 0.74822617
vt 0.11696041 0.67521173
vt 0.18094148 0.67521173
vt 0.11598383 0.55262077
vt 0.13919280 0.55262077
vt 0.10426490 0.55262077
vt 0.04809644 0.67521173
vt 0.04467842 0.74822617
vt 0.11793698 0.80000001
vt 0.04711986 0.79902339
vt 0.11842527 0.86080718
vt 0.06201266 0.86227208
vt 0.10255589 0.95898378
vt 0.11842527 0.86080718
vt 0.17190814 0.86227208
vt 0.13479820 0.95898378
vt 0.11940185 0.95898378
vt 0.11793698 0.80000001
vt 0.18803693 0.79877925
vt 0.11744870 0.74822617
vt 0.19414054 0.74822617
vt 0.11696041 0.67521173
vt 0.18094148 0.67521173
vt 0.11598383 0.55262077
vt 0.13919280 0.55262077
vt 0.10426490 0.55262077
vt 0.04809644 0.67521173
vt 0.04467842 0.74822617
vt 0.11793698 0.80000001
vt 0.04711986 0.79902339
vt 0.11842527 0.86080718
vt 0.06201266 0.86227208
vt 0.10255589 0.95898378
vt 0.11842527 0.86080718
vt 0.17190814 0.86227208
vt 0.13479820 0.95898378
vt 0.11940185 0.95898378
vt 0.11793698 0.80000001
vt 0.18803693 0.79877925
vt 0.11744870 0.74822617
vt 0.19414054 0.74822617
vt 0.11696041 0.67521173
vt 0.18094148 0.67521173
vt 0.11598383 0.55262077
vt 0.13919280 0.55262077
vt 0.10426490 0.55262077
vt 0.04809644 0.67521173
vt 0.04467842 0.74822617
vt 0.11793698 0.80000001
vt 0.04711986 0.79902339
vt 0.11842527 0.86080718
vt 0.06201266 0.86227208
vt 0.10255589 0.95898378
vt 0.29987031 0.93896389
vt 0.29474327 0.84664685
vt 0.29401085 0.84664685
vt 0.30157930 0.93871975
vt 0.29913786 0.93896389
vt 0.29474327 0.84664685
vt 0.29987031 0.93896389
vt 0.29620814 0.84640270
vt 0.30157930 0.93871975
vt 0.29791716 0.84640270
vt 0.30377662 0.93871975
vt 0.29938200 0.84640270
vt 0.30548561 0.93871975
vt 0.30011445 0.84640270
vt 0.30621806 0.93871975
vt 0.29938200 0.84640270
vt 0.30548561 0.93871975
vt 0.29791716 0.84640270
vt 0.30377662 0.93871975
vt 0.29620814 0.84640270
vt 0.29352254 0.80024415
vt 0.29523155 0.80024415
vt 0.29645228 0.80024415
vt 0.29694057 0.80024415
vt 0.29645228 0.80024415
vt 0.29523155 0.80024415
vt 0.29352254 0.80024415
vt 0.29205769 0.80024415
vt 0.29156938 0.80024415
vt 0.29205769 0.80024415
vt 0.29303426 0.74554056
vt 0.29449913 0.74554056
vt 0.29571983 0.74554056
vt 0.29596400 0.74554056
vt 0.29571983 0.74554056
vt 0.29449913 0.74554056
vt 0.29303426 0.74554056
vt 0.29181352 0.74554056
vt 0.29132524 0.74578470
vt 0.29181352 0.74554056
vt 0.29742885 0.69085222
vt 0.29889372 0.69085222
vt 0.29987031 0.69085222
vt 0.30011445 0.69085222
vt 0.29987031 0.69085222
vt 0.29864958 0.69085222
vt 0.29742885 0.69085222
vt 0.29645228 0.69085222
vt 0.29620814 0.69085222
vt 0.29645228 0.69085222
vt 0.30084687 0.64444953
vt 0.30182347 0.64444953
vt 0.30255589 0.64444953
vt 0.30304417 0.64444953
vt 0.30255589 0.64444953
vt 0.30182347 0.64444953
vt 0.30084687 0.64444953
vt 0.30011445 0.64444953
vt 0.29962614 0.64444953
vt 0.30011445 0.64444953
vt 0.29962614 0.59169912
vt 0.30035859 0.59169912
vt 0.30084687 0.59169912
vt 0.30109102 0.59169912
vt 0.30084687 0.59169912
vt 0.30035859 0.59169912
vt 0.29962614 0.59169912
vt 0.29913786 0.59169912
vt 0.29889372 0.59169912
vt 0.29913786 0.59169912
vt 0.29889372 0.57998013
vt 0.11842527 0.86080718
vt 0.17190814 0.86227208
vt 0.13479820 0.95898378
vt 0.11940185 0.95898378
vt 0.11793698 0.80000001
vt 0.18803693 0.79877925
vt 0.11744870 0.74822617
vt 0.19414054 0.74822617
vt 0.11696041 0.67521173
vt 0.18094148 0.67521173
vt 0.11598383 0.55262077
vt 0.13919280 0.55262077
vt 0.10426490 0.55262077
vt 0.04809644 0.67521173
vt 0.04467842 0.74822617
vt 0.11793698 0.80000001
vt 0.04711986 0.79902339
vt 0.11842527 0.86080718
vt 0.06201266 0.86227208
vt 0.10255589 0.95898378
vt 0.11842527 0.86080718
vt 0.17190814 0.86227208
vt 0.13479820 0.95898378
vt 0.11940185 0.95898378
vt 0.11793698 0.80000001
vt 0.18803693 0.79877925
vt 0.11744870 0.74822617
vt 0.19414054 0.74822617
vt 0.11696041 0.67521173
vt 0.18094148 0.67521173
vt 0.11598383 0.55262077
vt 0.13919280 0.55262077
vt 0.10426490 0.55262077
vt 0.04809644 0.67521173
vt 0.04467842 0.74822617
vt 0.11793698 0.80000001
vt 0.04711986 0.79902339
vt 0.11842527 0.86080718
vt 0.06201266 0.86227208
vt 0.10255589 0.95898378
vt 0.11842527 0.86080718
vt 0.17190814 0.86227208
vt 0.13479820 0.95898378
vt 0.11940185 0.95898378
vt 0.11793698 0.80000001
vt 0.18803693 0.79877925
vt 0.11744870 0.74822617
vt 0.19414054 0.74822617
vt 0.11696041 0.67521173
vt 0.18094148 0.67521173
vt 0.11598383 0.55262077
vt 0.13919280 0.55262077
vt 0.10426490 0.55262077
vt 0.04809644 0.67521173
vt 0.04467842 0.74822617
vt 0.11793698 0.80000001
vt 0.04711986 0.79902339
vt 0.11842527 0.86080718
vt 0.06201266 0.86227208
vt 0.10255589 0.95898378
vt 0.11842527 0.86080718
vt 0.17190814 0.86227208
vt 0.13479820 0.95898378
vt 0.11940185 0.95898378
vt 0.11793698 0.80000001
vt 0.18803693 0.79877925
vt 0.11744870 0.74822617
vt 0.19414054 0.74822617
vt 0.11696041 0.67521173
vt 0.18094148 0.67521173
vt 0.11598383 0.55262077
vt 0.13919280 0.55262077
vt 0.10426490 0.55262077
vt 0.04809644 0.67521173
vt 0.04467842 0.74822617
vt 0.11793698 0.80000001
vt 0.04711986 0.79902339
vt 0.11842527 0.86080718
vt 0.06201266 0.86227208
vt 0.10255589 0.95898378
vt 0.11842527 0.86080718
vt 0.17190814 0.86227208
vt 0.13479820 0.95898378
vt 0.11940185 0.95898378
vt 0.11793698 0.80000001
vt 0.18803693 0.79877925
vt 0.11744870 0.74822617
vt 0.19414054 0.74822617
vt 0.11696041 0.67521173
vt 0.18094148 0.67521173
vt 0.11598383 0.55262077
vt 0.13919280 0.55262077
vt 0.10426490 0.55262077
vt 0.04809644 0.67521173
vt 0.04467842 0.74822617
vt 0.11793698 0.80000001
vt 0.04711986 0.79902339
vt 0.11842527 0.86080718
vt 0.06201266 0.86227208
vt 0.10255589 0.95898378
f 1/1 2/2 3/3
f 2/2 1/1 4/4
f 1/1 3/3 5/5
f 5/5 3/3 6/6
f 5/5 6/6 7/7
f 7/7 6/6 8/8
f 7/7 8/8 9/9
f 9/9 8/8 10/10
f 9/9 10/10 11/11
f 11/11 10/10 12/12
f 11/11 12/12 13/13
f 13/13 12/12 14/14
f 13/13 14/14 15/15
f 15/15 14/14 16/16
f 15/15 16/16 17/17
f 17/17 16/16 18/18
f 17/17 18/18 19/19
f 19/19 18/18 20/20
f 19/19 20/20 4/4
f 4/4 20/20 2/2
f 2/2 20/20 21/21
f 21/21 20/20 22/22
f 22/22 20/20 18/18
f 22/22 18/18 23/23
f 23/23 18/18 16/16
f 23/23 16/16 24/24
f 24/24 16/16 14/14
f 24/24 14/14 25/25
f 25/25 14/14 12/12
f 25/25 12/12 26/26
f 26/26 12/12 10/10
f 26/26 10/10 27/27
f 27/27 10/10 8/8
f 27/27 8/8 28/28
f 28/28 8/8 6/6
f 28/28 6/6 29/29
f 29/29 6/6 3/3
f 29/29 3/3 30/30
f 30/30 3/3 2/2
f 30/30 2/2 21/21
f 30/30 21/21 31/31
f 31/31 21/21 32/32
f 32/32 21/21 22/22
f 32/32 22/22 33/33
f 33/33 22/22 23/23
f 33/33 23/23 34/34
f 34/34 23/23 24/24
f 34/34 24/24 35/35
f 35/35 24/24 25/25
f 35/35 25/25 36/36
f 36/36 25/25 26/26
f 36/36 26/26 37/37
f 37/37 26/26 27/27
f 37/37 27/27 38/38
f 38/38 27/27 28/28
f 38/38 28/28 39/39
f 39/39 28/28 29/29
f 39/39 29/29 40/40
f 40/40 29/29 30/30
f 40/40 30/30 31/31
f 40/40 31/31 41/41
f 41/41 31/31 42/42
f 42/42 31/31 32/32
f 42/42 32/32 43/43
f 43/43 32/32 33/33
f 43/43 33/33 44/44
f 44/44 33/33 34/34
f 44/44 34/34 45/45
f 45/45 34/34 35/35
f 45/45 35/35 46/46
f 46/46 35/35 36/36
f 46/46 36/36 47/47
f 47/47 36/36 37/37
f 47/47 37/37 48/48
f 48/48 37/37 38/38
f 48/48 38/38 49/49
f 49/49 38/38 39/39
f 49/49 39/39 50/50
f 50/50 39/39 40/40
f 50/50 40/40 41/41
f 50/50 41/41 51/51
f 51/51 41/41 52/52
f 52/52 41/41 42/42
f 52/52 42/42 53/53
f 53/53 42/42 43/43
f 53/53 43/43 54/54
f 54/54 43/43 44/44
f 54/54 44/44 55/55
f 55/55 44/44 45/45
f 55/55 45/45 56/56
f 56/56 45/45 46/46
f 56/56 46/46 57/57
f 57/57 46/46 47/47
f 57/57 47/47 58/58
f 58/58 47/47 48/48
f 58/58 48/48 59/59
f 59/59 48/48 49/49
f 59/59 49/49 60/60
f 60/60 49/49 50/50
f 60/60 50/50 51/51
f 60/60 51/51 61/61
f 61/61 51/51 62/62
f 62/62 51/51 52/52
f 62/62 52/52 63/63
f 63/63 52/52 53/53
f 63/63 53/53 64/64
f 64/64 53/53 54/54
f 64/64 54/54 65/65
f 65/65 54/54 55/55
f 65/65 55/55 66/66
f 66/66 55/55 56/56
f 66/66 56/56 67/67
f 67/67 56/56 57/57
f 67/67 57/57 68/68
f 68/68 57/57 58/58
f 68/68 58/58 69/69
f 69/69 58/58 59/59
f 69/69 59/59 70/70
f 70/70 59/59 60/60
f 70/70 60/60 61/61
f 70/70 61/61 71/71
f 70/70 71/71 69/69
f 69/69 71/71 68/68
f 68/68 71/71 67/67
f 67/67 71/71 66/66
f 66/66 71/71 65/65
f 65/65 71/71 64/64
f 64/64 71/71 63/63
f 63/63 71/71 62/62
f 62/62 71/71 61/61
f 72/72 73/73 74/74
f 72/72 74/74 75/75
f 73/73 72/72 76/76
f 73/73 76/76 77/77
f 77/77 76/76 78/78
f 77/77 78/78 79/79
f 79/79 78/78 80/80
f 79/79 80/80 81/81
f 81/81 80/80 82/82
f 81/81 82/82 83/83
f 82/82 80/80 84/84
f 84/84 80/80 85/85
f 85/85 80/80 86/86
f 86/86 80/80 78/78
f 86/86 78/78 87/87
f 86/86 87/87 88/88
f 88/88 87/87 89/89
f 88/88 89/89 90/90
f 90/90 89/89 75/75
f 90/90 75/75 91/91
f 92/92 93/93 94/94
f 92/92 94/94 95/95
f 93/93 92/92 96/96
f 93/93 96/96 97/97
f 97/97 96/96 98/98
f 97/97 98/98 99/99
f 99/99 98/98 100/100
f 99/99 100/100 101/101
f 101/101 100/100 102/102
f 101/101 102/102 103/103
f 102/102 100/100 104/104
f 104/104 100/100 105/105
f 105/105 100/100 106/106
f 106/106 100/100 98/98
f 106/106 98/98 107/107
f 106/106 107/107 108/108
f 108/108 107/107 109/109
f 108/108 109/109 110/110
f 110/110 109/109 95/95
f 110/110 95/95 111/111
f 112/112 113/113 114/114
f 112/112 114/114 115/115
f 113/113 112/112 116/116
f 113/113 116/116 117/117
f 117/117 116/116 118/118
f 117/117 118/118 119/119
f 119/119 118/118 120/120
f 119/119 120/120 121/121
f 121/121 120/120 122/122
f 121/121 122/122 123/123
f 122/122 120/120 124/124
f 124/124 120/120 125/125
f 125/125 120/120 126/126
f 126/126 120/120 118/118
f 126/126 118/118 127/127
f 126/126 127/127 128/128
f 128/128 127/127 129/129
f 128/128 129/129 130/130
f 130/130 129/129 115/115
f 130/130 115/115 131/131
f 132/132 133/133 134/134
f 132/132 134/134 135/135
f 133/133 132/132 136/136
f 133/133 136/136 137/137
f 137/137 136/136 138/138
f 137/137 138/138 139/139
f 139/139 138/138 140/140
f 139/139 140/140 141/141
f 141/141 140/140 142/142
f 141/141 142/142 143/143
f 142/142 140/140 144/144
f 144/144 140/140 145/145
f 145/145 140/140 146/146
f 146/146 140/140 138/138
f 146/146 138/138 147/147
f 146/146 147/147 148/148
f 148/148 147/147 149/149
f 148/148 149/149 150/150
f 150/150 149/149 135/135
f 150/150 135/135 151/151
f 152/152 153/153 154/154
f 153/153 152/152 155/155
f 152/152 154/154 156/156
f 156/156 154/154 157/157
f 156/156 157/157 158/158
f 158/158 157/157 159/159
f 158/158 159/159 160/160
f 160/160 159/159 161/161
f 160/160 161/161 162/162
f 162/162 161/161 163/163
f 162/162 163/163 164/164
f 164/164 163/163 165/165
f 164/164 165/165 166/166
f 166/166 165/165 167/167
f 166/166 167/167 168/168
f 168/168 167/167 169/169
f 168/168 169/169 170/170
f 170/170 169/169 171/171
f 170/170 171/171 155/155
f 155/155 171/171 153/153
f 153/153 171/171 172/172
f 172/172 171/171 173/173
f 173/173 171/171 169/169
f 173/173 169/169 174/174
f 174/174 169/169 167/167
f 174/174 167/167 175/175
f 175/175 167/167 165/165
f 175/175 165/165 176/176
f 176/176 165/165 163/163
f 176/176 163/163 177/177
f 177/177 163/163 161/161
f 177/177 161/161 178/178
f 178/178 161/161 159/159
f 178/178 159/159 179/179
f 179/179 159/159 157/157
f 179/179 157/157 180/180
f 180/180 157/157 154/154
f 180/180 154/154 181/181
f 181/181 154/154 153/153
f 181/181 153/153 172/172
f 181/181 172/172 182/182
f 182/182 172/172 183/183
f 183/183 172/172 173/173
f 183/183 173/173 184/184
f 184/184 173/173 174/174
f 184/184 174/174 185/185
f 185/185 174/174 175/175
f 185/185 175/175 186/186
f 186/186 175/175 176/176
f 186/186 176/176 187/187
f 187/187 176/176 177/177
f 187/187 177/177 188/188
f 188/188 177/177 178/178
f 188/188 178/178 189/189
f 189/189 178/178 179/179
f 189/189 179/179 190/190
f 190/190 179/179 180/180
f 190/190 180/180 191/191
f 191/191 180/180 181/181
f 191/191 181/181 182/182
f 191/191 182/182 192/192
f 192/192 182/182 193/193
f 193/193 182/182 183/183
f 193/193 183/183 194/194
f 194/194 183/183 184/184
f 194/194 184/184 195/195
f 195/195 184/184 185/185
f 195/195 185/185 196/196
f 196/196 185/185 186/186
f 196/196 186/186 197/197
f 197/197 186/186 187/187
f 197/197 187/187 198/198
f 198/198 187/187 188/188
f 198/198 188/188 199/199
f 199/199 188/188 189/189
f 199/199 189/189 200/200
f 200/200 189/189 190/190
f 200/200 190/190 201/201
f 201/201 190/190 191/191
f 201/201 191/191 192/192
f 201/201 192/192 202/202
f 202/202 192/192 203/203
f 203/203 192/192 193/193
f 203/203 193/193 204/204
f 204/204 193/193 194/194
f 204/204 194/194 205/205
f 205/205 194/194 195/195
f 205/205 195/195 206/206
f 206/206 195/195 196/196
f 206/206 196/196 207/207
f 207/207 196/196 197/197
f 207/207 197/197 208/208
f 208/208 197/197 198/198
f 208/208 198/198 209/209
f 209/209 198/198 199/199
f 209/209 199/199 210/210
f 210/210 199/199 200/200
f 210/210 200/200 211/211
f 211/211 200/200 201/201
f 211/211 201/201 202/202
f 211/211 202/202 212/212
f 212/212 202/202 213/213
f 213/213 202/202 203/203
f 213/213 203/203 214/214
f 214/214 203/203 204/204
f 214/214 204/204 215/215
f 215/215 204/204 205/205
f 215/215 205/205 216/216
f 216/216 205/205 206/206
f 216/216 206/206 217/217
f 217/217 206/206 207/207
f 217/217 207/207 218/218
f 218/218 207/207 208/208
f 218/218 208/208 219/219
f 219/219 208/208 209/209
f 219/219 209/209 220/220
f 220/220 209/209 210/210
f 220/220 210/210 221/221
f 221/221 210/210 211/211
f 221/221 211/211 212/212
f 221/221 212/212 222/222
f 221/221 222/222 220/220
f 220/220 222/222 219/219
f 219/219 222/222 218/218
f 218/218 222/222 217/217
f 217/217 222/222 216/216
f 216/216 222/222 215/215
f 215/215 222/222 214/214
f 214/214 222/222 213/213
f 213/213 222/222 212/212
f 223/223 224/224 225/225
f 223/223 225/225 226/226
f 224/224 223/223 227/227
f 224/224 227/227 228/228
f 228/228 227/227 229/229
f 228/228 229/229 230/230
f 230/230 229/229 231/231
f 230/230 231/231 232/232
f 232/232 231/231 233/233
f 232/232 233/233 234/234
f 233/233 231/231 235/235
f 235/235 231/231 236/236
f 236/236 231/231 237/237
f 237/237 231/231 229/229
f 237/237 229/229 238/238
f 237/237 238/238 239/239
f 239/239 238/238 240/240
f 239/239 240/240 241/241
f 241/241 240/240 226/226
f 241/241 226/226 242/242
f 243/243 244/244 245/245
f 243/243 245/245 246/246
f 244/244 243/243 247/247
f 244/244 247/247 248/248
f 248/248 247/247 249/249
f 248/248 249/249 250/250
f 250/250 249/249 251/251
f 250/250 251/251 252/252
f 252/252 251/251 253/253
f 252/252 253/253 254/254
f 253/253 251/251 255/255
f 255/255 251/251 256/256
f 256/256 251/251 257/257
f 257/257 251/251 249/249
f 257/257 249/249 258/258
f 257/257 258/258 259/259
f 259/259 258/258 260/260
f 259/259 260/260 261/261
f 261/261 260/260 246/246
f 261/261 246/246 262/262
f 263/263 264/264 265/265
f 263/263 265/265 266/266
f 264/264 263/263 267/267
f 264/264 267/267 268/268
f 268/268 267/267 269/269
f 268/268 269/269 270/270
f 270/270 269/269 271/271
f 270/270 271/271 272/272
f 272/272 271/271 273/273
f 272/272 273/273 274/274
f 273/273 271/271 275/275
f 275/275 271/271 276/276
f 276/276 271/271 277/277
f 277/277 271/271 269/269
f 277/277 269/269 278/278
f 277/277 278/278 279/279
f 279/279 278/278 280/280
f 279/279 280/280 281/281
f 281/281 280/280 266/266
f 281/281 266/266 282/282
f 283/283 284/284 285/285
f 283/283 285/285 286/286
f 284/284 283/283 287/287
f 284/284 287/287 288/288
f 288/288 287/287 289/289
f 288/288 289/289 290/290
f 290/290 289/289 291/291
f 290/290 291/291 292/292
f 292/292 291/291 293/293
f 292/292 293/293 294/294
f 293/293 291/291 295/295
f 295/295 291/291 296/296
f 296/296 291/291 297/297
f 297/297 291/291 289/289
f 297/297 289/289 298/298
f 297/297 298/298 299/299
f 299/299 298/298 300/300
f 299/299 300/300 301/301
f 301/301 300/300 286/286
f 301/301 286/286 302/302
f 303/303 304/304 305/305
f 303/303 305/305 306/306
f 304/304 303/303 307/307
f 304/304 307/307 308/308
f 308/308 307/307 309/309
f 308/308 309/309 310/310
f 310/310 309/309 311/311
f 310/310 311/311 312/312
f 312/312 311/311 313/313
f 312/312 313/313 314/314
f 313/313 311/311 315/315
f 315/315 311/311 316/316
f 316/316 311/311 317/317
f 317/317 311/311 309/309
f 317/317 309/309 318/318
f 317/317 318/318 319/319
f 319/319 318/318 320/320
f 319/319 320/320 321/321
f 321/321 320/320 306/306
f 321/321 306/306 322/322
f 323/323 324/324 325/325
f 323/323 325/325 326/326
f 324/324 323/323 327/327
f 324/324 327/327 328/328
f 328/328 327/327 329/329
f 328/328 329/329 330/330
f 330/330 329/329 331/331
f 330/330 331/331 332/332
f 332/332 331/331 333/333
f 332/332 333/333 334/334
f 333/333 331/331 335/335
f 335/335 331/331 336/336
f 336/336 331/331 337/337
f 337/337 331/331 329/329
f 337/337 329/329 338/338
f 337/337 338/338 339/339
f 339/339 338/338 340/340
f 339/339 340/340 341/341
f 341/341 340/340 326/326
f 341/341 326/326 342/342
f 343/343 344/344 345/345
f 343/343 345/345 346/346
f 344/344 343/343 347/347
f 344/344 347/347 348/348
f 348/348 347/347 349/349
f 348/348 349/349 350/350
f 350/350 349/349 351/351
f 350/350 351/351 352/352
f 352/352 351/351 353/353
f 352/352 353/353 354/354
f 353/353 351/351 355/355
f 355/355 351/351 356/356
f 356/356 351/351 357/357
f 357/357 351/351 349/349
f 357/357 349/349 358/358
f 357/357 358/358 359/359
f 359/359 358/358 360/360
f 359/359 360/360 361/361
f 361/361 360/360 346/346
f 361/361 346/346 362/362
f 363/363 364/364 365/365
f 364/364 363/363 366/366
f 363/363 365/365 367/367
f 367/367 365/365 368/368
f 367/367 368/368 369/369
f 369/369 368/368 370/370
f 369/369 370/370 371/371
f 371/371 370/370 372/372
f 371/371 372/372 373/373
f 373/373 372/372 374/374
f 373/373 374/374 375/375
f 375/375 374/374 376/376
f 375/375 376/376 377/377
f 377/377 376/376 378/378
f 377/377 378/378 379/379
f 379/379 378/378 380/380
f 379/379 380/380 381/381
f 381/381 380/380 382/382
f 381/381 382/382 366/366
f 366/366 382/382 364/364
f 364/364 382/382 383/383
f 383/383 382/382 384/384
f 384/384 382/382 380/380
f 384/384 380/380 385/385
f 385/385 380/380 378/378
f 385/385 378/378 386/386
f 386/386 378/378 376/376
f 386/386 376/376 387/387
f 387/387 376/376 374/374
f 387/387 374/374 388/388
f 388/388 374/374 372/372
f 388/388 372/372 389/389
f 389/389 372/372 370/370
f 389/389 370/370 390/390
f 390/390 370/370 368/368
f 390/390 368/368 391/391
f 391/391 368/368 365/365
f 391/391 365/365 392/392
f 392/392 365/365 364/364
f 392/392 364/364 383/383
f 392/392 383/383 393/393
f 393/393 383/383 394/394
f 394/394 383/383 384/384
f 394/394 384/384 395/395
f 395/395 384/384 385/385
f 395/395 385/385 396/396
f 396/396 385/385 386/386
f 396/396 386/386 397/397
f 397/397 386/386 387/387
f 397/397 387/387 398/398
f 398/398 387/387 388/388
f 398/398 388/388 399/399
f 399/399 388/388 389/389
f 399/399 389/389 400/400
f 400/400 389/389 390/390
f 400/400 390/390 401/401
f 401/401 390/390 391/391
f 401/401 391/391 402/402
f 402/402 391/391 392/392
f 402/402 392/392 393/393
f 402/402 393/393 403/403
f 403/403 393/393 404/404
f 404/404 393/393 394/394
f 404/404 394/394 405/405
f 405/405 394/394 395/395
f 405/405 395/395 406/406
f 406/406 395/395 396/396
f 406/406 396/396 407/407
f 407/407 396/396 397/397
f 407/407 397/397 408/408
f 408/408 397/397 398/398
f 408/408 398/398 409/409
f 409/409 398/398 399/399
f 409/409 399/399 410/410
f 410/410 399/399 400/400
f 410/410 400/400 411/411
f 411/411 400/400 401/401
f 411/411 401/401 412/412
f 412/412 401/401 402/402
f 412/412 402/402 403/403
f 412/412 403/403 413/413
f 413/413 403/403 414/414
f 414/414 403/403 404/404
f 414/414 404/404 415/415
f 415/415 404/404 405/405
f 415/415 405/405 416/416
f 416/416 405/405 406/406
f 416/416 406/406 417/417
f 417/417 406/406 407/407
f 417/417 407/407 418/418
f 418/418 407/407 408/408
f 418/418 408/408 419/419
f 419/419 408/408 409/409
f 419/419 409/409 420/420
f 420/420 409/409 410/410
f 420/420 410/410 421/421
f 421/421 410/410 411/411
f 421/421 411/411 422/422
f 422/422 411/411 412/412
f 422/422 412/412 413/413
f 422/422 413/413 423/423
f 423/423 413/413 424/424
f 424/424 413/413 414/414
f 424/424 414/414 425/425
f 425/425 414/414 415/415
f 425/425 415/415 426/426
f 426/426 415/415 416/416
f 426/426 416/416 427/427
f 427/427 416/416 417/417
f 427/427 417/417 428/428
f 428/428 417/417 418/418
f 428/428 418/418 429/429
f 429/429 418/418 419/419
f 429/429 419/419 430/430
f 430/430 419/419 420/420
f 430/430 420/420 431/431
f 431/431 420/420 421/421
f 431/431 421/421 432/432
f 432/432 421/421 422/422
f 432/432 422/422 423/423
f 432/432 423/423 433/433
f 432/432 433/433 431/431
f 431/431 433/433 430/430
f 430/430 433/433 429/429
f 429/429 433/433 428/428
f 428/428 433/433 427/427
f 427/427 433/433 426/426
f 426/426 433/433 425/425
f 425/425 433/433 424/424
f 424/424 433/433 423/423
f 434/434 435/435 436/436
f 434/434 436/436 437/437
f 435/435 434/434 438/438
f 435/435 438/438 439/439
f 439/439 438/438 440/440
f 439/439 440/440 441/441
f 441/441 440/440 442/442
f 441/441 442/442 443/443
f 443/443 442/442 444/444
f 443/443 444/444 445/445
f 444/444 442/442 446/446
f 446/446 442/442 447/447
f 447/447 442/442 448/448
f 448/448 442/442 440/440
f 448/448 440/440 449/449
f 448/448 449/449 450/450
f 450/450 449/449 451/451
f 450/450 451/451 452/452
f 452/452 451/451 437/437
f 452/452 437/437 453/453
f 454/454 455/455 456/456
f 454/454 456/456 457/457
f 455/455 454/454 458/458
f 455/455 458/458 459/459
f 459/459 458/458 460/460
f 459/459 460/460 461/461
f 461/461 460/460 462/462
f 461/461 462/462 463/463
f 463/463 462/462 464/464
f 463/463 464/464 465/465
f 464/464 462/462 466/466
f 466/466 462/462 467/467
f 467/467 462/462 468/468
f 468/468 462/462 460/460
f 468/468 460/460 469/469
f 468/468 469/469 470/470
f 470/470 469/469 471/471
f 470/470 471/471 472/472
f 472/472 471/471 457/457
f 472/472 457/457 473/473
f 474/474 475/475 476/476
f 474/474 476/476 477/477
f 475/475 474/474 478/478
f 475/475 478/478 479/479
f 479/479 478/478 480/480
f 479/479 480/480 481/481
f 481/481 480/480 482/482
f 481/481 482/482 483/483
f 483/483 482/482 484/484
f 483/483 484/484 485/485
f 484/484 482/482 486/486
f 486/486 482/482 487/487
f 487/487 482/482 488/488
f 488/488 482/482 480/480
f 488/488 480/480 489/489
f 488/488 489/489 490/490
f 490/490 489/489 491/491
f 490/490 491/491 492/492
f 492/492 491/491 477/477
f 492/492 477/477 493/493
f 494/494 495/495 496/496
f 494/494 496/496 497/497
f 495/495 494/494 498/498
f 495/495 498/498 499/499
f 499/499 498/498 500/500
f 499/499 500/500 501/501
f 501/501 500/500 502/502
f 501/501 502/502 503/503
f 503/503 502/502 504/504
f 503/503 504/504 505/505
f 504/504 502/502 506/506
f 506/506 502/502 507/507
f 507/507 502/502 508/508
f 508/508 502/502 500/500
f 508/508 500/500 509/509
f 508/508 509/509 510/510
f 510/510 509/509 511/511
f 510/510 511/511 512/512
f 512/512 511/511 497/497
f 512/512 497/497 513/513
f 514/514 515/515 516/516
f 514/514 516/516 517/517
f 515/515 514/514 518/518
f 515/515 518/518 519/519
f 519/519 518/518 520/520
f 519/519 520/520 521/521
f 521/521 520/520 522/522
f 521/521 522/522 523/523
f 523/523 522/522 524/524
f 523/523 524/524 525/525
f 524/524 522/522 526/526
f 526/526 522/522 527/527
f 527/527 522/522 528/528
f 528/528 522/522 520/520
f 528/528 520/520 529/529
f 528/528 529/529 530/530
f 530/530 529/529 531/531
f 530/530 531/531 532/532
f 532/532 531/531 517/517
f 532/532 517/517 533/533

o Plane.021_1
usemtl Flowers
v 0.04610320 1.80678498 -0.55196775
v 0.06290962 1.76665026 -0.62634240
v -0.28566673 1.69374925 -0.39904820
v -0.06389103 1.87200387 -0.44858948
v -0.01234299 1.94700561 -0.29231490
v -0.02438341 1.97572707 -0.23910504
v -0.24954548 1.97434742 -0.28917938
v -0.38716367 2.02025151 -0.22894594
v -0.47069409 2.01974984 -0.24750825
v -0.47257541 1.93019922 -0.42137313
v -0.61354861 1.89044075 -0.52813775
v -0.59586423 1.84779762 -0.60702755
v -0.42968138 1.80891713 -0.64766400
v -0.37509190 1.72347404 -0.80183772
v -0.25205388 1.72422655 -0.77446463
v -0.15874065 1.77279588 -0.66095859
v 0.39894384 1.84591630 0.44773175
v 0.43644474 1.83864186 0.36670980
v 0.01963936 1.72447744 0.44898598
v 0.26044771 1.87802408 0.54333393
v 0.26809839 1.87112595 0.73134004
v 0.24138372 1.87626818 0.78944127
v 0.03105268 1.93170429 0.68731727
v -0.12283890 1.96920519 0.72820449
v -0.20075669 1.98964880 0.69045276
v -0.15410009 1.98325234 0.49238164
v -0.26472141 2.01485839 0.34262896
v -0.22496294 2.00720770 0.25659014
v -0.04821341 1.96331040 0.24351501
v 0.04923872 1.94324304 0.07933890
v 0.16412437 1.91301658 0.13502584
v 0.22532983 1.89382714 0.28280313
v 0.62507794 1.53107821 0.16412351
v 0.67778613 1.49768487 0.18720098
v 0.55572013 1.45165536 -0.11180272
v 0.56500127 1.58563634 0.06629512
v 0.44108530 1.64771974 0.08322696
v 0.40345901 1.67154974 0.06667138
v 0.47482356 1.67117349 -0.09650135
v 0.45111898 1.70967772 -0.20900400
v 0.47758283 1.70955231 -0.26948827
v 0.60701731 1.63530307 -0.24650488
v 0.70788718 1.60269362 -0.33809358
v 0.76369947 1.56732488 -0.31351105
v 0.76871635 1.53446459 -0.18216391
v 0.87482253 1.46331952 -0.11920256
v 0.83581656 1.46357036 -0.03002822
v 0.73736107 1.50345425 0.02452992
vt 0.54480809 0.64786756
vt 0.50476843 0.67423511
vt 0.52185857 0.46764326
vt 0.58437479 0.56484318
vt 0.68497747 0.55506217
vt 0.71355766 0.53601891
vt 0.64249635 0.42856491
vt 0.65177387 0.34139007
vt 0.62540627 0.30157930
vt 0.52405584 0.34187841
vt 0.43564507 0.29254597
vt 0.39291981 0.32063782
vt 0.40024415 0.41831082
vt 0.32088196 0.48400092
vt 0.35970092 0.54261082
vt 0.44322881 0.56508732
vt 0.54480809 0.64786756
vt 0.50476843 0.67423511
vt 0.52185857 0.46764326
vt 0.58437479 0.56484318
vt 0.68497747 0.55506217
vt 0.71355766 0.53601891
vt 0.64249635 0.42856491
vt 0.65177387 0.34139007
vt 0.62540627 0.30157930
vt 0.52405584 0.34187841
vt 0.43564507 0.29254597
vt 0.39291981 0.32063782
vt 0.40024415 0.41831082
vt 0.32088196 0.48400092
vt 0.35970092 0.54261082
vt 0.44322881 0.56508732
vt 0.54480809 0.64786756
vt 0.50476843 0.67423511
vt 0.52185857 0.46764326
vt 0.58437479 0.56484318
vt 0.68497747 0.55506217
vt 0.71355766 0.53601891
vt 0.64249635 0.42856491
vt 0.65177387 0.34139007
vt 0.62540627 0.30157930
vt 0.52405584 0.34187841
vt 0.43564507 0.29254597
vt 0.39291981 0.32063782
vt 0.40024415 0.41831082
vt 0.32088196 0.48400092
vt 0.35970092 0.54261082
vt 0.44322881 0.56508732
f 534/534 535/535 536/536
f 534/534 536/536 537/537
f 537/537 536/536 538/538
f 538/538 536/536 539/539
f 539/539 536/536 540/540
f 540/540 536/536 541/541
f 541/541 536/536 542/542
f 542/542 536/536 543/543
f 543/543 536/536 544/544
f 544/544 536/536 545/545
f 545/545 536/536 546/546
f 546/546 536/536 547/547
f 547/547 536/536 548/548
f 548/548 536/536 549/549
f 549/549 536/536 535/535
f 550/550 551/551 552/552
f 550/550 552/552 553/553
f 553/553 552/552 554/554
f 554/554 552/552 555/555
f 555/555 552/552 556/556
f 556/556 552/552 557/557
f 557/557 552/552 558/558
f 558/558 552/552 559/559
f 559/559 552/552 560/560
f 560/560 552/552 561/561
f 561/561 552/552 562/562
f 562/562 552/552 563/563
f 563/563 552/552 564/564
f 564/564 552/552 565/565
f 565/565 552/552 551/551
f 566/566 567/567 568/568
f 566/566 568/568 569/569
f 569/569 568/568 570/570
f 570/570 568/568 571/571
f 571/571 568/568 572/572
f 572/572 568/568 573/573
f 573/573 568/568 574/574
f 574/574 568/568 575/575
f 575/575 568/568 576/576
f 576/576 568/568 577/577
f 577/577 568/568 578/578
f 578/578 568/568 579/579
f 579/579 568/568 580/580
f 580/580 568/568 581/581
f 581/581 568/568 567/567

