# LibreViesGuard — groupe importé indépendant, CC0
# Généré par compilation/outils/generer_garde_librevies.py
mtllib LibreViesGuardParts.mtl
v -0.305000 1.480000 0.010000
v -0.317379 1.480000 0.064235
v -0.479903 1.180000 0.073388
v -0.470000 1.180000 0.030000
v -0.352064 1.480000 0.107729
v -0.507651 1.180000 0.108183
v -0.402185 1.480000 0.131866
v -0.547748 1.180000 0.127493
v -0.457815 1.480000 0.131866
v -0.592252 1.180000 0.127493
v -0.507936 1.480000 0.107729
v -0.632349 1.180000 0.108183
v -0.542621 1.480000 0.064235
v -0.660097 1.180000 0.073388
v -0.555000 1.480000 0.010000
v -0.670000 1.180000 0.030000
v -0.542621 1.480000 -0.044235
v -0.660097 1.180000 -0.013388
v -0.507936 1.480000 -0.087729
v -0.632349 1.180000 -0.048183
v -0.457815 1.480000 -0.111866
v -0.592252 1.180000 -0.067493
v -0.402185 1.480000 -0.111866
v -0.547748 1.180000 -0.067493
v -0.352064 1.480000 -0.087729
v -0.507651 1.180000 -0.048183
v -0.317379 1.480000 -0.044235
v -0.479903 1.180000 -0.013388
o Guard_ArmLower_L
usemtl GuardArmor
f 1 2 3
f 1 3 4
f 2 5 6
f 2 6 3
f 5 7 8
f 5 8 6
f 7 9 10
f 7 10 8
f 9 11 12
f 9 12 10
f 11 13 14
f 11 14 12
f 13 15 16
f 13 16 14
f 15 17 18
f 15 18 16
f 17 19 20
f 17 20 18
f 19 21 22
f 19 22 20
f 21 23 24
f 21 24 22
f 23 25 26
f 23 26 24
f 25 27 28
f 25 28 26
f 27 1 4
f 27 4 28
