# LibreViesGuard — groupe importé indépendant, CC0
# Généré par compilation/outils/generer_garde_librevies.py
mtllib LibreViesGuardParts.mtl
v -0.270000 1.580000 0.000000
v -0.376389 1.400000 0.059897
v -0.282874 1.580000 0.056405
v -0.365000 1.400000 0.010000
v -0.408299 1.400000 0.099911
v -0.318946 1.580000 0.101638
v -0.454410 1.400000 0.122117
v -0.371072 1.580000 0.126741
v -0.505590 1.400000 0.122117
v -0.428928 1.580000 0.126741
v -0.551701 1.400000 0.099911
v -0.481054 1.580000 0.101638
v -0.583611 1.400000 0.059897
v -0.517126 1.580000 0.056405
v -0.595000 1.400000 0.010000
v -0.530000 1.580000 0.000000
v -0.583611 1.400000 -0.039897
v -0.517126 1.580000 -0.056405
v -0.551701 1.400000 -0.079911
v -0.481054 1.580000 -0.101638
v -0.505590 1.400000 -0.102117
v -0.428928 1.580000 -0.126741
v -0.454410 1.400000 -0.102117
v -0.371072 1.580000 -0.126741
v -0.408299 1.400000 -0.079911
v -0.318946 1.580000 -0.101638
v -0.376389 1.400000 -0.039897
v -0.282874 1.580000 -0.056405
o Guard_ArmUpper_L
usemtl GuardArmorLight
f 1 2 3
f 1 4 2
f 3 5 6
f 3 2 5
f 6 7 8
f 6 5 7
f 8 9 10
f 8 7 9
f 10 11 12
f 10 9 11
f 12 13 14
f 12 11 13
f 14 15 16
f 14 13 15
f 16 17 18
f 16 15 17
f 18 19 20
f 18 17 19
f 20 21 22
f 20 19 21
f 22 23 24
f 22 21 23
f 24 25 26
f 24 23 25
f 26 27 28
f 26 25 27
f 28 4 1
f 28 27 4
