# LibreViesGuard — groupe importé indépendant, CC0
# Généré par compilation/outils/generer_garde_librevies.py
mtllib LibreViesGuardParts.mtl
v 0.340000 0.060000 0.050000
v 0.309343 0.300000 0.120364
v 0.327821 0.060000 0.145671
v 0.320000 0.300000 0.040000
v 0.278995 0.300000 0.188492
v 0.293137 0.060000 0.226777
v 0.233576 0.300000 0.234015
v 0.241229 0.060000 0.280970
v 0.180000 0.300000 0.250000
v 0.180000 0.060000 0.300000
v 0.126424 0.300000 0.234015
v 0.118771 0.060000 0.280970
v 0.081005 0.300000 0.188492
v 0.066863 0.060000 0.226777
v 0.050657 0.300000 0.120364
v 0.032179 0.060000 0.145671
v 0.040000 0.300000 0.040000
v 0.020000 0.060000 0.050000
v 0.050657 0.300000 -0.040364
v 0.032179 0.060000 -0.045671
v 0.081005 0.300000 -0.108492
v 0.066863 0.060000 -0.126777
v 0.126424 0.300000 -0.154015
v 0.118771 0.060000 -0.180970
v 0.180000 0.300000 -0.170000
v 0.180000 0.060000 -0.200000
v 0.233576 0.300000 -0.154015
v 0.241229 0.060000 -0.180970
v 0.278995 0.300000 -0.108492
v 0.293137 0.060000 -0.126777
v 0.309343 0.300000 -0.040364
v 0.327821 0.060000 -0.045671
o Guard_Boot_R
usemtl GuardBoots
f 1 2 3
f 1 4 2
f 3 5 6
f 3 2 5
f 6 7 8
f 6 5 7
f 8 9 10
f 8 7 9
f 10 11 12
f 10 9 11
f 12 13 14
f 12 11 13
f 14 15 16
f 14 13 15
f 16 17 18
f 16 15 17
f 18 19 20
f 18 17 19
f 20 21 22
f 20 19 21
f 22 23 24
f 22 21 23
f 24 25 26
f 24 23 25
f 26 27 28
f 26 25 27
f 28 29 30
f 28 27 29
f 30 31 32
f 30 29 31
f 32 4 1
f 32 31 4
