# LibreViesGuard — groupe importé indépendant, CC0
# Généré par compilation/outils/generer_garde_librevies.py
mtllib LibreViesGuardParts.mtl
v 0.220000 1.270000 0.190000
v 0.207846 1.550000 0.207500
v 0.190526 1.270000 0.207500
v 0.240000 1.550000 0.190000
v 0.120000 1.550000 0.220311
v 0.110000 1.270000 0.220311
v 0.000000 1.550000 0.225000
v 0.000000 1.270000 0.225000
v -0.120000 1.550000 0.220311
v -0.110000 1.270000 0.220311
v -0.207846 1.550000 0.207500
v -0.190526 1.270000 0.207500
v -0.240000 1.550000 0.190000
v -0.220000 1.270000 0.190000
v -0.207846 1.550000 0.172500
v -0.190526 1.270000 0.172500
v -0.120000 1.550000 0.159689
v -0.110000 1.270000 0.159689
v -0.000000 1.550000 0.155000
v -0.000000 1.270000 0.155000
v 0.120000 1.550000 0.159689
v 0.110000 1.270000 0.159689
v 0.207846 1.550000 0.172500
v 0.190526 1.270000 0.172500
v 0.000000 1.270000 0.190000
v 0.000000 1.550000 0.190000
o Guard_ChestPlate
usemtl GuardArmorLight
f 1 2 3
f 1 4 2
f 3 5 6
f 3 2 5
f 6 7 8
f 6 5 7
f 8 9 10
f 8 7 9
f 10 11 12
f 10 9 11
f 12 13 14
f 12 11 13
f 14 15 16
f 14 13 15
f 16 17 18
f 16 15 17
f 18 19 20
f 18 17 19
f 20 21 22
f 20 19 21
f 22 23 24
f 22 21 23
f 24 4 1
f 24 23 4
f 25 1 3
f 26 2 4
f 25 3 6
f 26 5 2
f 25 6 8
f 26 7 5
f 25 8 10
f 26 9 7
f 25 10 12
f 26 11 9
f 25 12 14
f 26 13 11
f 25 14 16
f 26 15 13
f 25 16 18
f 26 17 15
f 25 18 20
f 26 19 17
f 25 20 22
f 26 21 19
f 25 22 24
f 26 23 21
f 25 24 1
f 26 4 23
