# LibreViesGuard — groupe importé indépendant, CC0
# Généré par compilation/outils/generer_garde_librevies.py
mtllib LibreViesGuardParts.mtl
v 0.345691 1.100000 0.029723
v 0.365313 1.420000 0.099878
v 0.311852 1.100000 0.086258
v 0.404952 1.420000 0.034416
v 0.289914 1.420000 0.155563
v 0.247487 1.100000 0.134350
v 0.186136 1.420000 0.196021
v 0.158897 1.100000 0.169291
v 0.064138 1.420000 0.217291
v 0.054752 1.100000 0.187661
v -0.064138 1.420000 0.217291
v -0.054752 1.100000 0.187661
v -0.186136 1.420000 0.196021
v -0.158897 1.100000 0.169291
v -0.289914 1.420000 0.155563
v -0.247487 1.100000 0.134350
v -0.365313 1.420000 0.099878
v -0.311852 1.100000 0.086258
v -0.404952 1.420000 0.034416
v -0.345691 1.100000 0.029723
v -0.404952 1.420000 -0.034416
v -0.345691 1.100000 -0.029723
v -0.365313 1.420000 -0.099878
v -0.311852 1.100000 -0.086258
v -0.289914 1.420000 -0.155563
v -0.247487 1.100000 -0.134350
v -0.186136 1.420000 -0.196021
v -0.158897 1.100000 -0.169291
v -0.064138 1.420000 -0.217291
v -0.054752 1.100000 -0.187661
v 0.064138 1.420000 -0.217291
v 0.054752 1.100000 -0.187661
v 0.186136 1.420000 -0.196021
v 0.158897 1.100000 -0.169291
v 0.289914 1.420000 -0.155563
v 0.247487 1.100000 -0.134350
v 0.365313 1.420000 -0.099878
v 0.311852 1.100000 -0.086258
v 0.404952 1.420000 -0.034416
v 0.345691 1.100000 -0.029723
v 0.302942 1.700000 0.081718
v 0.335814 1.700000 0.028158
v 0.240416 1.700000 0.127279
v 0.154357 1.700000 0.160381
v 0.053188 1.700000 0.177784
v -0.053188 1.700000 0.177784
v -0.154357 1.700000 0.160381
v -0.240416 1.700000 0.127279
v -0.302942 1.700000 0.081718
v -0.335814 1.700000 0.028158
v -0.335814 1.700000 -0.028158
v -0.302942 1.700000 -0.081718
v -0.240416 1.700000 -0.127279
v -0.154357 1.700000 -0.160381
v -0.053188 1.700000 -0.177784
v 0.053188 1.700000 -0.177784
v 0.154357 1.700000 -0.160381
v 0.240416 1.700000 -0.127279
v 0.302942 1.700000 -0.081718
v 0.335814 1.700000 -0.028158
v 0.000000 1.100000 0.000000
v 0.000000 1.700000 0.000000
o Guard_Torso
usemtl GuardArmor
f 1 2 3
f 1 4 2
f 3 5 6
f 3 2 5
f 6 7 8
f 6 5 7
f 8 9 10
f 8 7 9
f 10 11 12
f 10 9 11
f 12 13 14
f 12 11 13
f 14 15 16
f 14 13 15
f 16 17 18
f 16 15 17
f 18 19 20
f 18 17 19
f 20 21 22
f 20 19 21
f 22 23 24
f 22 21 23
f 24 25 26
f 24 23 25
f 26 27 28
f 26 25 27
f 28 29 30
f 28 27 29
f 30 31 32
f 30 29 31
f 32 33 34
f 32 31 33
f 34 35 36
f 34 33 35
f 36 37 38
f 36 35 37
f 38 39 40
f 38 37 39
f 40 4 1
f 40 39 4
f 4 41 2
f 4 42 41
f 2 43 5
f 2 41 43
f 5 44 7
f 5 43 44
f 7 45 9
f 7 44 45
f 9 46 11
f 9 45 46
f 11 47 13
f 11 46 47
f 13 48 15
f 13 47 48
f 15 49 17
f 15 48 49
f 17 50 19
f 17 49 50
f 19 51 21
f 19 50 51
f 21 52 23
f 21 51 52
f 23 53 25
f 23 52 53
f 25 54 27
f 25 53 54
f 27 55 29
f 27 54 55
f 29 56 31
f 29 55 56
f 31 57 33
f 31 56 57
f 33 58 35
f 33 57 58
f 35 59 37
f 35 58 59
f 37 60 39
f 37 59 60
f 39 42 4
f 39 60 42
f 61 1 3
f 61 3 6
f 61 6 8
f 61 8 10
f 61 10 12
f 61 12 14
f 61 14 16
f 61 16 18
f 61 18 20
f 61 20 22
f 61 22 24
f 61 24 26
f 61 26 28
f 61 28 30
f 61 30 32
f 61 32 34
f 61 34 36
f 61 36 38
f 61 38 40
f 61 40 1
f 62 41 42
f 62 43 41
f 62 44 43
f 62 45 44
f 62 46 45
f 62 47 46
f 62 48 47
f 62 49 48
f 62 50 49
f 62 51 50
f 62 52 51
f 62 53 52
f 62 54 53
f 62 55 54
f 62 56 55
f 62 57 56
f 62 58 57
f 62 59 58
f 62 60 59
f 62 42 60
