# LibreViesGuard — groupe importé indépendant, CC0
# Généré par compilation/outils/generer_garde_librevies.py
mtllib LibreViesGuardParts.mtl
v 0.530000 1.580000 0.000000
v 0.517126 1.580000 0.056405
v 0.633611 1.300000 0.059897
v 0.645000 1.300000 0.010000
v 0.481054 1.580000 0.101638
v 0.601701 1.300000 0.099911
v 0.428928 1.580000 0.126741
v 0.555590 1.300000 0.122117
v 0.371072 1.580000 0.126741
v 0.504410 1.300000 0.122117
v 0.318946 1.580000 0.101638
v 0.458299 1.300000 0.099911
v 0.282874 1.580000 0.056405
v 0.426389 1.300000 0.059897
v 0.270000 1.580000 0.000000
v 0.415000 1.300000 0.010000
v 0.282874 1.580000 -0.056405
v 0.426389 1.300000 -0.039897
v 0.318946 1.580000 -0.101638
v 0.458299 1.300000 -0.079911
v 0.371072 1.580000 -0.126741
v 0.504410 1.300000 -0.102117
v 0.428928 1.580000 -0.126741
v 0.555590 1.300000 -0.102117
v 0.481054 1.580000 -0.101638
v 0.601701 1.300000 -0.079911
v 0.517126 1.580000 -0.056405
v 0.633611 1.300000 -0.039897
v 0.400000 1.580000 0.000000
o Guard_ArmUpper_R
usemtl GuardArmorLight
f 1 2 3
f 1 3 4
f 2 5 6
f 2 6 3
f 5 7 8
f 5 8 6
f 7 9 10
f 7 10 8
f 9 11 12
f 9 12 10
f 11 13 14
f 11 14 12
f 13 15 16
f 13 16 14
f 15 17 18
f 15 18 16
f 17 19 20
f 17 20 18
f 19 21 22
f 19 22 20
f 21 23 24
f 21 24 22
f 23 25 26
f 23 26 24
f 25 27 28
f 25 28 26
f 27 1 4
f 27 4 28
f 29 2 1
f 29 5 2
f 29 7 5
f 29 9 7
f 29 11 9
f 29 13 11
f 29 15 13
f 29 17 15
f 29 19 17
f 29 21 19
f 29 23 21
f 29 25 23
f 29 27 25
f 29 1 27
