# LibreViesGuard — groupe importé indépendant, CC0
# Généré par compilation/outils/generer_garde_librevies.py
mtllib LibreViesGuardParts.mtl
v 0.250000 2.080000 -0.010000
v 0.266296 2.250000 0.057984
v 0.237764 2.080000 0.054894
v 0.280000 2.250000 -0.010000
v 0.226525 2.250000 0.119313
v 0.202254 2.080000 0.113435
v 0.164580 2.250000 0.167984
v 0.146946 2.080000 0.159894
v 0.086525 2.250000 0.199232
v 0.077254 2.080000 0.189722
v 0.000000 2.250000 0.210000
v 0.000000 2.080000 0.200000
v -0.086525 2.250000 0.199232
v -0.077254 2.080000 0.189722
v -0.164580 2.250000 0.167984
v -0.146946 2.080000 0.159894
v -0.226525 2.250000 0.119313
v -0.202254 2.080000 0.113435
v -0.266296 2.250000 0.057984
v -0.237764 2.080000 0.054894
v -0.280000 2.250000 -0.010000
v -0.250000 2.080000 -0.010000
v -0.266296 2.250000 -0.077984
v -0.237764 2.080000 -0.074894
v -0.226525 2.250000 -0.139313
v -0.202254 2.080000 -0.133435
v -0.164580 2.250000 -0.187984
v -0.146946 2.080000 -0.179894
v -0.086525 2.250000 -0.219232
v -0.077254 2.080000 -0.209722
v -0.000000 2.250000 -0.230000
v -0.000000 2.080000 -0.220000
v 0.086525 2.250000 -0.219232
v 0.077254 2.080000 -0.209722
v 0.164580 2.250000 -0.187984
v 0.146946 2.080000 -0.179894
v 0.226525 2.250000 -0.139313
v 0.202254 2.080000 -0.133435
v 0.266296 2.250000 -0.077984
v 0.237764 2.080000 -0.074894
v 0.076085 2.340000 0.011631
v 0.080000 2.340000 -0.010000
v 0.064721 2.340000 0.031145
v 0.047023 2.340000 0.046631
v 0.024721 2.340000 0.056574
v 0.000000 2.340000 0.060000
v -0.024721 2.340000 0.056574
v -0.047023 2.340000 0.046631
v -0.064721 2.340000 0.031145
v -0.076085 2.340000 0.011631
v -0.080000 2.340000 -0.010000
v -0.076085 2.340000 -0.031631
v -0.064721 2.340000 -0.051145
v -0.047023 2.340000 -0.066631
v -0.024721 2.340000 -0.076574
v -0.000000 2.340000 -0.080000
v 0.024721 2.340000 -0.076574
v 0.047023 2.340000 -0.066631
v 0.064721 2.340000 -0.051145
v 0.076085 2.340000 -0.031631
v 0.000000 2.080000 -0.010000
v 0.000000 2.340000 -0.010000
o Guard_Helmet
usemtl GuardArmor
f 1 2 3
f 1 4 2
f 3 5 6
f 3 2 5
f 6 7 8
f 6 5 7
f 8 9 10
f 8 7 9
f 10 11 12
f 10 9 11
f 12 13 14
f 12 11 13
f 14 15 16
f 14 13 15
f 16 17 18
f 16 15 17
f 18 19 20
f 18 17 19
f 20 21 22
f 20 19 21
f 22 23 24
f 22 21 23
f 24 25 26
f 24 23 25
f 26 27 28
f 26 25 27
f 28 29 30
f 28 27 29
f 30 31 32
f 30 29 31
f 32 33 34
f 32 31 33
f 34 35 36
f 34 33 35
f 36 37 38
f 36 35 37
f 38 39 40
f 38 37 39
f 40 4 1
f 40 39 4
f 4 41 2
f 4 42 41
f 2 43 5
f 2 41 43
f 5 44 7
f 5 43 44
f 7 45 9
f 7 44 45
f 9 46 11
f 9 45 46
f 11 47 13
f 11 46 47
f 13 48 15
f 13 47 48
f 15 49 17
f 15 48 49
f 17 50 19
f 17 49 50
f 19 51 21
f 19 50 51
f 21 52 23
f 21 51 52
f 23 53 25
f 23 52 53
f 25 54 27
f 25 53 54
f 27 55 29
f 27 54 55
f 29 56 31
f 29 55 56
f 31 57 33
f 31 56 57
f 33 58 35
f 33 57 58
f 35 59 37
f 35 58 59
f 37 60 39
f 37 59 60
f 39 42 4
f 39 60 42
f 61 1 3
f 62 41 42
f 61 3 6
f 62 43 41
f 61 6 8
f 62 44 43
f 61 8 10
f 62 45 44
f 61 10 12
f 62 46 45
f 61 12 14
f 62 47 46
f 61 14 16
f 62 48 47
f 61 16 18
f 62 49 48
f 61 18 20
f 62 50 49
f 61 20 22
f 62 51 50
f 61 22 24
f 62 52 51
f 61 24 26
f 62 53 52
f 61 26 28
f 62 54 53
f 61 28 30
f 62 55 54
f 61 30 32
f 62 56 55
f 61 32 34
f 62 57 56
f 61 34 36
f 62 58 57
f 61 36 38
f 62 59 58
f 61 38 40
f 62 60 59
f 61 40 1
f 62 42 60
