# LibreViesGuard — groupe importé indépendant, CC0
# Généré par compilation/outils/generer_garde_librevies.py
mtllib LibreViesGuardParts.mtl
v 0.535000 2.540000 -0.050000
v 0.645000 2.540000 0.150000
v 0.535000 2.540000 0.150000
v 0.645000 2.540000 -0.050000
v 0.535000 3.020000 -0.050000
v 0.645000 3.020000 0.150000
v 0.645000 3.020000 -0.050000
v 0.535000 3.020000 0.150000
o Guard_HalberdBlade
usemtl GuardMetal
f 1 2 3
f 1 4 2
f 5 6 7
f 5 8 6
f 1 7 4
f 1 5 7
f 3 6 8
f 3 2 6
f 4 6 2
f 4 7 6
f 1 8 5
f 1 3 8
