# LibreViesGuard — groupe importé indépendant, CC0
# Généré par compilation/outils/generer_garde_librevies.py
mtllib LibreViesGuardParts.mtl
v 0.590000 0.970000 0.040000
v 0.639553 0.987417 0.061694
v 0.590000 0.970000 0.040000
v 0.645000 0.987417 0.040000
v 0.624292 0.987417 0.079092
v 0.590000 0.970000 0.040000
v 0.602239 0.987417 0.088746
v 0.590000 0.970000 0.040000
v 0.577761 0.987417 0.088746
v 0.590000 0.970000 0.040000
v 0.555708 0.987417 0.079092
v 0.590000 0.970000 0.040000
v 0.540447 0.987417 0.061694
v 0.590000 0.970000 0.040000
v 0.535000 0.987417 0.040000
v 0.590000 0.970000 0.040000
v 0.540447 0.987417 0.018306
v 0.590000 0.970000 0.040000
v 0.555708 0.987417 0.000908
v 0.590000 0.970000 0.040000
v 0.577761 0.987417 -0.008746
v 0.590000 0.970000 0.040000
v 0.602239 0.987417 -0.008746
v 0.590000 0.970000 0.040000
v 0.624292 0.987417 0.000908
v 0.590000 0.970000 0.040000
v 0.639553 0.987417 0.018306
v 0.590000 0.970000 0.040000
v 0.675829 1.035000 0.077575
v 0.685263 1.035000 0.040000
v 0.649395 1.035000 0.107709
v 0.611198 1.035000 0.124431
v 0.568802 1.035000 0.124431
v 0.530605 1.035000 0.107709
v 0.504171 1.035000 0.077575
v 0.494737 1.035000 0.040000
v 0.504171 1.035000 0.002425
v 0.530605 1.035000 -0.027709
v 0.568802 1.035000 -0.044431
v 0.611198 1.035000 -0.044431
v 0.649395 1.035000 -0.027709
v 0.675829 1.035000 0.002425
v 0.689107 1.100000 0.083388
v 0.700000 1.100000 0.040000
v 0.658584 1.100000 0.118183
v 0.614477 1.100000 0.137493
v 0.565523 1.100000 0.137493
v 0.521416 1.100000 0.118183
v 0.490893 1.100000 0.083388
v 0.480000 1.100000 0.040000
v 0.490893 1.100000 -0.003388
v 0.521416 1.100000 -0.038183
v 0.565523 1.100000 -0.057493
v 0.614477 1.100000 -0.057493
v 0.658584 1.100000 -0.038183
v 0.689107 1.100000 -0.003388
v 0.675829 1.165000 0.077575
v 0.685263 1.165000 0.040000
v 0.649395 1.165000 0.107709
v 0.611198 1.165000 0.124431
v 0.568802 1.165000 0.124431
v 0.530605 1.165000 0.107709
v 0.504171 1.165000 0.077575
v 0.494737 1.165000 0.040000
v 0.504171 1.165000 0.002425
v 0.530605 1.165000 -0.027709
v 0.568802 1.165000 -0.044431
v 0.611198 1.165000 -0.044431
v 0.649395 1.165000 -0.027709
v 0.675829 1.165000 0.002425
v 0.639553 1.212583 0.061694
v 0.645000 1.212583 0.040000
v 0.624292 1.212583 0.079092
v 0.602239 1.212583 0.088746
v 0.577761 1.212583 0.088746
v 0.555708 1.212583 0.079092
v 0.540447 1.212583 0.061694
v 0.535000 1.212583 0.040000
v 0.540447 1.212583 0.018306
v 0.555708 1.212583 0.000908
v 0.577761 1.212583 -0.008746
v 0.602239 1.212583 -0.008746
v 0.624292 1.212583 0.000908
v 0.639553 1.212583 0.018306
v 0.590000 1.230000 0.040000
v 0.590000 1.230000 0.040000
v 0.590000 1.230000 0.040000
v 0.590000 1.230000 0.040000
v 0.590000 1.230000 0.040000
v 0.590000 1.230000 0.040000
v 0.590000 1.230000 0.040000
v 0.590000 1.230000 0.040000
v 0.590000 1.230000 0.040000
v 0.590000 1.230000 0.040000
v 0.590000 1.230000 0.040000
v 0.590000 1.230000 0.040000
v 0.590000 1.230000 0.040000
v 0.590000 1.230000 0.040000
o Guard_Glove_R
usemtl GuardLeather
f 1 2 3
f 1 4 2
f 3 5 6
f 3 2 5
f 6 7 8
f 6 5 7
f 8 9 10
f 8 7 9
f 10 11 12
f 10 9 11
f 12 13 14
f 12 11 13
f 14 15 16
f 14 13 15
f 16 17 18
f 16 15 17
f 18 19 20
f 18 17 19
f 20 21 22
f 20 19 21
f 22 23 24
f 22 21 23
f 24 25 26
f 24 23 25
f 26 27 28
f 26 25 27
f 28 4 1
f 28 27 4
f 4 29 2
f 4 30 29
f 2 31 5
f 2 29 31
f 5 32 7
f 5 31 32
f 7 33 9
f 7 32 33
f 9 34 11
f 9 33 34
f 11 35 13
f 11 34 35
f 13 36 15
f 13 35 36
f 15 37 17
f 15 36 37
f 17 38 19
f 17 37 38
f 19 39 21
f 19 38 39
f 21 40 23
f 21 39 40
f 23 41 25
f 23 40 41
f 25 42 27
f 25 41 42
f 27 30 4
f 27 42 30
f 30 43 29
f 30 44 43
f 29 45 31
f 29 43 45
f 31 46 32
f 31 45 46
f 32 47 33
f 32 46 47
f 33 48 34
f 33 47 48
f 34 49 35
f 34 48 49
f 35 50 36
f 35 49 50
f 36 51 37
f 36 50 51
f 37 52 38
f 37 51 52
f 38 53 39
f 38 52 53
f 39 54 40
f 39 53 54
f 40 55 41
f 40 54 55
f 41 56 42
f 41 55 56
f 42 44 30
f 42 56 44
f 44 57 43
f 44 58 57
f 43 59 45
f 43 57 59
f 45 60 46
f 45 59 60
f 46 61 47
f 46 60 61
f 47 62 48
f 47 61 62
f 48 63 49
f 48 62 63
f 49 64 50
f 49 63 64
f 50 65 51
f 50 64 65
f 51 66 52
f 51 65 66
f 52 67 53
f 52 66 67
f 53 68 54
f 53 67 68
f 54 69 55
f 54 68 69
f 55 70 56
f 55 69 70
f 56 58 44
f 56 70 58
f 58 71 57
f 58 72 71
f 57 73 59
f 57 71 73
f 59 74 60
f 59 73 74
f 60 75 61
f 60 74 75
f 61 76 62
f 61 75 76
f 62 77 63
f 62 76 77
f 63 78 64
f 63 77 78
f 64 79 65
f 64 78 79
f 65 80 66
f 65 79 80
f 66 81 67
f 66 80 81
f 67 82 68
f 67 81 82
f 68 83 69
f 68 82 83
f 69 84 70
f 69 83 84
f 70 72 58
f 70 84 72
f 72 85 71
f 72 86 85
f 71 87 73
f 71 85 87
f 73 88 74
f 73 87 88
f 74 89 75
f 74 88 89
f 75 90 76
f 75 89 90
f 76 91 77
f 76 90 91
f 77 92 78
f 77 91 92
f 78 93 79
f 78 92 93
f 79 94 80
f 79 93 94
f 80 95 81
f 80 94 95
f 81 96 82
f 81 95 96
f 82 97 83
f 82 96 97
f 83 98 84
f 83 97 98
f 84 86 72
f 84 98 86
