# LibreViesGuard — groupe importé indépendant, CC0
# Généré par compilation/outils/generer_garde_librevies.py
mtllib LibreViesGuardParts.mtl
v -0.035000 2.330000 -0.120000
v -0.035000 2.330000 0.120000
v 0.035000 2.330000 0.120000
v 0.035000 2.330000 -0.120000
v -0.035000 2.610000 -0.120000
v 0.035000 2.610000 -0.120000
v 0.035000 2.610000 0.120000
v -0.035000 2.610000 0.120000
o Guard_Crest
usemtl GuardGold
f 1 2 3
f 1 3 4
f 5 6 7
f 5 7 8
f 1 4 6
f 1 6 5
f 2 8 7
f 2 7 3
f 4 3 7
f 4 7 6
f 1 5 8
f 1 8 2
