# LibreViesGuard — groupe importé indépendant, CC0
# Généré par compilation/outils/generer_garde_librevies.py
mtllib LibreViesGuardParts.mtl
v -0.170000 1.960000 0.197500
v -0.170000 1.960000 0.232500
v 0.170000 1.960000 0.232500
v 0.170000 1.960000 0.197500
v -0.170000 2.040000 0.197500
v 0.170000 2.040000 0.197500
v 0.170000 2.040000 0.232500
v -0.170000 2.040000 0.232500
o Guard_Visor
usemtl GuardVisor
f 1 2 3
f 1 3 4
f 5 6 7
f 5 7 8
f 1 4 6
f 1 6 5
f 2 8 7
f 2 7 3
f 4 3 7
f 4 7 6
f 1 5 8
f 1 8 2
