# LibreViesGuard — groupe importé indépendant, CC0
# Généré par compilation/outils/generer_garde_librevies.py
mtllib LibreViesGuardParts.mtl
v -0.035000 0.660000 0.000000
v 0.004776 1.120000 0.065056
v -0.046037 0.660000 0.055489
v 0.020000 1.120000 0.000000
v -0.038579 1.120000 0.120208
v -0.077470 0.660000 0.102530
v -0.103463 1.120000 0.157060
v -0.124511 0.660000 0.133963
v -0.180000 1.120000 0.170000
v -0.180000 0.660000 0.145000
v -0.256537 1.120000 0.157060
v -0.235489 0.660000 0.133963
v -0.321421 1.120000 0.120208
v -0.282530 0.660000 0.102530
v -0.364776 1.120000 0.065056
v -0.313963 0.660000 0.055489
v -0.380000 1.120000 0.000000
v -0.325000 0.660000 0.000000
v -0.364776 1.120000 -0.065056
v -0.313963 0.660000 -0.055489
v -0.321421 1.120000 -0.120208
v -0.282530 0.660000 -0.102530
v -0.256537 1.120000 -0.157060
v -0.235489 0.660000 -0.133963
v -0.180000 1.120000 -0.170000
v -0.180000 0.660000 -0.145000
v -0.103463 1.120000 -0.157060
v -0.124511 0.660000 -0.133963
v -0.038579 1.120000 -0.120208
v -0.077470 0.660000 -0.102530
v 0.004776 1.120000 -0.065056
v -0.046037 0.660000 -0.055489
v -0.180000 0.660000 0.000000
v -0.180000 1.120000 0.000000
o Guard_LegUpper_L
usemtl GuardCloth
f 1 2 3
f 1 4 2
f 3 5 6
f 3 2 5
f 6 7 8
f 6 5 7
f 8 9 10
f 8 7 9
f 10 11 12
f 10 9 11
f 12 13 14
f 12 11 13
f 14 15 16
f 14 13 15
f 16 17 18
f 16 15 17
f 18 19 20
f 18 17 19
f 20 21 22
f 20 19 21
f 22 23 24
f 22 21 23
f 24 25 26
f 24 23 25
f 26 27 28
f 26 25 27
f 28 29 30
f 28 27 29
f 30 31 32
f 30 29 31
f 32 4 1
f 32 31 4
f 33 1 3
f 34 2 4
f 33 3 6
f 34 5 2
f 33 6 8
f 34 7 5
f 33 8 10
f 34 9 7
f 33 10 12
f 34 11 9
f 33 12 14
f 34 13 11
f 33 14 16
f 34 15 13
f 33 16 18
f 34 17 15
f 33 18 20
f 34 19 17
f 33 20 22
f 34 21 19
f 33 22 24
f 34 23 21
f 33 24 26
f 34 25 23
f 33 26 28
f 34 27 25
f 33 28 30
f 34 29 27
f 33 30 32
f 34 31 29
f 33 32 1
f 34 4 31
