# LibreViesGuard — groupe importé indépendant, CC0
# Généré par compilation/outils/generer_garde_librevies.py
mtllib LibreViesGuardParts.mtl
v 0.625000 0.200000 0.050000
v 0.618316 2.720000 0.070572
v 0.618316 0.200000 0.070572
v 0.625000 2.720000 0.050000
v 0.600816 2.720000 0.083287
v 0.600816 0.200000 0.083287
v 0.579184 2.720000 0.083287
v 0.579184 0.200000 0.083287
v 0.561684 2.720000 0.070572
v 0.561684 0.200000 0.070572
v 0.555000 2.720000 0.050000
v 0.555000 0.200000 0.050000
v 0.561684 2.720000 0.029428
v 0.561684 0.200000 0.029428
v 0.579184 2.720000 0.016713
v 0.579184 0.200000 0.016713
v 0.600816 2.720000 0.016713
v 0.600816 0.200000 0.016713
v 0.618316 2.720000 0.029428
v 0.618316 0.200000 0.029428
v 0.590000 0.200000 0.050000
v 0.590000 2.720000 0.050000
o Guard_HalberdShaft
usemtl GuardWood
f 1 2 3
f 1 4 2
f 3 5 6
f 3 2 5
f 6 7 8
f 6 5 7
f 8 9 10
f 8 7 9
f 10 11 12
f 10 9 11
f 12 13 14
f 12 11 13
f 14 15 16
f 14 13 15
f 16 17 18
f 16 15 17
f 18 19 20
f 18 17 19
f 20 4 1
f 20 19 4
f 21 1 3
f 21 3 6
f 21 6 8
f 21 8 10
f 21 10 12
f 21 12 14
f 21 14 16
f 21 16 18
f 21 18 20
f 21 20 1
f 22 2 4
f 22 5 2
f 22 7 5
f 22 9 7
f 22 11 9
f 22 13 11
f 22 15 13
f 22 17 15
f 22 19 17
f 22 4 19
