# Exported from MakeClothes (TM)
# author Unknown
# license AGPL3 (see also http://www.makehuman.org/doc/node/external_tools_license.html)
# homepage http://www.makehuman.org/
v -0.2104 7.8233 -0.0167
v -0.0771 7.8409 -0.1652
v 0.0487 7.7693 -0.2479
v 0.1668 7.6084 -0.2649
v -0.3252 7.7220 -0.1482
v -0.1788 7.7448 -0.2830
v -0.0297 7.6924 -0.3361
v 0.1220 7.5647 -0.3074
v -0.3822 7.5886 -0.2677
v -0.2193 7.6174 -0.3806
v -0.0546 7.5956 -0.3946
v 0.1117 7.5232 -0.3098
v -0.3850 7.4385 -0.3478
v -0.2113 7.4666 -0.4436
v -0.0450 7.4640 -0.4329
v 0.1139 7.4308 -0.3156
v -0.3838 7.2340 -0.3839
v -0.2140 7.2548 -0.4881
v -0.0474 7.2548 -0.4831
v 0.1160 7.2339 -0.3691
v -0.3813 6.9587 -0.3898
v -0.2293 6.9710 -0.5197
v -0.0639 6.9711 -0.5400
v 0.1150 6.9590 -0.4507
v -0.3854 6.6624 -0.3838
v -0.2476 6.6586 -0.5291
v -0.0852 6.6521 -0.5661
v 0.1017 6.6428 -0.4947
v -0.4028 6.3404 -0.3691
v -0.2691 6.3191 -0.5161
v -0.1083 6.3052 -0.5559
v 0.0797 6.2987 -0.4885
v -0.4215 5.9180 -0.3271
v -0.2890 5.8855 -0.4563
v -0.1361 5.8692 -0.4846
v 0.0373 5.8691 -0.4119
v -0.4326 5.3654 -0.2435
v -0.3061 5.3335 -0.3365
v -0.1734 5.3216 -0.3432
v -0.0347 5.3298 -0.2634
v 0.2104 7.8233 -0.0167
v 0.0770 7.8409 -0.1652
v -0.0487 7.7693 -0.2479
v -0.1668 7.6084 -0.2649
v 0.3252 7.7220 -0.1482
v 0.1788 7.7448 -0.2830
v 0.0297 7.6924 -0.3361
v -0.1220 7.5647 -0.3074
v 0.3822 7.5886 -0.2677
v 0.2193 7.6174 -0.3806
v 0.0546 7.5956 -0.3946
v -0.1117 7.5232 -0.3098
v 0.3850 7.4385 -0.3478
v 0.2113 7.4666 -0.4436
v 0.0450 7.4640 -0.4329
v -0.1139 7.4308 -0.3156
v 0.3838 7.2340 -0.3839
v 0.2140 7.2548 -0.4881
v 0.0474 7.2548 -0.4831
v -0.1160 7.2339 -0.3691
v 0.3813 6.9587 -0.3898
v 0.2293 6.9710 -0.5197
v 0.0639 6.9711 -0.5400
v -0.1150 6.9590 -0.4507
v 0.3854 6.6624 -0.3838
v 0.2476 6.6586 -0.5291
v 0.0852 6.6521 -0.5661
v -0.1017 6.6428 -0.4947
v 0.4028 6.3404 -0.3691
v 0.2691 6.3191 -0.5161
v 0.1083 6.3052 -0.5559
v -0.0797 6.2987 -0.4885
v 0.4215 5.9180 -0.3271
v 0.2890 5.8855 -0.4563
v 0.1361 5.8692 -0.4846
v -0.0373 5.8691 -0.4119
v 0.4326 5.3654 -0.2435
v 0.3061 5.3335 -0.3365
v 0.1734 5.3216 -0.3432
v 0.0347 5.3298 -0.2634
v -0.4018 7.5773 -0.0332
v -0.2847 7.7228 -0.1056
v -0.1296 7.7691 -0.1454
v 0.0635 7.7162 -0.1525
v -0.4079 7.5132 -0.1242
v -0.2913 7.6258 -0.2419
v -0.1355 7.6678 -0.2834
v 0.0597 7.6392 -0.2485
v -0.4003 7.3837 -0.2236
v -0.2737 7.4665 -0.3549
v -0.1149 7.5020 -0.3909
v 0.0761 7.4903 -0.3316
v -0.3833 7.2114 -0.3143
v -0.2434 7.2649 -0.4473
v -0.0809 7.2888 -0.4757
v 0.1042 7.2831 -0.3993
v -0.3737 7.0531 -0.3558
v -0.2256 7.0679 -0.4898
v -0.0609 7.0764 -0.5142
v 0.1203 7.0787 -0.4288
v -0.3719 6.8944 -0.3476
v -0.2213 6.8727 -0.4778
v -0.0561 6.8720 -0.4999
v 0.1237 6.8923 -0.4139
v -0.3668 6.6753 -0.2866
v -0.2108 6.6345 -0.4055
v -0.0449 6.6347 -0.4215
v 0.1309 6.6758 -0.3348
v -0.3535 6.3852 -0.1719
v -0.1875 6.3408 -0.2749
v -0.0210 6.3481 -0.2794
v 0.1458 6.4071 -0.1856
v 0.4018 7.5773 -0.0332
v 0.2847 7.7228 -0.1056
v 0.1296 7.7691 -0.1454
v -0.0635 7.7162 -0.1525
v 0.4079 7.5132 -0.1242
v 0.2913 7.6258 -0.2419
v 0.1355 7.6678 -0.2834
v -0.0597 7.6392 -0.2485
v 0.4003 7.3837 -0.2236
v 0.2737 7.4665 -0.3549
v 0.1149 7.5020 -0.3909
v -0.0761 7.4903 -0.3316
v 0.3833 7.2114 -0.3143
v 0.2434 7.2649 -0.4473
v 0.0809 7.2888 -0.4757
v -0.1042 7.2831 -0.3993
v 0.3737 7.0531 -0.3558
v 0.2256 7.0679 -0.4898
v 0.0609 7.0764 -0.5142
v -0.1203 7.0787 -0.4288
v 0.3719 6.8944 -0.3476
v 0.2213 6.8727 -0.4778
v 0.0561 6.8720 -0.4999
v -0.1237 6.8923 -0.4139
v 0.3668 6.6753 -0.2866
v 0.2108 6.6345 -0.4055
v 0.0449 6.6347 -0.4215
v -0.1309 6.6758 -0.3348
v 0.3535 6.3852 -0.1719
v 0.1875 6.3408 -0.2749
v 0.0210 6.3481 -0.2794
v -0.1458 6.4071 -0.1856
v -0.2575 7.5092 0.9948
v -0.3522 7.6643 0.9104
v -0.4240 7.7246 0.7726
v -0.4728 7.6902 0.5814
v -0.3726 7.4511 1.0346
v -0.5059 7.5792 0.9574
v -0.5882 7.6281 0.8210
v -0.6197 7.5980 0.6255
v -0.4379 7.3984 1.0594
v -0.6060 7.4692 0.9768
v -0.6907 7.4958 0.8357
v -0.6919 7.4781 0.6362
v -0.4757 7.3301 1.0727
v -0.6464 7.3571 0.9714
v -0.7188 7.3664 0.8216
v -0.6928 7.3581 0.6231
v -0.5007 7.2569 1.0822
v -0.6665 7.2677 0.9703
v -0.7304 7.2648 0.8164
v -0.6923 7.2482 0.6205
v -0.5105 7.1758 1.0909
v -0.6760 7.1704 0.9781
v -0.7384 7.1591 0.8240
v -0.6979 7.1418 0.6286
v -0.5051 7.0129 1.1035
v -0.6704 6.9955 0.9916
v -0.7328 6.9809 0.8378
v -0.6923 6.9691 0.6420
v -0.4838 6.7504 1.1209
v -0.6487 6.7278 1.0094
v -0.7110 6.7123 0.8556
v -0.6708 6.7037 0.6595
v 0.2575 7.5092 0.9948
v 0.3522 7.6643 0.9104
v 0.4240 7.7246 0.7726
v 0.4728 7.6902 0.5814
v 0.3726 7.4511 1.0346
v 0.5059 7.5792 0.9574
v 0.5882 7.6281 0.8210
v 0.6197 7.5980 0.6255
v 0.4379 7.3984 1.0594
v 0.6060 7.4692 0.9768
v 0.6907 7.4958 0.8357
v 0.6919 7.4781 0.6362
v 0.4757 7.3301 1.0727
v 0.6464 7.3571 0.9714
v 0.7188 7.3664 0.8216
v 0.6928 7.3581 0.6231
v 0.5007 7.2569 1.0822
v 0.6665 7.2677 0.9703
v 0.7304 7.2648 0.8164
v 0.6923 7.2482 0.6205
v 0.5105 7.1758 1.0909
v 0.6760 7.1704 0.9781
v 0.7384 7.1591 0.8240
v 0.6979 7.1418 0.6286
v 0.5051 7.0129 1.1035
v 0.6704 6.9955 0.9916
v 0.7328 6.9809 0.8378
v 0.6923 6.9691 0.6420
v 0.4838 6.7504 1.1209
v 0.6487 6.7278 1.0094
v 0.7110 6.7123 0.8556
v 0.6708 6.7037 0.6595
v 0.0837 7.5552 1.1697
v -0.0874 7.6586 1.1497
v -0.2492 7.6642 1.1425
v -0.4018 7.5721 1.0510
v 0.0658 7.5092 1.2452
v -0.1149 7.5858 1.2849
v -0.2778 7.5824 1.2497
v -0.4228 7.4989 1.1396
v 0.0542 7.4564 1.3113
v -0.1362 7.4940 1.3611
v -0.2965 7.4775 1.3186
v -0.4268 7.4068 1.1839
v 0.0447 7.3789 1.3729
v -0.1519 7.3949 1.4079
v -0.3057 7.3740 1.3472
v -0.4167 7.3161 1.1909
v 0.0346 7.2814 1.4234
v -0.1639 7.2972 1.4445
v -0.3129 7.2802 1.3718
v -0.4123 7.2304 1.2051
v 0.0269 7.1693 1.4591
v -0.1722 7.1765 1.4797
v -0.3200 7.1670 1.4032
v -0.4164 7.1409 1.2296
v 0.0296 7.0240 1.4634
v -0.1692 7.0125 1.4849
v -0.3171 7.0104 1.4081
v -0.4141 7.0177 1.2330
v 0.0447 6.8416 1.4326
v -0.1531 6.8163 1.4520
v -0.3014 6.8188 1.3759
v -0.4001 6.8493 1.2043
v -0.0837 7.5552 1.1697
v 0.0874 7.6586 1.1581
v 0.2492 7.6642 1.1425
v 0.4018 7.5721 1.0510
v -0.0658 7.5092 1.2452
v 0.1149 7.5858 1.2849
v 0.2778 7.5824 1.2497
v 0.4228 7.4989 1.1396
v -0.0542 7.4564 1.3113
v 0.1362 7.4940 1.3611
v 0.2965 7.4775 1.3186
v 0.4268 7.4068 1.1839
v -0.0447 7.3789 1.3729
v 0.1519 7.3949 1.4079
v 0.3057 7.3740 1.3472
v 0.4167 7.3161 1.1909
v -0.0346 7.2814 1.4234
v 0.1639 7.2972 1.4445
v 0.3129 7.2802 1.3718
v 0.4123 7.2304 1.2051
v -0.0269 7.1693 1.4591
v 0.1722 7.1765 1.4797
v 0.3200 7.1670 1.4032
v 0.4164 7.1409 1.2296
v -0.0296 7.0240 1.4634
v 0.1692 7.0125 1.4849
v 0.3171 7.0104 1.4081
v 0.4141 7.0177 1.2330
v -0.0447 6.8416 1.4326
v 0.1531 6.8163 1.4520
v 0.3014 6.8188 1.3759
v 0.4001 6.8493 1.2043
v -0.0381 7.5558 1.2251
v -0.1862 7.6857 1.1248
v -0.3121 7.7280 1.0884
v -0.4159 7.6826 0.9231
v -0.1292 7.4645 1.2988
v -0.2954 7.5727 1.2707
v -0.4178 7.6141 1.1653
v -0.4963 7.5887 0.9828
v -0.1991 7.3719 1.3393
v -0.3808 7.4476 1.3020
v -0.4938 7.4861 1.1857
v -0.5380 7.4875 0.9903
v -0.2438 7.2981 1.3532
v -0.4295 7.3453 1.2949
v -0.5331 7.3673 1.1662
v -0.5545 7.3642 0.9671
v -0.2664 7.2580 1.3690
v -0.4542 7.2766 1.3019
v -0.5565 7.2644 1.1709
v -0.5734 7.2211 0.9761
v -0.2801 7.1785 1.3993
v -0.4690 7.1833 1.3329
v -0.5705 7.1655 1.2018
v -0.5844 7.1250 1.0061
v -0.2910 7.0114 1.4151
v -0.4797 7.0200 1.3483
v -0.5795 7.0242 1.2149
v -0.5904 7.0240 1.0149
v -0.2978 6.7918 1.3970
v -0.4863 6.8047 1.3304
v -0.5855 6.8249 1.1981
v -0.5956 6.8522 0.9999
v 0.0381 7.5558 1.2251
v 0.1862 7.6857 1.1491
v 0.3121 7.7280 1.0884
v 0.4159 7.6826 0.9231
v 0.1292 7.4645 1.2988
v 0.2954 7.5727 1.2707
v 0.4178 7.6141 1.1653
v 0.4963 7.5887 0.9828
v 0.1991 7.3719 1.3393
v 0.3808 7.4476 1.3020
v 0.4938 7.4861 1.1857
v 0.5380 7.4875 0.9903
v 0.2438 7.2981 1.3532
v 0.4295 7.3453 1.2949
v 0.5331 7.3673 1.1662
v 0.5545 7.3642 0.9671
v 0.2664 7.2580 1.3690
v 0.4542 7.2766 1.3019
v 0.5565 7.2644 1.1709
v 0.5734 7.2211 0.9761
v 0.2801 7.1785 1.3993
v 0.4690 7.1833 1.3329
v 0.5705 7.1655 1.2018
v 0.5844 7.1250 1.0061
v 0.2910 7.0114 1.4151
v 0.4797 7.0200 1.3483
v 0.5795 7.0242 1.2149
v 0.5904 7.0240 1.0149
v 0.2978 6.7918 1.3970
v 0.4863 6.8047 1.3304
v 0.5855 6.8249 1.1981
v 0.5956 6.8522 0.9999
v -0.3109 7.5255 0.6761
v -0.4332 7.6654 0.6014
v -0.5157 7.7203 0.4674
v -0.5582 7.6902 0.2740
v -0.4397 7.4993 0.7372
v -0.5759 7.5894 0.6212
v -0.6393 7.6042 0.4678
v -0.6301 7.5437 0.2771
v -0.5408 7.4287 0.7687
v -0.6763 7.4782 0.6297
v -0.7151 7.4777 0.4676
v -0.6574 7.4273 0.2825
v -0.5948 7.3205 0.7782
v -0.7263 7.3484 0.6297
v -0.7501 7.3544 0.4648
v -0.6663 7.3385 0.2836
v -0.5964 7.2061 0.7694
v -0.7348 7.2211 0.6254
v -0.7637 7.2390 0.4622
v -0.6833 7.2596 0.2799
v -0.5524 7.1246 0.7469
v -0.7085 7.1166 0.6216
v -0.7595 7.1224 0.4631
v -0.7053 7.1421 0.2712
v -0.5175 6.9825 0.7422
v -0.6820 6.9603 0.6301
v -0.7439 6.9454 0.4761
v -0.7032 6.9378 0.2801
v -0.5021 6.7283 0.7712
v -0.6635 6.7011 0.6557
v -0.7208 6.6766 0.5011
v -0.6742 6.6549 0.3075
v 0.3109 7.5255 0.6761
v 0.4332 7.6654 0.6014
v 0.5157 7.7203 0.4674
v 0.5582 7.6902 0.2740
v 0.4397 7.4993 0.7372
v 0.5758 7.5894 0.6212
v 0.6393 7.6042 0.4678
v 0.6301 7.5437 0.2771
v 0.5408 7.4287 0.7687
v 0.6763 7.4782 0.6297
v 0.7151 7.4777 0.4676
v 0.6574 7.4273 0.2825
v 0.5948 7.3205 0.7782
v 0.7263 7.3484 0.6297
v 0.7501 7.3544 0.4648
v 0.6663 7.3385 0.2836
v 0.5964 7.2061 0.7694
v 0.7348 7.2211 0.6254
v 0.7637 7.2390 0.4622
v 0.6833 7.2596 0.2799
v 0.5524 7.1246 0.7469
v 0.7085 7.1166 0.6216
v 0.7595 7.1224 0.4631
v 0.7053 7.1421 0.2712
v 0.5175 6.9825 0.7422
v 0.6820 6.9603 0.6301
v 0.7439 6.9454 0.4761
v 0.7032 6.9378 0.2801
v 0.5021 6.7283 0.7712
v 0.6635 6.7011 0.6557
v 0.7208 6.6766 0.5011
v 0.6742 6.6549 0.3075
v -0.5439 7.6386 0.3389
v -0.4994 7.7267 0.1647
v -0.4082 7.7203 0.0253
v -0.2703 7.6192 -0.0792
v -0.5993 7.5804 0.3083
v -0.5857 7.6411 0.1179
v -0.5017 7.6298 -0.0256
v -0.3472 7.5465 -0.1222
v -0.6416 7.4952 0.2933
v -0.6526 7.5268 0.0958
v -0.5765 7.5110 -0.0517
v -0.4133 7.4478 -0.1491
v -0.6720 7.3795 0.2928
v -0.7010 7.3889 0.0948
v -0.6333 7.3700 -0.0563
v -0.4689 7.3227 -0.1605
v -0.6963 7.2275 0.3028
v -0.7375 7.2216 0.1069
v -0.6770 7.2008 -0.0470
v -0.5147 7.1649 -0.1588
v -0.7117 7.0346 0.3244
v -0.7617 7.0098 0.1320
v -0.7067 6.9899 -0.0241
v -0.5469 6.9746 -0.1439
v -0.6799 6.7796 0.3654
v -0.7271 6.7342 0.1761
v -0.6721 6.7174 0.0197
v -0.5149 6.7295 -0.1039
v -0.5889 6.4553 0.4282
v -0.6224 6.3995 0.2388
v -0.5606 6.3888 0.0844
v -0.4035 6.4232 -0.0350
v 0.5439 7.6386 0.3389
v 0.4994 7.7267 0.1647
v 0.4082 7.7203 0.0253
v 0.2703 7.6192 -0.0792
v 0.5993 7.5804 0.3083
v 0.5857 7.6411 0.1179
v 0.5017 7.6298 -0.0256
v 0.3472 7.5465 -0.1222
v 0.6416 7.4952 0.2933
v 0.6526 7.5268 0.0958
v 0.5765 7.5110 -0.0517
v 0.4133 7.4478 -0.1491
v 0.6720 7.3795 0.2928
v 0.7010 7.3889 0.0948
v 0.6333 7.3700 -0.0563
v 0.4689 7.3227 -0.1605
v 0.6963 7.2275 0.3028
v 0.7375 7.2216 0.1069
v 0.6770 7.2008 -0.0470
v 0.5147 7.1649 -0.1588
v 0.7117 7.0346 0.3244
v 0.7617 7.0098 0.1320
v 0.7067 6.9899 -0.0241
v 0.5469 6.9746 -0.1439
v 0.6799 6.7796 0.3654
v 0.7271 6.7342 0.1761
v 0.6721 6.7174 0.0197
v 0.5149 6.7295 -0.1039
v 0.5889 6.4553 0.4282
v 0.6224 6.3995 0.2388
v 0.5606 6.3888 0.0844
v 0.4035 6.4232 -0.0350
v -0.4418 7.5791 0.1438
v -0.3983 7.7070 -0.0041
v -0.2870 7.7532 -0.1192
v -0.1079 7.7177 -0.2016
v -0.4896 7.5001 0.0802
v -0.4701 7.5863 -0.0995
v -0.3727 7.6083 -0.2330
v -0.1974 7.5659 -0.3202
v -0.5294 7.4128 0.0511
v -0.5311 7.4470 -0.1463
v -0.4453 7.4400 -0.2890
v -0.2719 7.3920 -0.3770
v -0.5698 7.2822 0.0479
v -0.5797 7.2829 -0.1522
v -0.4963 7.2636 -0.2952
v -0.3197 7.2243 -0.3812
v -0.5974 7.0982 0.0543
v -0.6082 7.0874 -0.1454
v -0.5236 7.0717 -0.2882
v -0.3438 7.0510 -0.3740
v -0.6051 6.8908 0.0699
v -0.6148 6.8630 -0.1283
v -0.5293 6.8472 -0.2705
v -0.3486 6.8435 -0.3567
v -0.5972 6.6736 0.1005
v -0.5865 6.6241 -0.0933
v -0.4885 6.6082 -0.2271
v -0.3031 6.6259 -0.3010
v -0.5676 6.4323 0.1473
v -0.5147 6.3762 -0.0375
v -0.3940 6.3736 -0.1524
v -0.2056 6.4244 -0.1974
v 0.4418 7.5791 0.1438
v 0.3983 7.7070 -0.0041
v 0.2870 7.7532 -0.1192
v 0.1079 7.7177 -0.2016
v 0.4896 7.5001 0.0802
v 0.4701 7.5863 -0.0995
v 0.3727 7.6083 -0.2330
v 0.1974 7.5659 -0.3202
v 0.5294 7.4128 0.0511
v 0.5311 7.4470 -0.1463
v 0.4453 7.4400 -0.2890
v 0.2719 7.3920 -0.3770
v 0.5698 7.2822 0.0479
v 0.5797 7.2829 -0.1522
v 0.4963 7.2636 -0.2952
v 0.3197 7.2243 -0.3812
v 0.5974 7.0982 0.0543
v 0.6082 7.0874 -0.1454
v 0.5236 7.0717 -0.2882
v 0.3438 7.0510 -0.3740
v 0.6051 6.8908 0.0699
v 0.6148 6.8630 -0.1283
v 0.5293 6.8472 -0.2705
v 0.3486 6.8435 -0.3567
v 0.5972 6.6736 0.1005
v 0.5865 6.6241 -0.0933
v 0.4885 6.6082 -0.2271
v 0.3031 6.6259 -0.3010
v 0.5676 6.4323 0.1473
v 0.5147 6.3762 -0.0375
v 0.3940 6.3736 -0.1524
v 0.2056 6.4244 -0.1974
v 0.0374 7.5230 1.1996
v 0.0471 7.7084 1.1245
v 0.0400 7.8031 0.9875
v 0.0412 7.8440 0.7595
v -0.1464 7.5303 1.2132
v -0.1582 7.7154 1.1374
v -0.1673 7.8084 0.9994
v -0.1737 7.8093 0.7992
v -0.2737 7.5214 1.2162
v -0.3126 7.6994 1.1329
v -0.3253 7.7864 0.9913
v -0.3116 7.7826 0.7915
v -0.3773 7.4919 1.2092
v -0.4509 7.6531 1.1159
v -0.4736 7.7305 0.9700
v -0.4455 7.7243 0.7718
v -0.4554 7.4291 1.1942
v -0.5723 7.5619 1.1003
v -0.6164 7.6288 0.9542
v -0.5879 7.6298 0.7559
v -0.5050 7.3370 1.1738
v -0.6695 7.4123 1.0879
v -0.7450 7.4533 0.9451
v -0.7313 7.4600 0.7453
v -0.5374 7.1010 1.1680
v -0.7185 7.1157 1.0835
v -0.8050 7.1229 0.9413
v -0.7969 7.1227 0.7411
v -0.5449 6.6600 1.1803
v -0.7210 6.6498 1.0864
v -0.7996 6.6450 0.9399
v -0.7807 6.6457 0.7410
v -0.4868 6.0426 1.1612
v -0.6518 6.0224 1.0734
v -0.7261 6.0154 0.9360
v -0.7097 6.0217 0.7489
v -0.3565 5.2682 1.0918
v -0.5038 5.2434 1.0338
v -0.5800 5.2340 0.9248
v -0.5850 5.2401 0.7647
v -0.0401 7.5378 1.1996
v -0.0499 7.7232 1.1245
v -0.0427 7.8180 0.9875
v -0.0186 7.8588 0.7595
v 0.1464 7.5452 1.2132
v 0.1582 7.7302 1.1374
v 0.1673 7.8232 0.9994
v 0.1737 7.8242 0.7992
v 0.2737 7.5362 1.2162
v 0.3126 7.7142 1.1329
v 0.3253 7.8013 0.9913
v 0.3116 7.7974 0.7915
v 0.3773 7.5067 1.2092
v 0.4509 7.6679 1.1159
v 0.4736 7.7454 0.9700
v 0.4455 7.7391 0.7718
v 0.4554 7.4439 1.1942
v 0.5723 7.5767 1.1003
v 0.6164 7.6436 0.9542
v 0.5879 7.6447 0.7559
v 0.5050 7.3518 1.1738
v 0.6695 7.4271 1.0879
v 0.7450 7.4681 0.9451
v 0.7313 7.4748 0.7453
v 0.5374 7.1159 1.1680
v 0.7185 7.1306 1.0835
v 0.8050 7.1378 0.9413
v 0.7969 7.1375 0.7411
v 0.5449 6.6748 1.1803
v 0.7210 6.6646 1.0864
v 0.7996 6.6599 0.9399
v 0.7807 6.6605 0.7410
v 0.4868 6.0574 1.1612
v 0.6518 6.0372 1.0734
v 0.7261 6.0303 0.9360
v 0.7097 6.0365 0.7489
v 0.3565 5.2831 1.0918
v 0.5038 5.2582 1.0338
v 0.5800 5.2489 0.9248
v 0.5850 5.2549 0.7647
v -0.0002 7.6779 0.9207
v 0.0245 7.8527 0.8079
v 0.0400 7.9026 0.6536
v 0.0463 7.8610 0.4577
v -0.1908 7.6854 0.9090
v -0.2005 7.8437 0.7867
v -0.1916 7.8982 0.6294
v -0.1642 7.8488 0.4372
v -0.3683 7.6269 0.8823
v -0.4127 7.7802 0.7613
v -0.4123 7.8382 0.6050
v -0.3670 7.8008 0.4135
v -0.5118 7.5241 0.8471
v -0.5940 7.6676 0.7340
v -0.6097 7.7315 0.5808
v -0.5590 7.7158 0.3877
v -0.5948 7.4274 0.8197
v -0.7197 7.5378 0.7086
v -0.7573 7.5935 0.5561
v -0.7076 7.5942 0.3620
v -0.6330 7.3276 0.8021
v -0.7892 7.3796 0.6880
v -0.8447 7.4073 0.5333
v -0.7997 7.4109 0.3382
v -0.6756 7.0826 0.8037
v -0.8289 7.0897 0.6750
v -0.8757 7.0920 0.5150
v -0.8160 7.0895 0.3239
v -0.7185 6.6500 0.8210
v -0.8431 6.6375 0.6654
v -0.8577 6.6327 0.4998
v -0.7621 6.6359 0.3244
v -0.6888 6.0386 0.8199
v -0.7706 6.0201 0.6517
v -0.7508 6.0201 0.4966
v -0.6292 6.0389 0.3545
v -0.5474 5.2605 0.7930
v -0.5873 5.2471 0.6384
v -0.5458 5.2553 0.5119
v -0.4228 5.2853 0.4137
v 0.0002 7.6779 0.9207
v -0.0245 7.8527 0.8079
v -0.0400 7.9026 0.6536
v -0.0463 7.8610 0.4577
v 0.1908 7.6854 0.9090
v 0.2005 7.8437 0.7867
v 0.1916 7.8982 0.6294
v 0.1642 7.8488 0.4372
v 0.3683 7.6269 0.8823
v 0.4127 7.7802 0.7613
v 0.4123 7.8382 0.6050
v 0.3670 7.8008 0.4135
v 0.5118 7.5241 0.8471
v 0.5940 7.6676 0.7340
v 0.6097 7.7315 0.5808
v 0.5590 7.7158 0.3877
v 0.5948 7.4274 0.8197
v 0.7197 7.5378 0.7086
v 0.7573 7.5935 0.5561
v 0.7076 7.5942 0.3620
v 0.6330 7.3276 0.8021
v 0.7892 7.3796 0.6880
v 0.8447 7.4073 0.5333
v 0.7997 7.4109 0.3382
v 0.6756 7.0826 0.8037
v 0.8289 7.0897 0.6750
v 0.8757 7.0920 0.5150
v 0.8160 7.0895 0.3239
v 0.7185 6.6500 0.8210
v 0.8431 6.6375 0.6654
v 0.8577 6.6327 0.4998
v 0.7621 6.6359 0.3244
v 0.6888 6.0386 0.8199
v 0.7706 6.0201 0.6517
v 0.7508 6.0201 0.4966
v 0.6291 6.0389 0.3545
v 0.5474 5.2605 0.7930
v 0.5873 5.2471 0.6384
v 0.5458 5.2553 0.5119
v 0.4228 5.2853 0.4137
v -0.1790 7.7150 0.5489
v -0.0309 7.8440 0.5098
v 0.0991 7.8804 0.4121
v 0.2111 7.8242 0.2558
v -0.2079 7.7318 0.5304
v -0.1394 7.8908 0.4297
v -0.0630 7.9454 0.2921
v 0.0213 7.8956 0.1173
v -0.2855 7.7347 0.5122
v -0.2906 7.8774 0.3717
v -0.2598 7.9165 0.2126
v -0.1933 7.8521 0.0350
v -0.4396 7.6867 0.4887
v -0.4766 7.8002 0.3279
v -0.4551 7.8194 0.1637
v -0.3753 7.7440 -0.0038
v -0.5999 7.5760 0.4547
v -0.6523 7.6676 0.2844
v -0.6264 7.6807 0.1203
v -0.5222 7.6152 -0.0377
v -0.7275 7.4113 0.4215
v -0.8035 7.4666 0.2446
v -0.7799 7.4741 0.0798
v -0.6568 7.4337 -0.0730
v -0.7975 7.1245 0.4088
v -0.8831 7.1359 0.2281
v -0.8594 7.1343 0.0631
v -0.7265 7.1198 -0.0861
v -0.8059 6.6892 0.4192
v -0.8872 6.6771 0.2371
v -0.8594 6.6715 0.0733
v -0.7224 6.6723 -0.0722
v -0.7210 6.0778 0.4431
v -0.8079 6.0546 0.2780
v -0.7921 6.0463 0.1227
v -0.6735 6.0530 -0.0230
v -0.5406 5.2825 0.4686
v -0.6409 5.2535 0.3470
v -0.6544 5.2402 0.2150
v -0.5810 5.2427 0.0726
v 0.1790 7.7150 0.5489
v 0.0309 7.8440 0.5098
v -0.0991 7.8804 0.4121
v -0.2111 7.8242 0.2558
v 0.2079 7.7318 0.5304
v 0.1394 7.8908 0.4297
v 0.0630 7.9454 0.2921
v -0.0213 7.8956 0.1173
v 0.2855 7.7347 0.5122
v 0.2906 7.8774 0.3717
v 0.2598 7.9165 0.2126
v 0.1933 7.8521 0.0350
v 0.4396 7.6867 0.4887
v 0.4766 7.8002 0.3279
v 0.4551 7.8194 0.1637
v 0.3753 7.7440 -0.0038
v 0.5999 7.5760 0.4547
v 0.6523 7.6676 0.2844
v 0.6264 7.6807 0.1203
v 0.5222 7.6152 -0.0377
v 0.7275 7.4113 0.4215
v 0.8035 7.4666 0.2446
v 0.7799 7.4741 0.0798
v 0.6568 7.4337 -0.0730
v 0.7975 7.1245 0.4088
v 0.8831 7.1359 0.2281
v 0.8594 7.1343 0.0631
v 0.7265 7.1198 -0.0861
v 0.8059 6.6892 0.4192
v 0.8872 6.6771 0.2371
v 0.8594 6.6715 0.0733
v 0.7224 6.6723 -0.0722
v 0.7210 6.0778 0.4431
v 0.8079 6.0546 0.2780
v 0.7921 6.0463 0.1227
v 0.6735 6.0530 -0.0230
v 0.5406 5.2825 0.4686
v 0.6409 5.2535 0.3470
v 0.6544 5.2402 0.2150
v 0.5810 5.2427 0.0726
v 0.0365 7.8392 0.2217
v 0.0490 7.9134 0.0361
v 0.0467 7.8798 -0.1271
v 0.0296 7.7383 -0.2679
v -0.1408 7.8468 0.2030
v -0.1164 7.9153 0.0164
v -0.0824 7.8767 -0.1422
v -0.0388 7.7311 -0.2726
v -0.3119 7.8188 0.1510
v -0.2751 7.8728 -0.0384
v -0.2045 7.8306 -0.1834
v -0.1002 7.6924 -0.2840
v -0.4665 7.7289 0.0774
v -0.4202 7.7607 -0.1148
v -0.3185 7.7222 -0.2412
v -0.1616 7.6133 -0.3016
v -0.5864 7.5314 0.0157
v -0.5350 7.5482 -0.1772
v -0.4171 7.5224 -0.2921
v -0.2325 7.4539 -0.3289
v -0.6723 7.2483 -0.0277
v -0.6222 7.2562 -0.2215
v -0.5003 7.2401 -0.3339
v -0.3065 7.1998 -0.3651
v -0.7231 6.9159 -0.0449
v -0.6746 6.9137 -0.2392
v -0.5518 6.9031 -0.3514
v -0.3546 6.8842 -0.3814
v -0.7388 6.5341 -0.0352
v -0.6917 6.5244 -0.2291
v -0.5695 6.5176 -0.3416
v -0.3721 6.5138 -0.3726
v -0.7008 6.0501 0.0054
v -0.6756 6.0359 -0.1803
v -0.5722 6.0302 -0.2975
v -0.3907 6.0331 -0.3462
v -0.6048 5.4427 0.0637
v -0.6218 5.4254 -0.0947
v -0.5601 5.4175 -0.2127
v -0.4199 5.4190 -0.2902
v -0.0365 7.8392 0.2217
v -0.0490 7.9134 0.0361
v -0.0467 7.8798 -0.1271
v -0.0296 7.7383 -0.2679
v 0.1408 7.8468 0.2030
v 0.1164 7.9153 0.0164
v 0.0824 7.8767 -0.1422
v 0.0388 7.7311 -0.2726
v 0.3119 7.8188 0.1510
v 0.2751 7.8728 -0.0384
v 0.2045 7.8306 -0.1834
v 0.1002 7.6924 -0.2840
v 0.4665 7.7289 0.0774
v 0.4202 7.7607 -0.1148
v 0.3185 7.7222 -0.2412
v 0.1616 7.6133 -0.3016
v 0.5864 7.5314 0.0157
v 0.5350 7.5482 -0.1772
v 0.4171 7.5224 -0.2921
v 0.2325 7.4539 -0.3289
v 0.6723 7.2483 -0.0277
v 0.6222 7.2562 -0.2215
v 0.5003 7.2401 -0.3339
v 0.3065 7.1998 -0.3651
v 0.7231 6.9159 -0.0449
v 0.6746 6.9137 -0.2392
v 0.5518 6.9031 -0.3514
v 0.3546 6.8842 -0.3814
v 0.7388 6.5341 -0.0352
v 0.6917 6.5244 -0.2291
v 0.5695 6.5176 -0.3416
v 0.3721 6.5138 -0.3726
v 0.7008 6.0501 0.0054
v 0.6756 6.0359 -0.1803
v 0.5722 6.0302 -0.2975
v 0.3907 6.0331 -0.3462
v 0.6048 5.4427 0.0637
v 0.6218 5.4254 -0.0947
v 0.5601 5.4175 -0.2127
v 0.4199 5.4190 -0.2902
vt 0.2609 1.0000
vt 0.2609 0.8889
vt 0.1497 0.8889
vt 0.1497 1.0000
vt 0.3720 1.0000
vt 0.3720 0.8889
vt 0.4831 1.0000
vt 0.4831 0.8889
vt 0.2609 0.7778
vt 0.1497 0.7778
vt 0.3720 0.7778
vt 0.4831 0.7778
vt 0.2609 0.6667
vt 0.1497 0.6667
vt 0.3720 0.6667
vt 0.4831 0.6667
vt 0.2609 0.5556
vt 0.1497 0.5556
vt 0.3720 0.5556
vt 0.4831 0.5556
vt 0.2609 0.4444
vt 0.1497 0.4444
vt 0.3720 0.4444
vt 0.4831 0.4444
vt 0.2609 0.3333
vt 0.1497 0.3333
vt 0.3720 0.3333
vt 0.4831 0.3333
vt 0.2609 0.2222
vt 0.1497 0.2222
vt 0.3720 0.2222
vt 0.4831 0.2222
vt 0.2609 0.1111
vt 0.1497 0.1111
vt 0.3720 0.1111
vt 0.4831 0.1111
vt 0.2609 0.0000
vt 0.1497 0.0000
vt 0.3720 0.0000
vt 0.4831 0.0000
vt 0.3566 1.0000
vt 0.2454 1.0000
vt 0.2454 0.8889
vt 0.3566 0.8889
vt 0.4677 1.0000
vt 0.4677 0.8889
vt 0.5788 1.0000
vt 0.5788 0.8889
vt 0.2454 0.7778
vt 0.3566 0.7778
vt 0.4677 0.7778
vt 0.5788 0.7778
vt 0.2454 0.6667
vt 0.3566 0.6667
vt 0.4677 0.6667
vt 0.5788 0.6667
vt 0.2454 0.5556
vt 0.3566 0.5556
vt 0.4677 0.5556
vt 0.5788 0.5556
vt 0.2454 0.4444
vt 0.3566 0.4444
vt 0.4677 0.4444
vt 0.5788 0.4444
vt 0.2454 0.3333
vt 0.3566 0.3333
vt 0.4677 0.3333
vt 0.5788 0.3333
vt 0.2454 0.2222
vt 0.3566 0.2222
vt 0.4677 0.2222
vt 0.5788 0.2222
vt 0.2454 0.1111
vt 0.3566 0.1111
vt 0.4677 0.1111
vt 0.5788 0.1111
vt 0.2454 0.0000
vt 0.3566 0.0000
vt 0.4677 0.0000
vt 0.5788 0.0000
vt 0.2980 1.0000
vt 0.2980 0.8571
vt 0.1868 0.8571
vt 0.1868 1.0000
vt 0.4091 1.0000
vt 0.4091 0.8571
vt 0.5202 1.0000
vt 0.5202 0.8571
vt 0.2980 0.7143
vt 0.1868 0.7143
vt 0.4091 0.7143
vt 0.5202 0.7143
vt 0.2980 0.5714
vt 0.1868 0.5714
vt 0.4091 0.5714
vt 0.5202 0.5714
vt 0.2980 0.4286
vt 0.1868 0.4286
vt 0.4091 0.4286
vt 0.5202 0.4286
vt 0.2980 0.2857
vt 0.1868 0.2857
vt 0.4091 0.2857
vt 0.5202 0.2857
vt 0.2980 0.1429
vt 0.1868 0.1429
vt 0.4091 0.1429
vt 0.5202 0.1429
vt 0.2980 0.0000
vt 0.1868 0.0000
vt 0.4091 0.0000
vt 0.5202 0.0000
vt 0.1827 1.0000
vt 0.0716 1.0000
vt 0.0716 0.8571
vt 0.1827 0.8571
vt 0.2938 1.0000
vt 0.2938 0.8571
vt 0.4049 1.0000
vt 0.4049 0.8571
vt 0.0716 0.7143
vt 0.1827 0.7143
vt 0.2938 0.7143
vt 0.4049 0.7143
vt 0.0716 0.5714
vt 0.1827 0.5714
vt 0.2938 0.5714
vt 0.4049 0.5714
vt 0.0716 0.4286
vt 0.1827 0.4286
vt 0.2938 0.4286
vt 0.4049 0.4286
vt 0.0716 0.2857
vt 0.1827 0.2857
vt 0.2938 0.2857
vt 0.4049 0.2857
vt 0.0716 0.1429
vt 0.1827 0.1429
vt 0.2938 0.1429
vt 0.4049 0.1429
vt 0.0716 0.0000
vt 0.1827 0.0000
vt 0.2938 0.0000
vt 0.4049 0.0000
vt 0.3097 1.0000
vt 0.3097 0.8571
vt 0.1986 0.8571
vt 0.1986 1.0000
vt 0.4208 1.0000
vt 0.4208 0.8571
vt 0.5319 1.0000
vt 0.5319 0.8571
vt 0.3097 0.7143
vt 0.1986 0.7143
vt 0.4208 0.7143
vt 0.5319 0.7143
vt 0.3097 0.5714
vt 0.1986 0.5714
vt 0.4208 0.5714
vt 0.5319 0.5714
vt 0.3097 0.4286
vt 0.1986 0.4286
vt 0.4208 0.4286
vt 0.5319 0.4286
vt 0.3097 0.2857
vt 0.1986 0.2857
vt 0.4208 0.2857
vt 0.5319 0.2857
vt 0.3097 0.1429
vt 0.1986 0.1429
vt 0.4208 0.1429
vt 0.5319 0.1429
vt 0.3097 0.0000
vt 0.1986 0.0000
vt 0.4208 0.0000
vt 0.5319 0.0000
vt 0.1632 1.0000
vt 0.0521 1.0000
vt 0.0521 0.8571
vt 0.1632 0.8571
vt 0.2743 1.0000
vt 0.2743 0.8571
vt 0.3854 1.0000
vt 0.3854 0.8571
vt 0.0521 0.7143
vt 0.1632 0.7143
vt 0.2743 0.7143
vt 0.3854 0.7143
vt 0.0521 0.5714
vt 0.1632 0.5714
vt 0.2743 0.5714
vt 0.3854 0.5714
vt 0.0521 0.4286
vt 0.1632 0.4286
vt 0.2743 0.4286
vt 0.3854 0.4286
vt 0.0521 0.2857
vt 0.1632 0.2857
vt 0.2743 0.2857
vt 0.3854 0.2857
vt 0.0521 0.1429
vt 0.1632 0.1429
vt 0.2743 0.1429
vt 0.3854 0.1429
vt 0.0521 0.0000
vt 0.1632 0.0000
vt 0.2743 0.0000
vt 0.3854 0.0000
vt 0.1886 1.0000
vt 0.1886 0.8571
vt 0.0775 0.8571
vt 0.0775 1.0000
vt 0.2997 1.0000
vt 0.2997 0.8571
vt 0.4108 1.0000
vt 0.4108 0.8571
vt 0.1886 0.7143
vt 0.0775 0.7143
vt 0.2997 0.7143
vt 0.4108 0.7143
vt 0.1886 0.5714
vt 0.0775 0.5714
vt 0.2997 0.5714
vt 0.4108 0.5714
vt 0.1886 0.4286
vt 0.0775 0.4286
vt 0.2997 0.4286
vt 0.4108 0.4286
vt 0.1886 0.2857
vt 0.0775 0.2857
vt 0.2997 0.2857
vt 0.4108 0.2857
vt 0.1886 0.1429
vt 0.0775 0.1429
vt 0.2997 0.1429
vt 0.4108 0.1429
vt 0.1886 0.0000
vt 0.0775 0.0000
vt 0.2997 0.0000
vt 0.4108 0.0000
vt 0.2765 1.0000
vt 0.1654 1.0000
vt 0.1654 0.8571
vt 0.2765 0.8571
vt 0.3876 1.0000
vt 0.3876 0.8571
vt 0.4987 1.0000
vt 0.4987 0.8571
vt 0.1654 0.7143
vt 0.2765 0.7143
vt 0.3876 0.7143
vt 0.4987 0.7143
vt 0.1654 0.5714
vt 0.2765 0.5714
vt 0.3876 0.5714
vt 0.4987 0.5714
vt 0.1654 0.4286
vt 0.2765 0.4286
vt 0.3876 0.4286
vt 0.4987 0.4286
vt 0.1654 0.2857
vt 0.2765 0.2857
vt 0.3876 0.2857
vt 0.4987 0.2857
vt 0.1654 0.1429
vt 0.2765 0.1429
vt 0.3876 0.1429
vt 0.4987 0.1429
vt 0.1654 0.0000
vt 0.2765 0.0000
vt 0.3876 0.0000
vt 0.4987 0.0000
vt 0.2843 1.0000
vt 0.2843 0.8571
vt 0.1732 0.8571
vt 0.1732 1.0000
vt 0.3954 1.0000
vt 0.3954 0.8571
vt 0.5065 1.0000
vt 0.5065 0.8571
vt 0.2843 0.7143
vt 0.1732 0.7143
vt 0.3954 0.7143
vt 0.5065 0.7143
vt 0.2843 0.5714
vt 0.1732 0.5714
vt 0.3954 0.5714
vt 0.5065 0.5714
vt 0.2843 0.4286
vt 0.1732 0.4286
vt 0.3954 0.4286
vt 0.5065 0.4286
vt 0.2843 0.2857
vt 0.1732 0.2857
vt 0.3954 0.2857
vt 0.5065 0.2857
vt 0.2843 0.1429
vt 0.1732 0.1429
vt 0.3954 0.1429
vt 0.5065 0.1429
vt 0.2843 0.0000
vt 0.1732 0.0000
vt 0.3954 0.0000
vt 0.5065 0.0000
vt 0.3429 1.0000
vt 0.2318 1.0000
vt 0.2318 0.8571
vt 0.3429 0.8571
vt 0.4540 1.0000
vt 0.4540 0.8571
vt 0.5651 1.0000
vt 0.5651 0.8571
vt 0.2318 0.7143
vt 0.3429 0.7143
vt 0.4540 0.7143
vt 0.5651 0.7143
vt 0.2318 0.5714
vt 0.3429 0.5714
vt 0.4540 0.5714
vt 0.5651 0.5714
vt 0.2318 0.4286
vt 0.3429 0.4286
vt 0.4540 0.4286
vt 0.5651 0.4286
vt 0.2318 0.2857
vt 0.3429 0.2857
vt 0.4540 0.2857
vt 0.5651 0.2857
vt 0.2318 0.1429
vt 0.3429 0.1429
vt 0.4540 0.1429
vt 0.5651 0.1429
vt 0.2318 0.0000
vt 0.3429 0.0000
vt 0.4540 0.0000
vt 0.5651 0.0000
vt 0.2784 1.0000
vt 0.2784 0.8571
vt 0.1673 0.8571
vt 0.1673 1.0000
vt 0.3895 1.0000
vt 0.3895 0.8571
vt 0.5007 1.0000
vt 0.5007 0.8571
vt 0.2784 0.7143
vt 0.1673 0.7143
vt 0.3895 0.7143
vt 0.5007 0.7143
vt 0.2784 0.5714
vt 0.1673 0.5714
vt 0.3895 0.5714
vt 0.5007 0.5714
vt 0.2784 0.4286
vt 0.1673 0.4286
vt 0.3895 0.4286
vt 0.5007 0.4286
vt 0.2784 0.2857
vt 0.1673 0.2857
vt 0.3895 0.2857
vt 0.5007 0.2857
vt 0.2784 0.1429
vt 0.1673 0.1429
vt 0.3895 0.1429
vt 0.5007 0.1429
vt 0.2784 0.0000
vt 0.1673 0.0000
vt 0.3895 0.0000
vt 0.5007 0.0000
vt 0.3077 1.0000
vt 0.1966 1.0000
vt 0.1966 0.8571
vt 0.3077 0.8571
vt 0.4188 1.0000
vt 0.4188 0.8571
vt 0.5299 1.0000
vt 0.5299 0.8571
vt 0.1966 0.7143
vt 0.3077 0.7143
vt 0.4188 0.7143
vt 0.5299 0.7143
vt 0.1966 0.5714
vt 0.3077 0.5714
vt 0.4188 0.5714
vt 0.5299 0.5714
vt 0.1966 0.4286
vt 0.3077 0.4286
vt 0.4188 0.4286
vt 0.5299 0.4286
vt 0.1966 0.2857
vt 0.3077 0.2857
vt 0.4188 0.2857
vt 0.5299 0.2857
vt 0.1966 0.1429
vt 0.3077 0.1429
vt 0.4188 0.1429
vt 0.5299 0.1429
vt 0.1966 0.0000
vt 0.3077 0.0000
vt 0.4188 0.0000
vt 0.5299 0.0000
vt 0.1769 1.0000
vt 0.1769 0.8571
vt 0.0658 0.8571
vt 0.0658 1.0000
vt 0.2880 1.0000
vt 0.2880 0.8571
vt 0.3991 1.0000
vt 0.3991 0.8571
vt 0.1769 0.7143
vt 0.0658 0.7143
vt 0.2880 0.7143
vt 0.3991 0.7143
vt 0.1769 0.5714
vt 0.0658 0.5714
vt 0.2880 0.5714
vt 0.3991 0.5714
vt 0.1769 0.4286
vt 0.0658 0.4286
vt 0.2880 0.4286
vt 0.3991 0.4286
vt 0.1769 0.2857
vt 0.0658 0.2857
vt 0.2880 0.2857
vt 0.3991 0.2857
vt 0.1769 0.1429
vt 0.0658 0.1429
vt 0.2880 0.1429
vt 0.3991 0.1429
vt 0.1769 0.0000
vt 0.0658 0.0000
vt 0.2880 0.0000
vt 0.3991 0.0000
vt 0.2140 1.0000
vt 0.1029 1.0000
vt 0.1029 0.8571
vt 0.2140 0.8571
vt 0.3251 1.0000
vt 0.3251 0.8571
vt 0.4362 1.0000
vt 0.4362 0.8571
vt 0.1029 0.7143
vt 0.2140 0.7143
vt 0.3251 0.7143
vt 0.4362 0.7143
vt 0.1029 0.5714
vt 0.2140 0.5714
vt 0.3251 0.5714
vt 0.4362 0.5714
vt 0.1029 0.4286
vt 0.2140 0.4286
vt 0.3251 0.4286
vt 0.4362 0.4286
vt 0.1029 0.2857
vt 0.2140 0.2857
vt 0.3251 0.2857
vt 0.4362 0.2857
vt 0.1029 0.1429
vt 0.2140 0.1429
vt 0.3251 0.1429
vt 0.4362 0.1429
vt 0.1029 0.0000
vt 0.2140 0.0000
vt 0.3251 0.0000
vt 0.4362 0.0000
vt 0.2374 1.0000
vt 0.2374 0.8571
vt 0.1263 0.8571
vt 0.1263 1.0000
vt 0.3485 1.0000
vt 0.3485 0.8571
vt 0.4596 1.0000
vt 0.4596 0.8571
vt 0.2374 0.7143
vt 0.1263 0.7143
vt 0.3485 0.7143
vt 0.4596 0.7143
vt 0.2374 0.5714
vt 0.1263 0.5714
vt 0.3485 0.5714
vt 0.4596 0.5714
vt 0.2374 0.4286
vt 0.1263 0.4286
vt 0.3485 0.4286
vt 0.4596 0.4286
vt 0.2374 0.2857
vt 0.1263 0.2857
vt 0.3485 0.2857
vt 0.4596 0.2857
vt 0.2374 0.1429
vt 0.1263 0.1429
vt 0.3485 0.1429
vt 0.4596 0.1429
vt 0.2374 0.0000
vt 0.1263 0.0000
vt 0.3485 0.0000
vt 0.4596 0.0000
vt 0.2511 1.0000
vt 0.1400 1.0000
vt 0.1400 0.8571
vt 0.2511 0.8571
vt 0.3622 1.0000
vt 0.3622 0.8571
vt 0.4733 1.0000
vt 0.4733 0.8571
vt 0.1400 0.7143
vt 0.2511 0.7143
vt 0.3622 0.7143
vt 0.4733 0.7143
vt 0.1400 0.5714
vt 0.2511 0.5714
vt 0.3622 0.5714
vt 0.4733 0.5714
vt 0.1400 0.4286
vt 0.2511 0.4286
vt 0.3622 0.4286
vt 0.4733 0.4286
vt 0.1400 0.2857
vt 0.2511 0.2857
vt 0.3622 0.2857
vt 0.4733 0.2857
vt 0.1400 0.1429
vt 0.2511 0.1429
vt 0.3622 0.1429
vt 0.4733 0.1429
vt 0.1400 0.0000
vt 0.2511 0.0000
vt 0.3622 0.0000
vt 0.4733 0.0000
vt 0.1085 1.0000
vt 0.1085 0.8889
vt -0.0026 0.8889
vt -0.0026 1.0000
vt 0.2196 1.0000
vt 0.2196 0.8889
vt 0.3307 1.0000
vt 0.3307 0.8889
vt 0.1085 0.7778
vt -0.0026 0.7778
vt 0.2196 0.7778
vt 0.3307 0.7778
vt 0.1085 0.6667
vt -0.0026 0.6667
vt 0.2196 0.6667
vt 0.3307 0.6667
vt 0.1085 0.5556
vt -0.0026 0.5556
vt 0.2196 0.5556
vt 0.3307 0.5556
vt 0.1085 0.4444
vt -0.0026 0.4444
vt 0.2196 0.4444
vt 0.3307 0.4444
vt 0.1085 0.3333
vt -0.0026 0.3333
vt 0.2196 0.3333
vt 0.3307 0.3333
vt 0.1085 0.2222
vt -0.0026 0.2222
vt 0.2196 0.2222
vt 0.3307 0.2222
vt 0.1085 0.1111
vt -0.0026 0.1111
vt 0.2196 0.1111
vt 0.3307 0.1111
vt 0.1085 0.0000
vt -0.0026 0.0000
vt 0.2196 0.0000
vt 0.3307 0.0000
vt 0.4774 1.0000
vt 0.5885 1.0000
vt 0.5885 0.8889
vt 0.4774 0.8889
vt 0.3663 1.0000
vt 0.3663 0.8889
vt 0.2552 1.0000
vt 0.2552 0.8889
vt 0.5885 0.7778
vt 0.4774 0.7778
vt 0.3663 0.7778
vt 0.2552 0.7778
vt 0.5885 0.6667
vt 0.4774 0.6667
vt 0.3663 0.6667
vt 0.2552 0.6667
vt 0.5885 0.5556
vt 0.4774 0.5556
vt 0.3663 0.5556
vt 0.2552 0.5556
vt 0.5885 0.4444
vt 0.4774 0.4444
vt 0.3663 0.4444
vt 0.2552 0.4444
vt 0.5885 0.3333
vt 0.4774 0.3333
vt 0.3663 0.3333
vt 0.2552 0.3333
vt 0.5885 0.2222
vt 0.4774 0.2222
vt 0.3663 0.2222
vt 0.2552 0.2222
vt 0.5885 0.1111
vt 0.4774 0.1111
vt 0.3663 0.1111
vt 0.2552 0.1111
vt 0.5885 0.0000
vt 0.4774 0.0000
vt 0.3663 0.0000
vt 0.2552 0.0000
vt 0.1827 1.0000
vt 0.1827 0.8889
vt 0.0716 0.8889
vt 0.0716 1.0000
vt 0.2938 1.0000
vt 0.2938 0.8889
vt 0.4049 1.0000
vt 0.4049 0.8889
vt 0.1827 0.7778
vt 0.0716 0.7778
vt 0.2938 0.7778
vt 0.4049 0.7778
vt 0.1827 0.6667
vt 0.0716 0.6667
vt 0.2938 0.6667
vt 0.4049 0.6667
vt 0.1827 0.5556
vt 0.0716 0.5556
vt 0.2938 0.5556
vt 0.4049 0.5556
vt 0.1827 0.4444
vt 0.0716 0.4444
vt 0.2938 0.4444
vt 0.4049 0.4444
vt 0.1827 0.3333
vt 0.0716 0.3333
vt 0.2938 0.3333
vt 0.4049 0.3333
vt 0.1827 0.2222
vt 0.0716 0.2222
vt 0.2938 0.2222
vt 0.4049 0.2222
vt 0.1827 0.1111
vt 0.0716 0.1111
vt 0.2938 0.1111
vt 0.4049 0.1111
vt 0.1827 0.0000
vt 0.0716 0.0000
vt 0.2938 0.0000
vt 0.4049 0.0000
vt 0.2901 1.0000
vt 0.1790 1.0000
vt 0.1790 0.8889
vt 0.2901 0.8889
vt 0.4013 1.0000
vt 0.4013 0.8889
vt 0.5124 1.0000
vt 0.5124 0.8889
vt 0.1790 0.7778
vt 0.2901 0.7778
vt 0.4013 0.7778
vt 0.5124 0.7778
vt 0.1790 0.6667
vt 0.2901 0.6667
vt 0.4013 0.6667
vt 0.5124 0.6667
vt 0.1790 0.5556
vt 0.2901 0.5556
vt 0.4013 0.5556
vt 0.5124 0.5556
vt 0.1790 0.4444
vt 0.2901 0.4444
vt 0.4013 0.4444
vt 0.5124 0.4444
vt 0.1790 0.3333
vt 0.2901 0.3333
vt 0.4013 0.3333
vt 0.5124 0.3333
vt 0.1790 0.2222
vt 0.2901 0.2222
vt 0.4013 0.2222
vt 0.5124 0.2222
vt 0.1790 0.1111
vt 0.2901 0.1111
vt 0.4013 0.1111
vt 0.5124 0.1111
vt 0.1790 0.0000
vt 0.2901 0.0000
vt 0.4013 0.0000
vt 0.5124 0.0000
vt 0.2706 1.0000
vt 0.2706 0.8889
vt 0.1595 0.8889
vt 0.1595 1.0000
vt 0.3817 1.0000
vt 0.3817 0.8889
vt 0.4928 1.0000
vt 0.4928 0.8889
vt 0.2706 0.7778
vt 0.1595 0.7778
vt 0.3817 0.7778
vt 0.4928 0.7778
vt 0.2706 0.6667
vt 0.1595 0.6667
vt 0.3817 0.6667
vt 0.4928 0.6667
vt 0.2706 0.5556
vt 0.1595 0.5556
vt 0.3817 0.5556
vt 0.4928 0.5556
vt 0.2706 0.4444
vt 0.1595 0.4444
vt 0.3817 0.4444
vt 0.4928 0.4444
vt 0.2706 0.3333
vt 0.1595 0.3333
vt 0.3817 0.3333
vt 0.4928 0.3333
vt 0.2706 0.2222
vt 0.1595 0.2222
vt 0.3817 0.2222
vt 0.4928 0.2222
vt 0.2706 0.1111
vt 0.1595 0.1111
vt 0.3817 0.1111
vt 0.4928 0.1111
vt 0.2706 0.0000
vt 0.1595 0.0000
vt 0.3817 0.0000
vt 0.4928 0.0000
vt 0.1319 1.0000
vt 0.0208 1.0000
vt 0.0208 0.8889
vt 0.1319 0.8889
vt 0.2431 1.0000
vt 0.2431 0.8889
vt 0.3542 1.0000
vt 0.3542 0.8889
vt 0.0208 0.7778
vt 0.1319 0.7778
vt 0.2431 0.7778
vt 0.3542 0.7778
vt 0.0208 0.6667
vt 0.1319 0.6667
vt 0.2431 0.6667
vt 0.3542 0.6667
vt 0.0208 0.5556
vt 0.1319 0.5556
vt 0.2431 0.5556
vt 0.3542 0.5556
vt 0.0208 0.4444
vt 0.1319 0.4444
vt 0.2431 0.4444
vt 0.3542 0.4444
vt 0.0208 0.3333
vt 0.1319 0.3333
vt 0.2431 0.3333
vt 0.3542 0.3333
vt 0.0208 0.2222
vt 0.1319 0.2222
vt 0.2431 0.2222
vt 0.3542 0.2222
vt 0.0208 0.1111
vt 0.1319 0.1111
vt 0.2431 0.1111
vt 0.3542 0.1111
vt 0.0208 0.0000
vt 0.1319 0.0000
vt 0.2431 0.0000
vt 0.3542 0.0000
vt 0.3273 1.0000
vt 0.3273 0.8889
vt 0.2161 0.8889
vt 0.2161 1.0000
vt 0.4384 1.0000
vt 0.4384 0.8889
vt 0.5495 1.0000
vt 0.5495 0.8889
vt 0.3273 0.7778
vt 0.2161 0.7778
vt 0.4384 0.7778
vt 0.5495 0.7778
vt 0.3273 0.6667
vt 0.2161 0.6667
vt 0.4384 0.6667
vt 0.5495 0.6667
vt 0.3273 0.5556
vt 0.2161 0.5556
vt 0.4384 0.5556
vt 0.5495 0.5556
vt 0.3273 0.4444
vt 0.2161 0.4444
vt 0.4384 0.4444
vt 0.5495 0.4444
vt 0.3273 0.3333
vt 0.2161 0.3333
vt 0.4384 0.3333
vt 0.5495 0.3333
vt 0.3273 0.2222
vt 0.2161 0.2222
vt 0.4384 0.2222
vt 0.5495 0.2222
vt 0.3273 0.1111
vt 0.2161 0.1111
vt 0.4384 0.1111
vt 0.5495 0.1111
vt 0.3273 0.0000
vt 0.2161 0.0000
vt 0.4384 0.0000
vt 0.5495 0.0000
vt 0.2179 1.0000
vt 0.1068 1.0000
vt 0.1068 0.8889
vt 0.2179 0.8889
vt 0.3290 1.0000
vt 0.3290 0.8889
vt 0.4401 1.0000
vt 0.4401 0.8889
vt 0.1068 0.7778
vt 0.2179 0.7778
vt 0.3290 0.7778
vt 0.4401 0.7778
vt 0.1068 0.6667
vt 0.2179 0.6667
vt 0.3290 0.6667
vt 0.4401 0.6667
vt 0.1068 0.5556
vt 0.2179 0.5556
vt 0.3290 0.5556
vt 0.4401 0.5556
vt 0.1068 0.4444
vt 0.2179 0.4444
vt 0.3290 0.4444
vt 0.4401 0.4444
vt 0.1068 0.3333
vt 0.2179 0.3333
vt 0.3290 0.3333
vt 0.4401 0.3333
vt 0.1068 0.2222
vt 0.2179 0.2222
vt 0.3290 0.2222
vt 0.4401 0.2222
vt 0.1068 0.1111
vt 0.2179 0.1111
vt 0.3290 0.1111
vt 0.4401 0.1111
vt 0.1068 0.0000
vt 0.2179 0.0000
vt 0.3290 0.0000
vt 0.4401 0.0000
f 2/1 6/2 5/3 1/4
f 3/5 7/6 6/2 2/1
f 4/7 8/8 7/6 3/5
f 6/2 10/9 9/10 5/3
f 7/6 11/11 10/9 6/2
f 8/8 12/12 11/11 7/6
f 10/9 14/13 13/14 9/10
f 11/11 15/15 14/13 10/9
f 12/12 16/16 15/15 11/11
f 14/13 18/17 17/18 13/14
f 15/15 19/19 18/17 14/13
f 16/16 20/20 19/19 15/15
f 18/17 22/21 21/22 17/18
f 19/19 23/23 22/21 18/17
f 20/20 24/24 23/23 19/19
f 22/21 26/25 25/26 21/22
f 23/23 27/27 26/25 22/21
f 24/24 28/28 27/27 23/23
f 26/25 30/29 29/30 25/26
f 27/27 31/31 30/29 26/25
f 28/28 32/32 31/31 27/27
f 30/29 34/33 33/34 29/30
f 31/31 35/35 34/33 30/29
f 32/32 36/36 35/35 31/31
f 34/33 38/37 37/38 33/34
f 35/35 39/39 38/37 34/33
f 36/36 40/40 39/39 35/35
f 42/41 41/42 45/43 46/44
f 43/45 42/41 46/44 47/46
f 44/47 43/45 47/46 48/48
f 46/44 45/43 49/49 50/50
f 47/46 46/44 50/50 51/51
f 48/48 47/46 51/51 52/52
f 50/50 49/49 53/53 54/54
f 51/51 50/50 54/54 55/55
f 52/52 51/51 55/55 56/56
f 54/54 53/53 57/57 58/58
f 55/55 54/54 58/58 59/59
f 56/56 55/55 59/59 60/60
f 58/58 57/57 61/61 62/62
f 59/59 58/58 62/62 63/63
f 60/60 59/59 63/63 64/64
f 62/62 61/61 65/65 66/66
f 63/63 62/62 66/66 67/67
f 64/64 63/63 67/67 68/68
f 66/66 65/65 69/69 70/70
f 67/67 66/66 70/70 71/71
f 68/68 67/67 71/71 72/72
f 70/70 69/69 73/73 74/74
f 71/71 70/70 74/74 75/75
f 72/72 71/71 75/75 76/76
f 74/74 73/73 77/77 78/78
f 75/75 74/74 78/78 79/79
f 76/76 75/75 79/79 80/80
f 82/81 86/82 85/83 81/84
f 83/85 87/86 86/82 82/81
f 84/87 88/88 87/86 83/85
f 86/82 90/89 89/90 85/83
f 87/86 91/91 90/89 86/82
f 88/88 92/92 91/91 87/86
f 90/89 94/93 93/94 89/90
f 91/91 95/95 94/93 90/89
f 92/92 96/96 95/95 91/91
f 94/93 98/97 97/98 93/94
f 95/95 99/99 98/97 94/93
f 96/96 100/100 99/99 95/95
f 98/97 102/101 101/102 97/98
f 99/99 103/103 102/101 98/97
f 100/100 104/104 103/103 99/99
f 102/101 106/105 105/106 101/102
f 103/103 107/107 106/105 102/101
f 104/104 108/108 107/107 103/103
f 106/105 110/109 109/110 105/106
f 107/107 111/111 110/109 106/105
f 108/108 112/112 111/111 107/107
f 114/113 113/114 117/115 118/116
f 115/117 114/113 118/116 119/118
f 116/119 115/117 119/118 120/120
f 118/116 117/115 121/121 122/122
f 119/118 118/116 122/122 123/123
f 120/120 119/118 123/123 124/124
f 122/122 121/121 125/125 126/126
f 123/123 122/122 126/126 127/127
f 124/124 123/123 127/127 128/128
f 126/126 125/125 129/129 130/130
f 127/127 126/126 130/130 131/131
f 128/128 127/127 131/131 132/132
f 130/130 129/129 133/133 134/134
f 131/131 130/130 134/134 135/135
f 132/132 131/131 135/135 136/136
f 134/134 133/133 137/137 138/138
f 135/135 134/134 138/138 139/139
f 136/136 135/135 139/139 140/140
f 138/138 137/137 141/141 142/142
f 139/139 138/138 142/142 143/143
f 140/140 139/139 143/143 144/144
f 146/145 150/146 149/147 145/148
f 147/149 151/150 150/146 146/145
f 148/151 152/152 151/150 147/149
f 150/146 154/153 153/154 149/147
f 151/150 155/155 154/153 150/146
f 152/152 156/156 155/155 151/150
f 154/153 158/157 157/158 153/154
f 155/155 159/159 158/157 154/153
f 156/156 160/160 159/159 155/155
f 158/157 162/161 161/162 157/158
f 159/159 163/163 162/161 158/157
f 160/160 164/164 163/163 159/159
f 162/161 166/165 165/166 161/162
f 163/163 167/167 166/165 162/161
f 164/164 168/168 167/167 163/163
f 166/165 170/169 169/170 165/166
f 167/167 171/171 170/169 166/165
f 168/168 172/172 171/171 167/167
f 170/169 174/173 173/174 169/170
f 171/171 175/175 174/173 170/169
f 172/172 176/176 175/175 171/171
f 178/177 177/178 181/179 182/180
f 179/181 178/177 182/180 183/182
f 180/183 179/181 183/182 184/184
f 182/180 181/179 185/185 186/186
f 183/182 182/180 186/186 187/187
f 184/184 183/182 187/187 188/188
f 186/186 185/185 189/189 190/190
f 187/187 186/186 190/190 191/191
f 188/188 187/187 191/191 192/192
f 190/190 189/189 193/193 194/194
f 191/191 190/190 194/194 195/195
f 192/192 191/191 195/195 196/196
f 194/194 193/193 197/197 198/198
f 195/195 194/194 198/198 199/199
f 196/196 195/195 199/199 200/200
f 198/198 197/197 201/201 202/202
f 199/199 198/198 202/202 203/203
f 200/200 199/199 203/203 204/204
f 202/202 201/201 205/205 206/206
f 203/203 202/202 206/206 207/207
f 204/204 203/203 207/207 208/208
f 210/209 214/210 213/211 209/212
f 211/213 215/214 214/210 210/209
f 212/215 216/216 215/214 211/213
f 214/210 218/217 217/218 213/211
f 215/214 219/219 218/217 214/210
f 216/216 220/220 219/219 215/214
f 218/217 222/221 221/222 217/218
f 219/219 223/223 222/221 218/217
f 220/220 224/224 223/223 219/219
f 222/221 226/225 225/226 221/222
f 223/223 227/227 226/225 222/221
f 224/224 228/228 227/227 223/223
f 226/225 230/229 229/230 225/226
f 227/227 231/231 230/229 226/225
f 228/228 232/232 231/231 227/227
f 230/229 234/233 233/234 229/230
f 231/231 235/235 234/233 230/229
f 232/232 236/236 235/235 231/231
f 234/233 238/237 237/238 233/234
f 235/235 239/239 238/237 234/233
f 236/236 240/240 239/239 235/235
f 242/241 241/242 245/243 246/244
f 243/245 242/241 246/244 247/246
f 244/247 243/245 247/246 248/248
f 246/244 245/243 249/249 250/250
f 247/246 246/244 250/250 251/251
f 248/248 247/246 251/251 252/252
f 250/250 249/249 253/253 254/254
f 251/251 250/250 254/254 255/255
f 252/252 251/251 255/255 256/256
f 254/254 253/253 257/257 258/258
f 255/255 254/254 258/258 259/259
f 256/256 255/255 259/259 260/260
f 258/258 257/257 261/261 262/262
f 259/259 258/258 262/262 263/263
f 260/260 259/259 263/263 264/264
f 262/262 261/261 265/265 266/266
f 263/263 262/262 266/266 267/267
f 264/264 263/263 267/267 268/268
f 266/266 265/265 269/269 270/270
f 267/267 266/266 270/270 271/271
f 268/268 267/267 271/271 272/272
f 274/273 278/274 277/275 273/276
f 275/277 279/278 278/274 274/273
f 276/279 280/280 279/278 275/277
f 278/274 282/281 281/282 277/275
f 279/278 283/283 282/281 278/274
f 280/280 284/284 283/283 279/278
f 282/281 286/285 285/286 281/282
f 283/283 287/287 286/285 282/281
f 284/284 288/288 287/287 283/283
f 286/285 290/289 289/290 285/286
f 287/287 291/291 290/289 286/285
f 288/288 292/292 291/291 287/287
f 290/289 294/293 293/294 289/290
f 291/291 295/295 294/293 290/289
f 292/292 296/296 295/295 291/291
f 294/293 298/297 297/298 293/294
f 295/295 299/299 298/297 294/293
f 296/296 300/300 299/299 295/295
f 298/297 302/301 301/302 297/298
f 299/299 303/303 302/301 298/297
f 300/300 304/304 303/303 299/299
f 306/305 305/306 309/307 310/308
f 307/309 306/305 310/308 311/310
f 308/311 307/309 311/310 312/312
f 310/308 309/307 313/313 314/314
f 311/310 310/308 314/314 315/315
f 312/312 311/310 315/315 316/316
f 314/314 313/313 317/317 318/318
f 315/315 314/314 318/318 319/319
f 316/316 315/315 319/319 320/320
f 318/318 317/317 321/321 322/322
f 319/319 318/318 322/322 323/323
f 320/320 319/319 323/323 324/324
f 322/322 321/321 325/325 326/326
f 323/323 322/322 326/326 327/327
f 324/324 323/323 327/327 328/328
f 326/326 325/325 329/329 330/330
f 327/327 326/326 330/330 331/331
f 328/328 327/327 331/331 332/332
f 330/330 329/329 333/333 334/334
f 331/331 330/330 334/334 335/335
f 332/332 331/331 335/335 336/336
f 338/337 342/338 341/339 337/340
f 339/341 343/342 342/338 338/337
f 340/343 344/344 343/342 339/341
f 342/338 346/345 345/346 341/339
f 343/342 347/347 346/345 342/338
f 344/344 348/348 347/347 343/342
f 346/345 350/349 349/350 345/346
f 347/347 351/351 350/349 346/345
f 348/348 352/352 351/351 347/347
f 350/349 354/353 353/354 349/350
f 351/351 355/355 354/353 350/349
f 352/352 356/356 355/355 351/351
f 354/353 358/357 357/358 353/354
f 355/355 359/359 358/357 354/353
f 356/356 360/360 359/359 355/355
f 358/357 362/361 361/362 357/358
f 359/359 363/363 362/361 358/357
f 360/360 364/364 363/363 359/359
f 362/361 366/365 365/366 361/362
f 363/363 367/367 366/365 362/361
f 364/364 368/368 367/367 363/363
f 370/369 369/370 373/371 374/372
f 371/373 370/369 374/372 375/374
f 372/375 371/373 375/374 376/376
f 374/372 373/371 377/377 378/378
f 375/374 374/372 378/378 379/379
f 376/376 375/374 379/379 380/380
f 378/378 377/377 381/381 382/382
f 379/379 378/378 382/382 383/383
f 380/380 379/379 383/383 384/384
f 382/382 381/381 385/385 386/386
f 383/383 382/382 386/386 387/387
f 384/384 383/383 387/387 388/388
f 386/386 385/385 389/389 390/390
f 387/387 386/386 390/390 391/391
f 388/388 387/387 391/391 392/392
f 390/390 389/389 393/393 394/394
f 391/391 390/390 394/394 395/395
f 392/392 391/391 395/395 396/396
f 394/394 393/393 397/397 398/398
f 395/395 394/394 398/398 399/399
f 396/396 395/395 399/399 400/400
f 402/401 406/402 405/403 401/404
f 403/405 407/406 406/402 402/401
f 404/407 408/408 407/406 403/405
f 406/402 410/409 409/410 405/403
f 407/406 411/411 410/409 406/402
f 408/408 412/412 411/411 407/406
f 410/409 414/413 413/414 409/410
f 411/411 415/415 414/413 410/409
f 412/412 416/416 415/415 411/411
f 414/413 418/417 417/418 413/414
f 415/415 419/419 418/417 414/413
f 416/416 420/420 419/419 415/415
f 418/417 422/421 421/422 417/418
f 419/419 423/423 422/421 418/417
f 420/420 424/424 423/423 419/419
f 422/421 426/425 425/426 421/422
f 423/423 427/427 426/425 422/421
f 424/424 428/428 427/427 423/423
f 426/425 430/429 429/430 425/426
f 427/427 431/431 430/429 426/425
f 428/428 432/432 431/431 427/427
f 434/433 433/434 437/435 438/436
f 435/437 434/433 438/436 439/438
f 436/439 435/437 439/438 440/440
f 438/436 437/435 441/441 442/442
f 439/438 438/436 442/442 443/443
f 440/440 439/438 443/443 444/444
f 442/442 441/441 445/445 446/446
f 443/443 442/442 446/446 447/447
f 444/444 443/443 447/447 448/448
f 446/446 445/445 449/449 450/450
f 447/447 446/446 450/450 451/451
f 448/448 447/447 451/451 452/452
f 450/450 449/449 453/453 454/454
f 451/451 450/450 454/454 455/455
f 452/452 451/451 455/455 456/456
f 454/454 453/453 457/457 458/458
f 455/455 454/454 458/458 459/459
f 456/456 455/455 459/459 460/460
f 458/458 457/457 461/461 462/462
f 459/459 458/458 462/462 463/463
f 460/460 459/459 463/463 464/464
f 466/465 470/466 469/467 465/468
f 467/469 471/470 470/466 466/465
f 468/471 472/472 471/470 467/469
f 470/466 474/473 473/474 469/467
f 471/470 475/475 474/473 470/466
f 472/472 476/476 475/475 471/470
f 474/473 478/477 477/478 473/474
f 475/475 479/479 478/477 474/473
f 476/476 480/480 479/479 475/475
f 478/477 482/481 481/482 477/478
f 479/479 483/483 482/481 478/477
f 480/480 484/484 483/483 479/479
f 482/481 486/485 485/486 481/482
f 483/483 487/487 486/485 482/481
f 484/484 488/488 487/487 483/483
f 486/485 490/489 489/490 485/486
f 487/487 491/491 490/489 486/485
f 488/488 492/492 491/491 487/487
f 490/489 494/493 493/494 489/490
f 491/491 495/495 494/493 490/489
f 492/492 496/496 495/495 491/491
f 498/497 497/498 501/499 502/500
f 499/501 498/497 502/500 503/502
f 500/503 499/501 503/502 504/504
f 502/500 501/499 505/505 506/506
f 503/502 502/500 506/506 507/507
f 504/504 503/502 507/507 508/508
f 506/506 505/505 509/509 510/510
f 507/507 506/506 510/510 511/511
f 508/508 507/507 511/511 512/512
f 510/510 509/509 513/513 514/514
f 511/511 510/510 514/514 515/515
f 512/512 511/511 515/515 516/516
f 514/514 513/513 517/517 518/518
f 515/515 514/514 518/518 519/519
f 516/516 515/515 519/519 520/520
f 518/518 517/517 521/521 522/522
f 519/519 518/518 522/522 523/523
f 520/520 519/519 523/523 524/524
f 522/522 521/521 525/525 526/526
f 523/523 522/522 526/526 527/527
f 524/524 523/523 527/527 528/528
f 530/529 534/530 533/531 529/532
f 531/533 535/534 534/530 530/529
f 532/535 536/536 535/534 531/533
f 534/530 538/537 537/538 533/531
f 535/534 539/539 538/537 534/530
f 536/536 540/540 539/539 535/534
f 538/537 542/541 541/542 537/538
f 539/539 543/543 542/541 538/537
f 540/540 544/544 543/543 539/539
f 542/541 546/545 545/546 541/542
f 543/543 547/547 546/545 542/541
f 544/544 548/548 547/547 543/543
f 546/545 550/549 549/550 545/546
f 547/547 551/551 550/549 546/545
f 548/548 552/552 551/551 547/547
f 550/549 554/553 553/554 549/550
f 551/551 555/555 554/553 550/549
f 552/552 556/556 555/555 551/551
f 554/553 558/557 557/558 553/554
f 555/555 559/559 558/557 554/553
f 556/556 560/560 559/559 555/555
f 558/557 562/561 561/562 557/558
f 559/559 563/563 562/561 558/557
f 560/560 564/564 563/563 559/559
f 562/561 566/565 565/566 561/562
f 563/563 567/567 566/565 562/561
f 564/564 568/568 567/567 563/563
f 570/569 569/570 573/571 574/572
f 571/573 570/569 574/572 575/574
f 572/575 571/573 575/574 576/576
f 574/572 573/571 577/577 578/578
f 575/574 574/572 578/578 579/579
f 576/576 575/574 579/579 580/580
f 578/578 577/577 581/581 582/582
f 579/579 578/578 582/582 583/583
f 580/580 579/579 583/583 584/584
f 582/582 581/581 585/585 586/586
f 583/583 582/582 586/586 587/587
f 584/584 583/583 587/587 588/588
f 586/586 585/585 589/589 590/590
f 587/587 586/586 590/590 591/591
f 588/588 587/587 591/591 592/592
f 590/590 589/589 593/593 594/594
f 591/591 590/590 594/594 595/595
f 592/592 591/591 595/595 596/596
f 594/594 593/593 597/597 598/598
f 595/595 594/594 598/598 599/599
f 596/596 595/595 599/599 600/600
f 598/598 597/597 601/601 602/602
f 599/599 598/598 602/602 603/603
f 600/600 599/599 603/603 604/604
f 602/602 601/601 605/605 606/606
f 603/603 602/602 606/606 607/607
f 604/604 603/603 607/607 608/608
f 610/609 614/610 613/611 609/612
f 611/613 615/614 614/610 610/609
f 612/615 616/616 615/614 611/613
f 614/610 618/617 617/618 613/611
f 615/614 619/619 618/617 614/610
f 616/616 620/620 619/619 615/614
f 618/617 622/621 621/622 617/618
f 619/619 623/623 622/621 618/617
f 620/620 624/624 623/623 619/619
f 622/621 626/625 625/626 621/622
f 623/623 627/627 626/625 622/621
f 624/624 628/628 627/627 623/623
f 626/625 630/629 629/630 625/626
f 627/627 631/631 630/629 626/625
f 628/628 632/632 631/631 627/627
f 630/629 634/633 633/634 629/630
f 631/631 635/635 634/633 630/629
f 632/632 636/636 635/635 631/631
f 634/633 638/637 637/638 633/634
f 635/635 639/639 638/637 634/633
f 636/636 640/640 639/639 635/635
f 638/637 642/641 641/642 637/638
f 639/639 643/643 642/641 638/637
f 640/640 644/644 643/643 639/639
f 642/641 646/645 645/646 641/642
f 643/643 647/647 646/645 642/641
f 644/644 648/648 647/647 643/643
f 650/649 649/650 653/651 654/652
f 651/653 650/649 654/652 655/654
f 652/655 651/653 655/654 656/656
f 654/652 653/651 657/657 658/658
f 655/654 654/652 658/658 659/659
f 656/656 655/654 659/659 660/660
f 658/658 657/657 661/661 662/662
f 659/659 658/658 662/662 663/663
f 660/660 659/659 663/663 664/664
f 662/662 661/661 665/665 666/666
f 663/663 662/662 666/666 667/667
f 664/664 663/663 667/667 668/668
f 666/666 665/665 669/669 670/670
f 667/667 666/666 670/670 671/671
f 668/668 667/667 671/671 672/672
f 670/670 669/669 673/673 674/674
f 671/671 670/670 674/674 675/675
f 672/672 671/671 675/675 676/676
f 674/674 673/673 677/677 678/678
f 675/675 674/674 678/678 679/679
f 676/676 675/675 679/679 680/680
f 678/678 677/677 681/681 682/682
f 679/679 678/678 682/682 683/683
f 680/680 679/679 683/683 684/684
f 682/682 681/681 685/685 686/686
f 683/683 682/682 686/686 687/687
f 684/684 683/683 687/687 688/688
f 690/689 694/690 693/691 689/692
f 691/693 695/694 694/690 690/689
f 692/695 696/696 695/694 691/693
f 694/690 698/697 697/698 693/691
f 695/694 699/699 698/697 694/690
f 696/696 700/700 699/699 695/694
f 698/697 702/701 701/702 697/698
f 699/699 703/703 702/701 698/697
f 700/700 704/704 703/703 699/699
f 702/701 706/705 705/706 701/702
f 703/703 707/707 706/705 702/701
f 704/704 708/708 707/707 703/703
f 706/705 710/709 709/710 705/706
f 707/707 711/711 710/709 706/705
f 708/708 712/712 711/711 707/707
f 710/709 714/713 713/714 709/710
f 711/711 715/715 714/713 710/709
f 712/712 716/716 715/715 711/711
f 714/713 718/717 717/718 713/714
f 715/715 719/719 718/717 714/713
f 716/716 720/720 719/719 715/715
f 718/717 722/721 721/722 717/718
f 719/719 723/723 722/721 718/717
f 720/720 724/724 723/723 719/719
f 722/721 726/725 725/726 721/722
f 723/723 727/727 726/725 722/721
f 724/724 728/728 727/727 723/723
f 730/729 729/730 733/731 734/732
f 731/733 730/729 734/732 735/734
f 732/735 731/733 735/734 736/736
f 734/732 733/731 737/737 738/738
f 735/734 734/732 738/738 739/739
f 736/736 735/734 739/739 740/740
f 738/738 737/737 741/741 742/742
f 739/739 738/738 742/742 743/743
f 740/740 739/739 743/743 744/744
f 742/742 741/741 745/745 746/746
f 743/743 742/742 746/746 747/747
f 744/744 743/743 747/747 748/748
f 746/746 745/745 749/749 750/750
f 747/747 746/746 750/750 751/751
f 748/748 747/747 751/751 752/752
f 750/750 749/749 753/753 754/754
f 751/751 750/750 754/754 755/755
f 752/752 751/751 755/755 756/756
f 754/754 753/753 757/757 758/758
f 755/755 754/754 758/758 759/759
f 756/756 755/755 759/759 760/760
f 758/758 757/757 761/761 762/762
f 759/759 758/758 762/762 763/763
f 760/760 759/759 763/763 764/764
f 762/762 761/761 765/765 766/766
f 763/763 762/762 766/766 767/767
f 764/764 763/763 767/767 768/768
f 770/769 774/770 773/771 769/772
f 771/773 775/774 774/770 770/769
f 772/775 776/776 775/774 771/773
f 774/770 778/777 777/778 773/771
f 775/774 779/779 778/777 774/770
f 776/776 780/780 779/779 775/774
f 778/777 782/781 781/782 777/778
f 779/779 783/783 782/781 778/777
f 780/780 784/784 783/783 779/779
f 782/781 786/785 785/786 781/782
f 783/783 787/787 786/785 782/781
f 784/784 788/788 787/787 783/783
f 786/785 790/789 789/790 785/786
f 787/787 791/791 790/789 786/785
f 788/788 792/792 791/791 787/787
f 790/789 794/793 793/794 789/790
f 791/791 795/795 794/793 790/789
f 792/792 796/796 795/795 791/791
f 794/793 798/797 797/798 793/794
f 795/795 799/799 798/797 794/793
f 796/796 800/800 799/799 795/795
f 798/797 802/801 801/802 797/798
f 799/799 803/803 802/801 798/797
f 800/800 804/804 803/803 799/799
f 802/801 806/805 805/806 801/802
f 803/803 807/807 806/805 802/801
f 804/804 808/808 807/807 803/803
f 810/809 809/810 813/811 814/812
f 811/813 810/809 814/812 815/814
f 812/815 811/813 815/814 816/816
f 814/812 813/811 817/817 818/818
f 815/814 814/812 818/818 819/819
f 816/816 815/814 819/819 820/820
f 818/818 817/817 821/821 822/822
f 819/819 818/818 822/822 823/823
f 820/820 819/819 823/823 824/824
f 822/822 821/821 825/825 826/826
f 823/823 822/822 826/826 827/827
f 824/824 823/823 827/827 828/828
f 826/826 825/825 829/829 830/830
f 827/827 826/826 830/830 831/831
f 828/828 827/827 831/831 832/832
f 830/830 829/829 833/833 834/834
f 831/831 830/830 834/834 835/835
f 832/832 831/831 835/835 836/836
f 834/834 833/833 837/837 838/838
f 835/835 834/834 838/838 839/839
f 836/836 835/835 839/839 840/840
f 838/838 837/837 841/841 842/842
f 839/839 838/838 842/842 843/843
f 840/840 839/839 843/843 844/844
f 842/842 841/841 845/845 846/846
f 843/843 842/842 846/846 847/847
f 844/844 843/843 847/847 848/848