# LibreViesGuard — maillage humanoïde original blindé, CC0
# Généré par compilation/outils/generer_garde_librevies.py
mtllib LibreViesGuard.mtl
v -0.020000 0.060000 0.050000
v -0.032179 0.060000 0.145671
v -0.066863 0.060000 0.226777
v -0.118771 0.060000 0.280970
v -0.180000 0.060000 0.300000
v -0.241229 0.060000 0.280970
v -0.293137 0.060000 0.226777
v -0.327821 0.060000 0.145671
v -0.340000 0.060000 0.050000
v -0.327821 0.060000 -0.045671
v -0.293137 0.060000 -0.126777
v -0.241229 0.060000 -0.180970
v -0.180000 0.060000 -0.200000
v -0.118771 0.060000 -0.180970
v -0.066863 0.060000 -0.126777
v -0.032179 0.060000 -0.045671
v -0.040000 0.300000 0.040000
v -0.050657 0.300000 0.120364
v -0.081005 0.300000 0.188492
v -0.126424 0.300000 0.234015
v -0.180000 0.300000 0.250000
v -0.233576 0.300000 0.234015
v -0.278995 0.300000 0.188492
v -0.309343 0.300000 0.120364
v -0.320000 0.300000 0.040000
v -0.309343 0.300000 -0.040364
v -0.278995 0.300000 -0.108492
v -0.233576 0.300000 -0.154015
v -0.180000 0.300000 -0.170000
v -0.126424 0.300000 -0.154015
v -0.081005 0.300000 -0.108492
v -0.050657 0.300000 -0.040364
v -0.180000 0.060000 0.050000
v -0.180000 0.300000 0.040000
v -0.050000 0.300000 0.000000
v -0.059896 0.300000 0.049749
v -0.088076 0.300000 0.091924
v -0.130251 0.300000 0.120104
v -0.180000 0.300000 0.130000
v -0.229749 0.300000 0.120104
v -0.271924 0.300000 0.091924
v -0.300104 0.300000 0.049749
v -0.310000 0.300000 0.000000
v -0.300104 0.300000 -0.049749
v -0.271924 0.300000 -0.091924
v -0.229749 0.300000 -0.120104
v -0.180000 0.300000 -0.130000
v -0.130251 0.300000 -0.120104
v -0.088076 0.300000 -0.091924
v -0.059896 0.300000 -0.049749
v -0.035000 0.660000 0.000000
v -0.046037 0.660000 0.055489
v -0.077470 0.660000 0.102530
v -0.124511 0.660000 0.133963
v -0.180000 0.660000 0.145000
v -0.235489 0.660000 0.133963
v -0.282530 0.660000 0.102530
v -0.313963 0.660000 0.055489
v -0.325000 0.660000 0.000000
v -0.313963 0.660000 -0.055489
v -0.282530 0.660000 -0.102530
v -0.235489 0.660000 -0.133963
v -0.180000 0.660000 -0.145000
v -0.124511 0.660000 -0.133963
v -0.077470 0.660000 -0.102530
v -0.046037 0.660000 -0.055489
v -0.180000 0.300000 0.000000
v -0.180000 0.660000 0.000000
v -0.035000 0.660000 0.000000
v -0.046037 0.660000 0.055489
v -0.077470 0.660000 0.102530
v -0.124511 0.660000 0.133963
v -0.180000 0.660000 0.145000
v -0.235489 0.660000 0.133963
v -0.282530 0.660000 0.102530
v -0.313963 0.660000 0.055489
v -0.325000 0.660000 0.000000
v -0.313963 0.660000 -0.055489
v -0.282530 0.660000 -0.102530
v -0.235489 0.660000 -0.133963
v -0.180000 0.660000 -0.145000
v -0.124511 0.660000 -0.133963
v -0.077470 0.660000 -0.102530
v -0.046037 0.660000 -0.055489
v 0.020000 1.120000 0.000000
v 0.004776 1.120000 0.065056
v -0.038579 1.120000 0.120208
v -0.103463 1.120000 0.157060
v -0.180000 1.120000 0.170000
v -0.256537 1.120000 0.157060
v -0.321421 1.120000 0.120208
v -0.364776 1.120000 0.065056
v -0.380000 1.120000 0.000000
v -0.364776 1.120000 -0.065056
v -0.321421 1.120000 -0.120208
v -0.256537 1.120000 -0.157060
v -0.180000 1.120000 -0.170000
v -0.103463 1.120000 -0.157060
v -0.038579 1.120000 -0.120208
v 0.004776 1.120000 -0.065056
v -0.180000 0.660000 0.000000
v -0.180000 1.120000 0.000000
v 0.340000 0.060000 0.050000
v 0.327821 0.060000 0.145671
v 0.293137 0.060000 0.226777
v 0.241229 0.060000 0.280970
v 0.180000 0.060000 0.300000
v 0.118771 0.060000 0.280970
v 0.066863 0.060000 0.226777
v 0.032179 0.060000 0.145671
v 0.020000 0.060000 0.050000
v 0.032179 0.060000 -0.045671
v 0.066863 0.060000 -0.126777
v 0.118771 0.060000 -0.180970
v 0.180000 0.060000 -0.200000
v 0.241229 0.060000 -0.180970
v 0.293137 0.060000 -0.126777
v 0.327821 0.060000 -0.045671
v 0.320000 0.300000 0.040000
v 0.309343 0.300000 0.120364
v 0.278995 0.300000 0.188492
v 0.233576 0.300000 0.234015
v 0.180000 0.300000 0.250000
v 0.126424 0.300000 0.234015
v 0.081005 0.300000 0.188492
v 0.050657 0.300000 0.120364
v 0.040000 0.300000 0.040000
v 0.050657 0.300000 -0.040364
v 0.081005 0.300000 -0.108492
v 0.126424 0.300000 -0.154015
v 0.180000 0.300000 -0.170000
v 0.233576 0.300000 -0.154015
v 0.278995 0.300000 -0.108492
v 0.309343 0.300000 -0.040364
v 0.180000 0.060000 0.050000
v 0.180000 0.300000 0.040000
v 0.310000 0.300000 0.000000
v 0.300104 0.300000 0.049749
v 0.271924 0.300000 0.091924
v 0.229749 0.300000 0.120104
v 0.180000 0.300000 0.130000
v 0.130251 0.300000 0.120104
v 0.088076 0.300000 0.091924
v 0.059896 0.300000 0.049749
v 0.050000 0.300000 0.000000
v 0.059896 0.300000 -0.049749
v 0.088076 0.300000 -0.091924
v 0.130251 0.300000 -0.120104
v 0.180000 0.300000 -0.130000
v 0.229749 0.300000 -0.120104
v 0.271924 0.300000 -0.091924
v 0.300104 0.300000 -0.049749
v 0.325000 0.660000 0.000000
v 0.313963 0.660000 0.055489
v 0.282530 0.660000 0.102530
v 0.235489 0.660000 0.133963
v 0.180000 0.660000 0.145000
v 0.124511 0.660000 0.133963
v 0.077470 0.660000 0.102530
v 0.046037 0.660000 0.055489
v 0.035000 0.660000 0.000000
v 0.046037 0.660000 -0.055489
v 0.077470 0.660000 -0.102530
v 0.124511 0.660000 -0.133963
v 0.180000 0.660000 -0.145000
v 0.235489 0.660000 -0.133963
v 0.282530 0.660000 -0.102530
v 0.313963 0.660000 -0.055489
v 0.180000 0.300000 0.000000
v 0.180000 0.660000 0.000000
v 0.325000 0.660000 0.000000
v 0.313963 0.660000 0.055489
v 0.282530 0.660000 0.102530
v 0.235489 0.660000 0.133963
v 0.180000 0.660000 0.145000
v 0.124511 0.660000 0.133963
v 0.077470 0.660000 0.102530
v 0.046037 0.660000 0.055489
v 0.035000 0.660000 0.000000
v 0.046037 0.660000 -0.055489
v 0.077470 0.660000 -0.102530
v 0.124511 0.660000 -0.133963
v 0.180000 0.660000 -0.145000
v 0.235489 0.660000 -0.133963
v 0.282530 0.660000 -0.102530
v 0.313963 0.660000 -0.055489
v 0.380000 1.120000 0.000000
v 0.364776 1.120000 0.065056
v 0.321421 1.120000 0.120208
v 0.256537 1.120000 0.157060
v 0.180000 1.120000 0.170000
v 0.103463 1.120000 0.157060
v 0.038579 1.120000 0.120208
v -0.004776 1.120000 0.065056
v -0.020000 1.120000 0.000000
v -0.004776 1.120000 -0.065056
v 0.038579 1.120000 -0.120208
v 0.103463 1.120000 -0.157060
v 0.180000 1.120000 -0.170000
v 0.256537 1.120000 -0.157060
v 0.321421 1.120000 -0.120208
v 0.364776 1.120000 -0.065056
v 0.180000 0.660000 0.000000
v 0.180000 1.120000 0.000000
v 0.370000 1.060000 0.000000
v 0.351891 1.060000 0.061803
v 0.299336 1.060000 0.117557
v 0.217481 1.060000 0.161803
v 0.114336 1.060000 0.190211
v 0.000000 1.060000 0.200000
v -0.114336 1.060000 0.190211
v -0.217481 1.060000 0.161803
v -0.299336 1.060000 0.117557
v -0.351891 1.060000 0.061803
v -0.370000 1.060000 0.000000
v -0.351891 1.060000 -0.061803
v -0.299336 1.060000 -0.117557
v -0.217481 1.060000 -0.161803
v -0.114336 1.060000 -0.190211
v -0.000000 1.060000 -0.200000
v 0.114336 1.060000 -0.190211
v 0.217481 1.060000 -0.161803
v 0.299336 1.060000 -0.117557
v 0.351891 1.060000 -0.061803
v 0.390000 1.160000 0.000000
v 0.370912 1.160000 0.064894
v 0.315517 1.160000 0.123435
v 0.229236 1.160000 0.169894
v 0.120517 1.160000 0.199722
v 0.000000 1.160000 0.210000
v -0.120517 1.160000 0.199722
v -0.229236 1.160000 0.169894
v -0.315517 1.160000 0.123435
v -0.370912 1.160000 0.064894
v -0.390000 1.160000 0.000000
v -0.370912 1.160000 -0.064894
v -0.315517 1.160000 -0.123435
v -0.229236 1.160000 -0.169894
v -0.120517 1.160000 -0.199722
v -0.000000 1.160000 -0.210000
v 0.120517 1.160000 -0.199722
v 0.229236 1.160000 -0.169894
v 0.315517 1.160000 -0.123435
v 0.370912 1.160000 -0.064894
v 0.000000 1.060000 0.000000
v 0.000000 1.160000 0.000000
v 0.345691 1.100000 0.029723
v 0.311852 1.100000 0.086258
v 0.247487 1.100000 0.134350
v 0.158897 1.100000 0.169291
v 0.054752 1.100000 0.187661
v -0.054752 1.100000 0.187661
v -0.158897 1.100000 0.169291
v -0.247487 1.100000 0.134350
v -0.311852 1.100000 0.086258
v -0.345691 1.100000 0.029723
v -0.345691 1.100000 -0.029723
v -0.311852 1.100000 -0.086258
v -0.247487 1.100000 -0.134350
v -0.158897 1.100000 -0.169291
v -0.054752 1.100000 -0.187661
v 0.054752 1.100000 -0.187661
v 0.158897 1.100000 -0.169291
v 0.247487 1.100000 -0.134350
v 0.311852 1.100000 -0.086258
v 0.345691 1.100000 -0.029723
v 0.404952 1.420000 0.034416
v 0.365313 1.420000 0.099878
v 0.289914 1.420000 0.155563
v 0.186136 1.420000 0.196021
v 0.064138 1.420000 0.217291
v -0.064138 1.420000 0.217291
v -0.186136 1.420000 0.196021
v -0.289914 1.420000 0.155563
v -0.365313 1.420000 0.099878
v -0.404952 1.420000 0.034416
v -0.404952 1.420000 -0.034416
v -0.365313 1.420000 -0.099878
v -0.289914 1.420000 -0.155563
v -0.186136 1.420000 -0.196021
v -0.064138 1.420000 -0.217291
v 0.064138 1.420000 -0.217291
v 0.186136 1.420000 -0.196021
v 0.289914 1.420000 -0.155563
v 0.365313 1.420000 -0.099878
v 0.404952 1.420000 -0.034416
v 0.335814 1.700000 0.028158
v 0.302942 1.700000 0.081718
v 0.240416 1.700000 0.127279
v 0.154357 1.700000 0.160381
v 0.053188 1.700000 0.177784
v -0.053188 1.700000 0.177784
v -0.154357 1.700000 0.160381
v -0.240416 1.700000 0.127279
v -0.302942 1.700000 0.081718
v -0.335814 1.700000 0.028158
v -0.335814 1.700000 -0.028158
v -0.302942 1.700000 -0.081718
v -0.240416 1.700000 -0.127279
v -0.154357 1.700000 -0.160381
v -0.053188 1.700000 -0.177784
v 0.053188 1.700000 -0.177784
v 0.154357 1.700000 -0.160381
v 0.240416 1.700000 -0.127279
v 0.302942 1.700000 -0.081718
v 0.335814 1.700000 -0.028158
v 0.000000 1.100000 0.000000
v 0.000000 1.700000 0.000000
v 0.220000 1.270000 0.190000
v 0.190526 1.270000 0.207500
v 0.110000 1.270000 0.220311
v 0.000000 1.270000 0.225000
v -0.110000 1.270000 0.220311
v -0.190526 1.270000 0.207500
v -0.220000 1.270000 0.190000
v -0.190526 1.270000 0.172500
v -0.110000 1.270000 0.159689
v -0.000000 1.270000 0.155000
v 0.110000 1.270000 0.159689
v 0.190526 1.270000 0.172500
v 0.240000 1.550000 0.190000
v 0.207846 1.550000 0.207500
v 0.120000 1.550000 0.220311
v 0.000000 1.550000 0.225000
v -0.120000 1.550000 0.220311
v -0.207846 1.550000 0.207500
v -0.240000 1.550000 0.190000
v -0.207846 1.550000 0.172500
v -0.120000 1.550000 0.159689
v -0.000000 1.550000 0.155000
v 0.120000 1.550000 0.159689
v 0.207846 1.550000 0.172500
v 0.000000 1.270000 0.190000
v 0.000000 1.550000 0.190000
v -0.270000 1.580000 0.000000
v -0.282874 1.580000 0.056405
v -0.318946 1.580000 0.101638
v -0.371072 1.580000 0.126741
v -0.428928 1.580000 0.126741
v -0.481054 1.580000 0.101638
v -0.517126 1.580000 0.056405
v -0.530000 1.580000 0.000000
v -0.517126 1.580000 -0.056405
v -0.481054 1.580000 -0.101638
v -0.428928 1.580000 -0.126741
v -0.371072 1.580000 -0.126741
v -0.318946 1.580000 -0.101638
v -0.282874 1.580000 -0.056405
v -0.365000 1.400000 0.010000
v -0.376389 1.400000 0.059897
v -0.408299 1.400000 0.099911
v -0.454410 1.400000 0.122117
v -0.505590 1.400000 0.122117
v -0.551701 1.400000 0.099911
v -0.583611 1.400000 0.059897
v -0.595000 1.400000 0.010000
v -0.583611 1.400000 -0.039897
v -0.551701 1.400000 -0.079911
v -0.505590 1.400000 -0.102117
v -0.454410 1.400000 -0.102117
v -0.408299 1.400000 -0.079911
v -0.376389 1.400000 -0.039897
v -0.400000 1.580000 0.000000
v -0.480000 1.400000 0.010000
v -0.365000 1.400000 0.010000
v -0.376389 1.400000 0.059897
v -0.408299 1.400000 0.099911
v -0.454410 1.400000 0.122117
v -0.505590 1.400000 0.122117
v -0.551701 1.400000 0.099911
v -0.583611 1.400000 0.059897
v -0.595000 1.400000 0.010000
v -0.583611 1.400000 -0.039897
v -0.551701 1.400000 -0.079911
v -0.505590 1.400000 -0.102117
v -0.454410 1.400000 -0.102117
v -0.408299 1.400000 -0.079911
v -0.376389 1.400000 -0.039897
v -0.470000 1.180000 0.030000
v -0.479903 1.180000 0.073388
v -0.507651 1.180000 0.108183
v -0.547748 1.180000 0.127493
v -0.592252 1.180000 0.127493
v -0.632349 1.180000 0.108183
v -0.660097 1.180000 0.073388
v -0.670000 1.180000 0.030000
v -0.660097 1.180000 -0.013388
v -0.632349 1.180000 -0.048183
v -0.592252 1.180000 -0.067493
v -0.547748 1.180000 -0.067493
v -0.507651 1.180000 -0.048183
v -0.479903 1.180000 -0.013388
v -0.480000 1.400000 0.010000
v -0.570000 1.180000 0.030000
v -0.590000 0.970000 0.040000
v -0.590000 0.970000 0.040000
v -0.590000 0.970000 0.040000
v -0.590000 0.970000 0.040000
v -0.590000 0.970000 0.040000
v -0.590000 0.970000 0.040000
v -0.590000 0.970000 0.040000
v -0.590000 0.970000 0.040000
v -0.590000 0.970000 0.040000
v -0.590000 0.970000 0.040000
v -0.590000 0.970000 0.040000
v -0.590000 0.970000 0.040000
v -0.590000 0.970000 0.040000
v -0.590000 0.970000 0.040000
v -0.535000 0.987417 0.040000
v -0.540447 0.987417 0.061694
v -0.555708 0.987417 0.079092
v -0.577761 0.987417 0.088746
v -0.602239 0.987417 0.088746
v -0.624292 0.987417 0.079092
v -0.639553 0.987417 0.061694
v -0.645000 0.987417 0.040000
v -0.639553 0.987417 0.018306
v -0.624292 0.987417 0.000908
v -0.602239 0.987417 -0.008746
v -0.577761 0.987417 -0.008746
v -0.555708 0.987417 0.000908
v -0.540447 0.987417 0.018306
v -0.494737 1.035000 0.040000
v -0.504171 1.035000 0.077575
v -0.530605 1.035000 0.107709
v -0.568802 1.035000 0.124431
v -0.611198 1.035000 0.124431
v -0.649395 1.035000 0.107709
v -0.675829 1.035000 0.077575
v -0.685263 1.035000 0.040000
v -0.675829 1.035000 0.002425
v -0.649395 1.035000 -0.027709
v -0.611198 1.035000 -0.044431
v -0.568802 1.035000 -0.044431
v -0.530605 1.035000 -0.027709
v -0.504171 1.035000 0.002425
v -0.480000 1.100000 0.040000
v -0.490893 1.100000 0.083388
v -0.521416 1.100000 0.118183
v -0.565523 1.100000 0.137493
v -0.614477 1.100000 0.137493
v -0.658584 1.100000 0.118183
v -0.689107 1.100000 0.083388
v -0.700000 1.100000 0.040000
v -0.689107 1.100000 -0.003388
v -0.658584 1.100000 -0.038183
v -0.614477 1.100000 -0.057493
v -0.565523 1.100000 -0.057493
v -0.521416 1.100000 -0.038183
v -0.490893 1.100000 -0.003388
v -0.494737 1.165000 0.040000
v -0.504171 1.165000 0.077575
v -0.530605 1.165000 0.107709
v -0.568802 1.165000 0.124431
v -0.611198 1.165000 0.124431
v -0.649395 1.165000 0.107709
v -0.675829 1.165000 0.077575
v -0.685263 1.165000 0.040000
v -0.675829 1.165000 0.002425
v -0.649395 1.165000 -0.027709
v -0.611198 1.165000 -0.044431
v -0.568802 1.165000 -0.044431
v -0.530605 1.165000 -0.027709
v -0.504171 1.165000 0.002425
v -0.535000 1.212583 0.040000
v -0.540447 1.212583 0.061694
v -0.555708 1.212583 0.079092
v -0.577761 1.212583 0.088746
v -0.602239 1.212583 0.088746
v -0.624292 1.212583 0.079092
v -0.639553 1.212583 0.061694
v -0.645000 1.212583 0.040000
v -0.639553 1.212583 0.018306
v -0.624292 1.212583 0.000908
v -0.602239 1.212583 -0.008746
v -0.577761 1.212583 -0.008746
v -0.555708 1.212583 0.000908
v -0.540447 1.212583 0.018306
v -0.590000 1.230000 0.040000
v -0.590000 1.230000 0.040000
v -0.590000 1.230000 0.040000
v -0.590000 1.230000 0.040000
v -0.590000 1.230000 0.040000
v -0.590000 1.230000 0.040000
v -0.590000 1.230000 0.040000
v -0.590000 1.230000 0.040000
v -0.590000 1.230000 0.040000
v -0.590000 1.230000 0.040000
v -0.590000 1.230000 0.040000
v -0.590000 1.230000 0.040000
v -0.590000 1.230000 0.040000
v -0.590000 1.230000 0.040000
v -0.490000 1.540000 -0.150000
v -0.250000 1.540000 -0.150000
v -0.250000 1.540000 0.150000
v -0.490000 1.540000 0.150000
v -0.490000 1.680000 -0.150000
v -0.250000 1.680000 -0.150000
v -0.250000 1.680000 0.150000
v -0.490000 1.680000 0.150000
v 0.530000 1.580000 0.000000
v 0.517126 1.580000 0.056405
v 0.481054 1.580000 0.101638
v 0.428928 1.580000 0.126741
v 0.371072 1.580000 0.126741
v 0.318946 1.580000 0.101638
v 0.282874 1.580000 0.056405
v 0.270000 1.580000 0.000000
v 0.282874 1.580000 -0.056405
v 0.318946 1.580000 -0.101638
v 0.371072 1.580000 -0.126741
v 0.428928 1.580000 -0.126741
v 0.481054 1.580000 -0.101638
v 0.517126 1.580000 -0.056405
v 0.595000 1.400000 0.010000
v 0.583611 1.400000 0.059897
v 0.551701 1.400000 0.099911
v 0.505590 1.400000 0.122117
v 0.454410 1.400000 0.122117
v 0.408299 1.400000 0.099911
v 0.376389 1.400000 0.059897
v 0.365000 1.400000 0.010000
v 0.376389 1.400000 -0.039897
v 0.408299 1.400000 -0.079911
v 0.454410 1.400000 -0.102117
v 0.505590 1.400000 -0.102117
v 0.551701 1.400000 -0.079911
v 0.583611 1.400000 -0.039897
v 0.400000 1.580000 0.000000
v 0.480000 1.400000 0.010000
v 0.595000 1.400000 0.010000
v 0.583611 1.400000 0.059897
v 0.551701 1.400000 0.099911
v 0.505590 1.400000 0.122117
v 0.454410 1.400000 0.122117
v 0.408299 1.400000 0.099911
v 0.376389 1.400000 0.059897
v 0.365000 1.400000 0.010000
v 0.376389 1.400000 -0.039897
v 0.408299 1.400000 -0.079911
v 0.454410 1.400000 -0.102117
v 0.505590 1.400000 -0.102117
v 0.551701 1.400000 -0.079911
v 0.583611 1.400000 -0.039897
v 0.670000 1.180000 0.030000
v 0.660097 1.180000 0.073388
v 0.632349 1.180000 0.108183
v 0.592252 1.180000 0.127493
v 0.547748 1.180000 0.127493
v 0.507651 1.180000 0.108183
v 0.479903 1.180000 0.073388
v 0.470000 1.180000 0.030000
v 0.479903 1.180000 -0.013388
v 0.507651 1.180000 -0.048183
v 0.547748 1.180000 -0.067493
v 0.592252 1.180000 -0.067493
v 0.632349 1.180000 -0.048183
v 0.660097 1.180000 -0.013388
v 0.480000 1.400000 0.010000
v 0.570000 1.180000 0.030000
v 0.590000 0.970000 0.040000
v 0.590000 0.970000 0.040000
v 0.590000 0.970000 0.040000
v 0.590000 0.970000 0.040000
v 0.590000 0.970000 0.040000
v 0.590000 0.970000 0.040000
v 0.590000 0.970000 0.040000
v 0.590000 0.970000 0.040000
v 0.590000 0.970000 0.040000
v 0.590000 0.970000 0.040000
v 0.590000 0.970000 0.040000
v 0.590000 0.970000 0.040000
v 0.590000 0.970000 0.040000
v 0.590000 0.970000 0.040000
v 0.645000 0.987417 0.040000
v 0.639553 0.987417 0.061694
v 0.624292 0.987417 0.079092
v 0.602239 0.987417 0.088746
v 0.577761 0.987417 0.088746
v 0.555708 0.987417 0.079092
v 0.540447 0.987417 0.061694
v 0.535000 0.987417 0.040000
v 0.540447 0.987417 0.018306
v 0.555708 0.987417 0.000908
v 0.577761 0.987417 -0.008746
v 0.602239 0.987417 -0.008746
v 0.624292 0.987417 0.000908
v 0.639553 0.987417 0.018306
v 0.685263 1.035000 0.040000
v 0.675829 1.035000 0.077575
v 0.649395 1.035000 0.107709
v 0.611198 1.035000 0.124431
v 0.568802 1.035000 0.124431
v 0.530605 1.035000 0.107709
v 0.504171 1.035000 0.077575
v 0.494737 1.035000 0.040000
v 0.504171 1.035000 0.002425
v 0.530605 1.035000 -0.027709
v 0.568802 1.035000 -0.044431
v 0.611198 1.035000 -0.044431
v 0.649395 1.035000 -0.027709
v 0.675829 1.035000 0.002425
v 0.700000 1.100000 0.040000
v 0.689107 1.100000 0.083388
v 0.658584 1.100000 0.118183
v 0.614477 1.100000 0.137493
v 0.565523 1.100000 0.137493
v 0.521416 1.100000 0.118183
v 0.490893 1.100000 0.083388
v 0.480000 1.100000 0.040000
v 0.490893 1.100000 -0.003388
v 0.521416 1.100000 -0.038183
v 0.565523 1.100000 -0.057493
v 0.614477 1.100000 -0.057493
v 0.658584 1.100000 -0.038183
v 0.689107 1.100000 -0.003388
v 0.685263 1.165000 0.040000
v 0.675829 1.165000 0.077575
v 0.649395 1.165000 0.107709
v 0.611198 1.165000 0.124431
v 0.568802 1.165000 0.124431
v 0.530605 1.165000 0.107709
v 0.504171 1.165000 0.077575
v 0.494737 1.165000 0.040000
v 0.504171 1.165000 0.002425
v 0.530605 1.165000 -0.027709
v 0.568802 1.165000 -0.044431
v 0.611198 1.165000 -0.044431
v 0.649395 1.165000 -0.027709
v 0.675829 1.165000 0.002425
v 0.645000 1.212583 0.040000
v 0.639553 1.212583 0.061694
v 0.624292 1.212583 0.079092
v 0.602239 1.212583 0.088746
v 0.577761 1.212583 0.088746
v 0.555708 1.212583 0.079092
v 0.540447 1.212583 0.061694
v 0.535000 1.212583 0.040000
v 0.540447 1.212583 0.018306
v 0.555708 1.212583 0.000908
v 0.577761 1.212583 -0.008746
v 0.602239 1.212583 -0.008746
v 0.624292 1.212583 0.000908
v 0.639553 1.212583 0.018306
v 0.590000 1.230000 0.040000
v 0.590000 1.230000 0.040000
v 0.590000 1.230000 0.040000
v 0.590000 1.230000 0.040000
v 0.590000 1.230000 0.040000
v 0.590000 1.230000 0.040000
v 0.590000 1.230000 0.040000
v 0.590000 1.230000 0.040000
v 0.590000 1.230000 0.040000
v 0.590000 1.230000 0.040000
v 0.590000 1.230000 0.040000
v 0.590000 1.230000 0.040000
v 0.590000 1.230000 0.040000
v 0.590000 1.230000 0.040000
v 0.250000 1.540000 -0.150000
v 0.490000 1.540000 -0.150000
v 0.490000 1.540000 0.150000
v 0.250000 1.540000 0.150000
v 0.250000 1.680000 -0.150000
v 0.490000 1.680000 -0.150000
v 0.490000 1.680000 0.150000
v 0.250000 1.680000 0.150000
v 0.000000 1.700000 0.010000
v 0.000000 1.700000 0.010000
v 0.000000 1.700000 0.010000
v 0.000000 1.700000 0.010000
v 0.000000 1.700000 0.010000
v 0.000000 1.700000 0.010000
v -0.000000 1.700000 0.010000
v -0.000000 1.700000 0.010000
v -0.000000 1.700000 0.010000
v -0.000000 1.700000 0.010000
v -0.000000 1.700000 0.010000
v -0.000000 1.700000 0.010000
v -0.000000 1.700000 0.010000
v -0.000000 1.700000 0.010000
v -0.000000 1.700000 0.010000
v -0.000000 1.700000 0.010000
v 0.000000 1.700000 0.010000
v 0.000000 1.700000 0.010000
v 0.000000 1.700000 0.010000
v 0.000000 1.700000 0.010000
v 0.072619 1.713704 0.010000
v 0.069065 1.713704 0.029576
v 0.058750 1.713704 0.047235
v 0.042684 1.713704 0.061250
v 0.022441 1.713704 0.070248
v 0.000000 1.713704 0.073348
v -0.022441 1.713704 0.070248
v -0.042684 1.713704 0.061250
v -0.058750 1.713704 0.047235
v -0.069065 1.713704 0.029576
v -0.072619 1.713704 0.010000
v -0.069065 1.713704 -0.009576
v -0.058750 1.713704 -0.027235
v -0.042684 1.713704 -0.041250
v -0.022441 1.713704 -0.050248
v -0.000000 1.713704 -0.053348
v 0.022441 1.713704 -0.050248
v 0.042684 1.713704 -0.041250
v 0.058750 1.713704 -0.027235
v 0.069065 1.713704 -0.009576
v 0.138130 1.753475 0.010000
v 0.131369 1.753475 0.047235
v 0.111749 1.753475 0.080826
v 0.081191 1.753475 0.107483
v 0.042684 1.753475 0.124598
v 0.000000 1.753475 0.130496
v -0.042684 1.753475 0.124598
v -0.081191 1.753475 0.107483
v -0.111749 1.753475 0.080826
v -0.131369 1.753475 0.047235
v -0.138130 1.753475 0.010000
v -0.131369 1.753475 -0.027235
v -0.111749 1.753475 -0.060826
v -0.081191 1.753475 -0.087483
v -0.042684 1.753475 -0.104598
v -0.000000 1.753475 -0.110496
v 0.042684 1.753475 -0.104598
v 0.081191 1.753475 -0.087483
v 0.111749 1.753475 -0.060826
v 0.131369 1.753475 -0.027235
v 0.190119 1.815420 0.010000
v 0.180814 1.815420 0.061250
v 0.153809 1.815420 0.107483
v 0.111749 1.815420 0.144174
v 0.058750 1.815420 0.167731
v 0.000000 1.815420 0.175848
v -0.058750 1.815420 0.167731
v -0.111749 1.815420 0.144174
v -0.153809 1.815420 0.107483
v -0.180814 1.815420 0.061250
v -0.190119 1.815420 0.010000
v -0.180814 1.815420 -0.041250
v -0.153809 1.815420 -0.087483
v -0.111749 1.815420 -0.124174
v -0.058750 1.815420 -0.147731
v -0.000000 1.815420 -0.155848
v 0.058750 1.815420 -0.147731
v 0.111749 1.815420 -0.124174
v 0.153809 1.815420 -0.087483
v 0.180814 1.815420 -0.041250
v 0.223498 1.893475 0.010000
v 0.212559 1.893475 0.070248
v 0.180814 1.893475 0.124598
v 0.131369 1.893475 0.167731
v 0.069065 1.893475 0.195424
v 0.000000 1.893475 0.204967
v -0.069065 1.893475 0.195424
v -0.131369 1.893475 0.167731
v -0.180814 1.893475 0.124598
v -0.212559 1.893475 0.070248
v -0.223498 1.893475 0.010000
v -0.212559 1.893475 -0.050248
v -0.180814 1.893475 -0.104598
v -0.131369 1.893475 -0.147731
v -0.069065 1.893475 -0.175424
v -0.000000 1.893475 -0.184967
v 0.069065 1.893475 -0.175424
v 0.131369 1.893475 -0.147731
v 0.180814 1.893475 -0.104598
v 0.212559 1.893475 -0.050248
v 0.235000 1.980000 0.010000
v 0.223498 1.980000 0.073348
v 0.190119 1.980000 0.130496
v 0.138130 1.980000 0.175848
v 0.072619 1.980000 0.204967
v 0.000000 1.980000 0.215000
v -0.072619 1.980000 0.204967
v -0.138130 1.980000 0.175848
v -0.190119 1.980000 0.130496
v -0.223498 1.980000 0.073348
v -0.235000 1.980000 0.010000
v -0.223498 1.980000 -0.053348
v -0.190119 1.980000 -0.110496
v -0.138130 1.980000 -0.155848
v -0.072619 1.980000 -0.184967
v -0.000000 1.980000 -0.195000
v 0.072619 1.980000 -0.184967
v 0.138130 1.980000 -0.155848
v 0.190119 1.980000 -0.110496
v 0.223498 1.980000 -0.053348
v 0.223498 2.066525 0.010000
v 0.212559 2.066525 0.070248
v 0.180814 2.066525 0.124598
v 0.131369 2.066525 0.167731
v 0.069065 2.066525 0.195424
v 0.000000 2.066525 0.204967
v -0.069065 2.066525 0.195424
v -0.131369 2.066525 0.167731
v -0.180814 2.066525 0.124598
v -0.212559 2.066525 0.070248
v -0.223498 2.066525 0.010000
v -0.212559 2.066525 -0.050248
v -0.180814 2.066525 -0.104598
v -0.131369 2.066525 -0.147731
v -0.069065 2.066525 -0.175424
v -0.000000 2.066525 -0.184967
v 0.069065 2.066525 -0.175424
v 0.131369 2.066525 -0.147731
v 0.180814 2.066525 -0.104598
v 0.212559 2.066525 -0.050248
v 0.190119 2.144580 0.010000
v 0.180814 2.144580 0.061250
v 0.153809 2.144580 0.107483
v 0.111749 2.144580 0.144174
v 0.058750 2.144580 0.167731
v 0.000000 2.144580 0.175848
v -0.058750 2.144580 0.167731
v -0.111749 2.144580 0.144174
v -0.153809 2.144580 0.107483
v -0.180814 2.144580 0.061250
v -0.190119 2.144580 0.010000
v -0.180814 2.144580 -0.041250
v -0.153809 2.144580 -0.087483
v -0.111749 2.144580 -0.124174
v -0.058750 2.144580 -0.147731
v -0.000000 2.144580 -0.155848
v 0.058750 2.144580 -0.147731
v 0.111749 2.144580 -0.124174
v 0.153809 2.144580 -0.087483
v 0.180814 2.144580 -0.041250
v 0.138130 2.206525 0.010000
v 0.131369 2.206525 0.047235
v 0.111749 2.206525 0.080826
v 0.081191 2.206525 0.107483
v 0.042684 2.206525 0.124598
v 0.000000 2.206525 0.130496
v -0.042684 2.206525 0.124598
v -0.081191 2.206525 0.107483
v -0.111749 2.206525 0.080826
v -0.131369 2.206525 0.047235
v -0.138130 2.206525 0.010000
v -0.131369 2.206525 -0.027235
v -0.111749 2.206525 -0.060826
v -0.081191 2.206525 -0.087483
v -0.042684 2.206525 -0.104598
v -0.000000 2.206525 -0.110496
v 0.042684 2.206525 -0.104598
v 0.081191 2.206525 -0.087483
v 0.111749 2.206525 -0.060826
v 0.131369 2.206525 -0.027235
v 0.072619 2.246296 0.010000
v 0.069065 2.246296 0.029576
v 0.058750 2.246296 0.047235
v 0.042684 2.246296 0.061250
v 0.022441 2.246296 0.070248
v 0.000000 2.246296 0.073348
v -0.022441 2.246296 0.070248
v -0.042684 2.246296 0.061250
v -0.058750 2.246296 0.047235
v -0.069065 2.246296 0.029576
v -0.072619 2.246296 0.010000
v -0.069065 2.246296 -0.009576
v -0.058750 2.246296 -0.027235
v -0.042684 2.246296 -0.041250
v -0.022441 2.246296 -0.050248
v -0.000000 2.246296 -0.053348
v 0.022441 2.246296 -0.050248
v 0.042684 2.246296 -0.041250
v 0.058750 2.246296 -0.027235
v 0.069065 2.246296 -0.009576
v 0.000000 2.260000 0.010000
v 0.000000 2.260000 0.010000
v 0.000000 2.260000 0.010000
v 0.000000 2.260000 0.010000
v 0.000000 2.260000 0.010000
v 0.000000 2.260000 0.010000
v -0.000000 2.260000 0.010000
v -0.000000 2.260000 0.010000
v -0.000000 2.260000 0.010000
v -0.000000 2.260000 0.010000
v -0.000000 2.260000 0.010000
v -0.000000 2.260000 0.010000
v -0.000000 2.260000 0.010000
v -0.000000 2.260000 0.010000
v -0.000000 2.260000 0.010000
v -0.000000 2.260000 0.010000
v 0.000000 2.260000 0.010000
v 0.000000 2.260000 0.010000
v 0.000000 2.260000 0.010000
v 0.000000 2.260000 0.010000
v 0.250000 2.080000 -0.010000
v 0.237764 2.080000 0.054894
v 0.202254 2.080000 0.113435
v 0.146946 2.080000 0.159894
v 0.077254 2.080000 0.189722
v 0.000000 2.080000 0.200000
v -0.077254 2.080000 0.189722
v -0.146946 2.080000 0.159894
v -0.202254 2.080000 0.113435
v -0.237764 2.080000 0.054894
v -0.250000 2.080000 -0.010000
v -0.237764 2.080000 -0.074894
v -0.202254 2.080000 -0.133435
v -0.146946 2.080000 -0.179894
v -0.077254 2.080000 -0.209722
v -0.000000 2.080000 -0.220000
v 0.077254 2.080000 -0.209722
v 0.146946 2.080000 -0.179894
v 0.202254 2.080000 -0.133435
v 0.237764 2.080000 -0.074894
v 0.280000 2.250000 -0.010000
v 0.266296 2.250000 0.057984
v 0.226525 2.250000 0.119313
v 0.164580 2.250000 0.167984
v 0.086525 2.250000 0.199232
v 0.000000 2.250000 0.210000
v -0.086525 2.250000 0.199232
v -0.164580 2.250000 0.167984
v -0.226525 2.250000 0.119313
v -0.266296 2.250000 0.057984
v -0.280000 2.250000 -0.010000
v -0.266296 2.250000 -0.077984
v -0.226525 2.250000 -0.139313
v -0.164580 2.250000 -0.187984
v -0.086525 2.250000 -0.219232
v -0.000000 2.250000 -0.230000
v 0.086525 2.250000 -0.219232
v 0.164580 2.250000 -0.187984
v 0.226525 2.250000 -0.139313
v 0.266296 2.250000 -0.077984
v 0.080000 2.340000 -0.010000
v 0.076085 2.340000 0.011631
v 0.064721 2.340000 0.031145
v 0.047023 2.340000 0.046631
v 0.024721 2.340000 0.056574
v 0.000000 2.340000 0.060000
v -0.024721 2.340000 0.056574
v -0.047023 2.340000 0.046631
v -0.064721 2.340000 0.031145
v -0.076085 2.340000 0.011631
v -0.080000 2.340000 -0.010000
v -0.076085 2.340000 -0.031631
v -0.064721 2.340000 -0.051145
v -0.047023 2.340000 -0.066631
v -0.024721 2.340000 -0.076574
v -0.000000 2.340000 -0.080000
v 0.024721 2.340000 -0.076574
v 0.047023 2.340000 -0.066631
v 0.064721 2.340000 -0.051145
v 0.076085 2.340000 -0.031631
v 0.000000 2.080000 -0.010000
v 0.000000 2.340000 -0.010000
v -0.170000 1.960000 0.197500
v 0.170000 1.960000 0.197500
v 0.170000 1.960000 0.232500
v -0.170000 1.960000 0.232500
v -0.170000 2.040000 0.197500
v 0.170000 2.040000 0.197500
v 0.170000 2.040000 0.232500
v -0.170000 2.040000 0.232500
v -0.035000 2.330000 -0.120000
v 0.035000 2.330000 -0.120000
v 0.035000 2.330000 0.120000
v -0.035000 2.330000 0.120000
v -0.035000 2.610000 -0.120000
v 0.035000 2.610000 -0.120000
v 0.035000 2.610000 0.120000
v -0.035000 2.610000 0.120000
v 0.455000 0.200000 0.080000
v 0.448316 0.200000 0.100572
v 0.430816 0.200000 0.113287
v 0.409184 0.200000 0.113287
v 0.391684 0.200000 0.100572
v 0.385000 0.200000 0.080000
v 0.391684 0.200000 0.059428
v 0.409184 0.200000 0.046713
v 0.430816 0.200000 0.046713
v 0.448316 0.200000 0.059428
v 0.455000 2.720000 0.080000
v 0.448316 2.720000 0.100572
v 0.430816 2.720000 0.113287
v 0.409184 2.720000 0.113287
v 0.391684 2.720000 0.100572
v 0.385000 2.720000 0.080000
v 0.391684 2.720000 0.059428
v 0.409184 2.720000 0.046713
v 0.430816 2.720000 0.046713
v 0.448316 2.720000 0.059428
v 0.420000 0.200000 0.080000
v 0.420000 2.720000 0.080000
v 0.365000 2.540000 -0.020000
v 0.475000 2.540000 -0.020000
v 0.475000 2.540000 0.180000
v 0.365000 2.540000 0.180000
v 0.365000 3.020000 -0.020000
v 0.475000 3.020000 -0.020000
v 0.475000 3.020000 0.180000
v 0.365000 3.020000 0.180000
v 0.140000 2.530000 0.040000
v 0.420000 2.530000 0.040000
v 0.420000 2.530000 0.120000
v 0.140000 2.530000 0.120000
v 0.140000 2.630000 0.040000
v 0.420000 2.630000 0.040000
v 0.420000 2.630000 0.120000
v 0.140000 2.630000 0.120000
v 0.510000 2.970000 0.080000
v 0.492812 2.970000 0.132901
v 0.447812 2.970000 0.165595
v 0.392188 2.970000 0.165595
v 0.347188 2.970000 0.132901
v 0.330000 2.970000 0.080000
v 0.347188 2.970000 0.027099
v 0.392188 2.970000 -0.005595
v 0.447812 2.970000 -0.005595
v 0.492812 2.970000 0.027099
v 0.435000 3.160000 0.080000
v 0.432135 3.160000 0.088817
v 0.424635 3.160000 0.094266
v 0.415365 3.160000 0.094266
v 0.407865 3.160000 0.088817
v 0.405000 3.160000 0.080000
v 0.407865 3.160000 0.071183
v 0.415365 3.160000 0.065734
v 0.424635 3.160000 0.065734
v 0.432135 3.160000 0.071183
v 0.420000 2.970000 0.080000
v 0.420000 3.160000 0.080000
o Guard_Boot_L
usemtl GuardBoots
f 1 18 2
f 1 17 18
f 2 19 3
f 2 18 19
f 3 20 4
f 3 19 20
f 4 21 5
f 4 20 21
f 5 22 6
f 5 21 22
f 6 23 7
f 6 22 23
f 7 24 8
f 7 23 24
f 8 25 9
f 8 24 25
f 9 26 10
f 9 25 26
f 10 27 11
f 10 26 27
f 11 28 12
f 11 27 28
f 12 29 13
f 12 28 29
f 13 30 14
f 13 29 30
f 14 31 15
f 14 30 31
f 15 32 16
f 15 31 32
f 16 17 1
f 16 32 17
f 33 1 2
f 34 18 17
f 33 2 3
f 34 19 18
f 33 3 4
f 34 20 19
f 33 4 5
f 34 21 20
f 33 5 6
f 34 22 21
f 33 6 7
f 34 23 22
f 33 7 8
f 34 24 23
f 33 8 9
f 34 25 24
f 33 9 10
f 34 26 25
f 33 10 11
f 34 27 26
f 33 11 12
f 34 28 27
f 33 12 13
f 34 29 28
f 33 13 14
f 34 30 29
f 33 14 15
f 34 31 30
f 33 15 16
f 34 32 31
f 33 16 1
f 34 17 32
o Guard_LegLower_L
usemtl GuardArmor
f 35 52 36
f 35 51 52
f 36 53 37
f 36 52 53
f 37 54 38
f 37 53 54
f 38 55 39
f 38 54 55
f 39 56 40
f 39 55 56
f 40 57 41
f 40 56 57
f 41 58 42
f 41 57 58
f 42 59 43
f 42 58 59
f 43 60 44
f 43 59 60
f 44 61 45
f 44 60 61
f 45 62 46
f 45 61 62
f 46 63 47
f 46 62 63
f 47 64 48
f 47 63 64
f 48 65 49
f 48 64 65
f 49 66 50
f 49 65 66
f 50 51 35
f 50 66 51
f 67 35 36
f 68 52 51
f 67 36 37
f 68 53 52
f 67 37 38
f 68 54 53
f 67 38 39
f 68 55 54
f 67 39 40
f 68 56 55
f 67 40 41
f 68 57 56
f 67 41 42
f 68 58 57
f 67 42 43
f 68 59 58
f 67 43 44
f 68 60 59
f 67 44 45
f 68 61 60
f 67 45 46
f 68 62 61
f 67 46 47
f 68 63 62
f 67 47 48
f 68 64 63
f 67 48 49
f 68 65 64
f 67 49 50
f 68 66 65
f 67 50 35
f 68 51 66
o Guard_LegUpper_L
usemtl GuardCloth
f 69 86 70
f 69 85 86
f 70 87 71
f 70 86 87
f 71 88 72
f 71 87 88
f 72 89 73
f 72 88 89
f 73 90 74
f 73 89 90
f 74 91 75
f 74 90 91
f 75 92 76
f 75 91 92
f 76 93 77
f 76 92 93
f 77 94 78
f 77 93 94
f 78 95 79
f 78 94 95
f 79 96 80
f 79 95 96
f 80 97 81
f 80 96 97
f 81 98 82
f 81 97 98
f 82 99 83
f 82 98 99
f 83 100 84
f 83 99 100
f 84 85 69
f 84 100 85
f 101 69 70
f 102 86 85
f 101 70 71
f 102 87 86
f 101 71 72
f 102 88 87
f 101 72 73
f 102 89 88
f 101 73 74
f 102 90 89
f 101 74 75
f 102 91 90
f 101 75 76
f 102 92 91
f 101 76 77
f 102 93 92
f 101 77 78
f 102 94 93
f 101 78 79
f 102 95 94
f 101 79 80
f 102 96 95
f 101 80 81
f 102 97 96
f 101 81 82
f 102 98 97
f 101 82 83
f 102 99 98
f 101 83 84
f 102 100 99
f 101 84 69
f 102 85 100
o Guard_Boot_R
usemtl GuardBoots
f 103 120 104
f 103 119 120
f 104 121 105
f 104 120 121
f 105 122 106
f 105 121 122
f 106 123 107
f 106 122 123
f 107 124 108
f 107 123 124
f 108 125 109
f 108 124 125
f 109 126 110
f 109 125 126
f 110 127 111
f 110 126 127
f 111 128 112
f 111 127 128
f 112 129 113
f 112 128 129
f 113 130 114
f 113 129 130
f 114 131 115
f 114 130 131
f 115 132 116
f 115 131 132
f 116 133 117
f 116 132 133
f 117 134 118
f 117 133 134
f 118 119 103
f 118 134 119
f 135 103 104
f 136 120 119
f 135 104 105
f 136 121 120
f 135 105 106
f 136 122 121
f 135 106 107
f 136 123 122
f 135 107 108
f 136 124 123
f 135 108 109
f 136 125 124
f 135 109 110
f 136 126 125
f 135 110 111
f 136 127 126
f 135 111 112
f 136 128 127
f 135 112 113
f 136 129 128
f 135 113 114
f 136 130 129
f 135 114 115
f 136 131 130
f 135 115 116
f 136 132 131
f 135 116 117
f 136 133 132
f 135 117 118
f 136 134 133
f 135 118 103
f 136 119 134
o Guard_LegLower_R
usemtl GuardArmor
f 137 154 138
f 137 153 154
f 138 155 139
f 138 154 155
f 139 156 140
f 139 155 156
f 140 157 141
f 140 156 157
f 141 158 142
f 141 157 158
f 142 159 143
f 142 158 159
f 143 160 144
f 143 159 160
f 144 161 145
f 144 160 161
f 145 162 146
f 145 161 162
f 146 163 147
f 146 162 163
f 147 164 148
f 147 163 164
f 148 165 149
f 148 164 165
f 149 166 150
f 149 165 166
f 150 167 151
f 150 166 167
f 151 168 152
f 151 167 168
f 152 153 137
f 152 168 153
f 169 137 138
f 170 154 153
f 169 138 139
f 170 155 154
f 169 139 140
f 170 156 155
f 169 140 141
f 170 157 156
f 169 141 142
f 170 158 157
f 169 142 143
f 170 159 158
f 169 143 144
f 170 160 159
f 169 144 145
f 170 161 160
f 169 145 146
f 170 162 161
f 169 146 147
f 170 163 162
f 169 147 148
f 170 164 163
f 169 148 149
f 170 165 164
f 169 149 150
f 170 166 165
f 169 150 151
f 170 167 166
f 169 151 152
f 170 168 167
f 169 152 137
f 170 153 168
o Guard_LegUpper_R
usemtl GuardCloth
f 171 188 172
f 171 187 188
f 172 189 173
f 172 188 189
f 173 190 174
f 173 189 190
f 174 191 175
f 174 190 191
f 175 192 176
f 175 191 192
f 176 193 177
f 176 192 193
f 177 194 178
f 177 193 194
f 178 195 179
f 178 194 195
f 179 196 180
f 179 195 196
f 180 197 181
f 180 196 197
f 181 198 182
f 181 197 198
f 182 199 183
f 182 198 199
f 183 200 184
f 183 199 200
f 184 201 185
f 184 200 201
f 185 202 186
f 185 201 202
f 186 187 171
f 186 202 187
f 203 171 172
f 204 188 187
f 203 172 173
f 204 189 188
f 203 173 174
f 204 190 189
f 203 174 175
f 204 191 190
f 203 175 176
f 204 192 191
f 203 176 177
f 204 193 192
f 203 177 178
f 204 194 193
f 203 178 179
f 204 195 194
f 203 179 180
f 204 196 195
f 203 180 181
f 204 197 196
f 203 181 182
f 204 198 197
f 203 182 183
f 204 199 198
f 203 183 184
f 204 200 199
f 203 184 185
f 204 201 200
f 203 185 186
f 204 202 201
f 203 186 171
f 204 187 202
o Guard_Belt
usemtl GuardLeather
f 205 226 206
f 205 225 226
f 206 227 207
f 206 226 227
f 207 228 208
f 207 227 228
f 208 229 209
f 208 228 229
f 209 230 210
f 209 229 230
f 210 231 211
f 210 230 231
f 211 232 212
f 211 231 232
f 212 233 213
f 212 232 233
f 213 234 214
f 213 233 234
f 214 235 215
f 214 234 235
f 215 236 216
f 215 235 236
f 216 237 217
f 216 236 237
f 217 238 218
f 217 237 238
f 218 239 219
f 218 238 239
f 219 240 220
f 219 239 240
f 220 241 221
f 220 240 241
f 221 242 222
f 221 241 242
f 222 243 223
f 222 242 243
f 223 244 224
f 223 243 244
f 224 225 205
f 224 244 225
f 245 205 206
f 246 226 225
f 245 206 207
f 246 227 226
f 245 207 208
f 246 228 227
f 245 208 209
f 246 229 228
f 245 209 210
f 246 230 229
f 245 210 211
f 246 231 230
f 245 211 212
f 246 232 231
f 245 212 213
f 246 233 232
f 245 213 214
f 246 234 233
f 245 214 215
f 246 235 234
f 245 215 216
f 246 236 235
f 245 216 217
f 246 237 236
f 245 217 218
f 246 238 237
f 245 218 219
f 246 239 238
f 245 219 220
f 246 240 239
f 245 220 221
f 246 241 240
f 245 221 222
f 246 242 241
f 245 222 223
f 246 243 242
f 245 223 224
f 246 244 243
f 245 224 205
f 246 225 244
o Guard_Torso
usemtl GuardArmor
f 247 268 248
f 247 267 268
f 248 269 249
f 248 268 269
f 249 270 250
f 249 269 270
f 250 271 251
f 250 270 271
f 251 272 252
f 251 271 272
f 252 273 253
f 252 272 273
f 253 274 254
f 253 273 274
f 254 275 255
f 254 274 275
f 255 276 256
f 255 275 276
f 256 277 257
f 256 276 277
f 257 278 258
f 257 277 278
f 258 279 259
f 258 278 279
f 259 280 260
f 259 279 280
f 260 281 261
f 260 280 281
f 261 282 262
f 261 281 282
f 262 283 263
f 262 282 283
f 263 284 264
f 263 283 284
f 264 285 265
f 264 284 285
f 265 286 266
f 265 285 286
f 266 267 247
f 266 286 267
f 267 288 268
f 267 287 288
f 268 289 269
f 268 288 289
f 269 290 270
f 269 289 290
f 270 291 271
f 270 290 291
f 271 292 272
f 271 291 292
f 272 293 273
f 272 292 293
f 273 294 274
f 273 293 294
f 274 295 275
f 274 294 295
f 275 296 276
f 275 295 296
f 276 297 277
f 276 296 297
f 277 298 278
f 277 297 298
f 278 299 279
f 278 298 299
f 279 300 280
f 279 299 300
f 280 301 281
f 280 300 301
f 281 302 282
f 281 301 302
f 282 303 283
f 282 302 303
f 283 304 284
f 283 303 304
f 284 305 285
f 284 304 305
f 285 306 286
f 285 305 306
f 286 287 267
f 286 306 287
f 307 247 248
f 308 288 287
f 307 248 249
f 308 289 288
f 307 249 250
f 308 290 289
f 307 250 251
f 308 291 290
f 307 251 252
f 308 292 291
f 307 252 253
f 308 293 292
f 307 253 254
f 308 294 293
f 307 254 255
f 308 295 294
f 307 255 256
f 308 296 295
f 307 256 257
f 308 297 296
f 307 257 258
f 308 298 297
f 307 258 259
f 308 299 298
f 307 259 260
f 308 300 299
f 307 260 261
f 308 301 300
f 307 261 262
f 308 302 301
f 307 262 263
f 308 303 302
f 307 263 264
f 308 304 303
f 307 264 265
f 308 305 304
f 307 265 266
f 308 306 305
f 307 266 247
f 308 287 306
o Guard_ChestPlate
usemtl GuardArmorLight
f 309 322 310
f 309 321 322
f 310 323 311
f 310 322 323
f 311 324 312
f 311 323 324
f 312 325 313
f 312 324 325
f 313 326 314
f 313 325 326
f 314 327 315
f 314 326 327
f 315 328 316
f 315 327 328
f 316 329 317
f 316 328 329
f 317 330 318
f 317 329 330
f 318 331 319
f 318 330 331
f 319 332 320
f 319 331 332
f 320 321 309
f 320 332 321
f 333 309 310
f 334 322 321
f 333 310 311
f 334 323 322
f 333 311 312
f 334 324 323
f 333 312 313
f 334 325 324
f 333 313 314
f 334 326 325
f 333 314 315
f 334 327 326
f 333 315 316
f 334 328 327
f 333 316 317
f 334 329 328
f 333 317 318
f 334 330 329
f 333 318 319
f 334 331 330
f 333 319 320
f 334 332 331
f 333 320 309
f 334 321 332
o Guard_ArmUpper_L
usemtl GuardArmorLight
f 335 350 336
f 335 349 350
f 336 351 337
f 336 350 351
f 337 352 338
f 337 351 352
f 338 353 339
f 338 352 353
f 339 354 340
f 339 353 354
f 340 355 341
f 340 354 355
f 341 356 342
f 341 355 356
f 342 357 343
f 342 356 357
f 343 358 344
f 343 357 358
f 344 359 345
f 344 358 359
f 345 360 346
f 345 359 360
f 346 361 347
f 346 360 361
f 347 362 348
f 347 361 362
f 348 349 335
f 348 362 349
f 363 335 336
f 364 350 349
f 363 336 337
f 364 351 350
f 363 337 338
f 364 352 351
f 363 338 339
f 364 353 352
f 363 339 340
f 364 354 353
f 363 340 341
f 364 355 354
f 363 341 342
f 364 356 355
f 363 342 343
f 364 357 356
f 363 343 344
f 364 358 357
f 363 344 345
f 364 359 358
f 363 345 346
f 364 360 359
f 363 346 347
f 364 361 360
f 363 347 348
f 364 362 361
f 363 348 335
f 364 349 362
o Guard_ArmLower_L
usemtl GuardArmor
f 365 380 366
f 365 379 380
f 366 381 367
f 366 380 381
f 367 382 368
f 367 381 382
f 368 383 369
f 368 382 383
f 369 384 370
f 369 383 384
f 370 385 371
f 370 384 385
f 371 386 372
f 371 385 386
f 372 387 373
f 372 386 387
f 373 388 374
f 373 387 388
f 374 389 375
f 374 388 389
f 375 390 376
f 375 389 390
f 376 391 377
f 376 390 391
f 377 392 378
f 377 391 392
f 378 379 365
f 378 392 379
f 393 365 366
f 394 380 379
f 393 366 367
f 394 381 380
f 393 367 368
f 394 382 381
f 393 368 369
f 394 383 382
f 393 369 370
f 394 384 383
f 393 370 371
f 394 385 384
f 393 371 372
f 394 386 385
f 393 372 373
f 394 387 386
f 393 373 374
f 394 388 387
f 393 374 375
f 394 389 388
f 393 375 376
f 394 390 389
f 393 376 377
f 394 391 390
f 393 377 378
f 394 392 391
f 393 378 365
f 394 379 392
o Guard_Glove_L
usemtl GuardLeather
f 395 396 410
f 395 410 409
f 396 397 411
f 396 411 410
f 397 398 412
f 397 412 411
f 398 399 413
f 398 413 412
f 399 400 414
f 399 414 413
f 400 401 415
f 400 415 414
f 401 402 416
f 401 416 415
f 402 403 417
f 402 417 416
f 403 404 418
f 403 418 417
f 404 405 419
f 404 419 418
f 405 406 420
f 405 420 419
f 406 407 421
f 406 421 420
f 407 408 422
f 407 422 421
f 408 395 409
f 408 409 422
f 409 410 424
f 409 424 423
f 410 411 425
f 410 425 424
f 411 412 426
f 411 426 425
f 412 413 427
f 412 427 426
f 413 414 428
f 413 428 427
f 414 415 429
f 414 429 428
f 415 416 430
f 415 430 429
f 416 417 431
f 416 431 430
f 417 418 432
f 417 432 431
f 418 419 433
f 418 433 432
f 419 420 434
f 419 434 433
f 420 421 435
f 420 435 434
f 421 422 436
f 421 436 435
f 422 409 423
f 422 423 436
f 423 424 438
f 423 438 437
f 424 425 439
f 424 439 438
f 425 426 440
f 425 440 439
f 426 427 441
f 426 441 440
f 427 428 442
f 427 442 441
f 428 429 443
f 428 443 442
f 429 430 444
f 429 444 443
f 430 431 445
f 430 445 444
f 431 432 446
f 431 446 445
f 432 433 447
f 432 447 446
f 433 434 448
f 433 448 447
f 434 435 449
f 434 449 448
f 435 436 450
f 435 450 449
f 436 423 437
f 436 437 450
f 437 438 452
f 437 452 451
f 438 439 453
f 438 453 452
f 439 440 454
f 439 454 453
f 440 441 455
f 440 455 454
f 441 442 456
f 441 456 455
f 442 443 457
f 442 457 456
f 443 444 458
f 443 458 457
f 444 445 459
f 444 459 458
f 445 446 460
f 445 460 459
f 446 447 461
f 446 461 460
f 447 448 462
f 447 462 461
f 448 449 463
f 448 463 462
f 449 450 464
f 449 464 463
f 450 437 451
f 450 451 464
f 451 452 466
f 451 466 465
f 452 453 467
f 452 467 466
f 453 454 468
f 453 468 467
f 454 455 469
f 454 469 468
f 455 456 470
f 455 470 469
f 456 457 471
f 456 471 470
f 457 458 472
f 457 472 471
f 458 459 473
f 458 473 472
f 459 460 474
f 459 474 473
f 460 461 475
f 460 475 474
f 461 462 476
f 461 476 475
f 462 463 477
f 462 477 476
f 463 464 478
f 463 478 477
f 464 451 465
f 464 465 478
f 465 466 480
f 465 480 479
f 466 467 481
f 466 481 480
f 467 468 482
f 467 482 481
f 468 469 483
f 468 483 482
f 469 470 484
f 469 484 483
f 470 471 485
f 470 485 484
f 471 472 486
f 471 486 485
f 472 473 487
f 472 487 486
f 473 474 488
f 473 488 487
f 474 475 489
f 474 489 488
f 475 476 490
f 475 490 489
f 476 477 491
f 476 491 490
f 477 478 492
f 477 492 491
f 478 465 479
f 478 479 492
o Guard_Shoulder_L
usemtl GuardArmorLight
f 493 496 495
f 493 495 494
f 497 498 499
f 497 499 500
f 493 494 498
f 493 498 497
f 496 500 499
f 496 499 495
f 494 495 499
f 494 499 498
f 493 497 500
f 493 500 496
o Guard_ArmUpper_R
usemtl GuardArmorLight
f 501 516 502
f 501 515 516
f 502 517 503
f 502 516 517
f 503 518 504
f 503 517 518
f 504 519 505
f 504 518 519
f 505 520 506
f 505 519 520
f 506 521 507
f 506 520 521
f 507 522 508
f 507 521 522
f 508 523 509
f 508 522 523
f 509 524 510
f 509 523 524
f 510 525 511
f 510 524 525
f 511 526 512
f 511 525 526
f 512 527 513
f 512 526 527
f 513 528 514
f 513 527 528
f 514 515 501
f 514 528 515
f 529 501 502
f 530 516 515
f 529 502 503
f 530 517 516
f 529 503 504
f 530 518 517
f 529 504 505
f 530 519 518
f 529 505 506
f 530 520 519
f 529 506 507
f 530 521 520
f 529 507 508
f 530 522 521
f 529 508 509
f 530 523 522
f 529 509 510
f 530 524 523
f 529 510 511
f 530 525 524
f 529 511 512
f 530 526 525
f 529 512 513
f 530 527 526
f 529 513 514
f 530 528 527
f 529 514 501
f 530 515 528
o Guard_ArmLower_R
usemtl GuardArmor
f 531 546 532
f 531 545 546
f 532 547 533
f 532 546 547
f 533 548 534
f 533 547 548
f 534 549 535
f 534 548 549
f 535 550 536
f 535 549 550
f 536 551 537
f 536 550 551
f 537 552 538
f 537 551 552
f 538 553 539
f 538 552 553
f 539 554 540
f 539 553 554
f 540 555 541
f 540 554 555
f 541 556 542
f 541 555 556
f 542 557 543
f 542 556 557
f 543 558 544
f 543 557 558
f 544 545 531
f 544 558 545
f 559 531 532
f 560 546 545
f 559 532 533
f 560 547 546
f 559 533 534
f 560 548 547
f 559 534 535
f 560 549 548
f 559 535 536
f 560 550 549
f 559 536 537
f 560 551 550
f 559 537 538
f 560 552 551
f 559 538 539
f 560 553 552
f 559 539 540
f 560 554 553
f 559 540 541
f 560 555 554
f 559 541 542
f 560 556 555
f 559 542 543
f 560 557 556
f 559 543 544
f 560 558 557
f 559 544 531
f 560 545 558
o Guard_Glove_R
usemtl GuardLeather
f 561 562 576
f 561 576 575
f 562 563 577
f 562 577 576
f 563 564 578
f 563 578 577
f 564 565 579
f 564 579 578
f 565 566 580
f 565 580 579
f 566 567 581
f 566 581 580
f 567 568 582
f 567 582 581
f 568 569 583
f 568 583 582
f 569 570 584
f 569 584 583
f 570 571 585
f 570 585 584
f 571 572 586
f 571 586 585
f 572 573 587
f 572 587 586
f 573 574 588
f 573 588 587
f 574 561 575
f 574 575 588
f 575 576 590
f 575 590 589
f 576 577 591
f 576 591 590
f 577 578 592
f 577 592 591
f 578 579 593
f 578 593 592
f 579 580 594
f 579 594 593
f 580 581 595
f 580 595 594
f 581 582 596
f 581 596 595
f 582 583 597
f 582 597 596
f 583 584 598
f 583 598 597
f 584 585 599
f 584 599 598
f 585 586 600
f 585 600 599
f 586 587 601
f 586 601 600
f 587 588 602
f 587 602 601
f 588 575 589
f 588 589 602
f 589 590 604
f 589 604 603
f 590 591 605
f 590 605 604
f 591 592 606
f 591 606 605
f 592 593 607
f 592 607 606
f 593 594 608
f 593 608 607
f 594 595 609
f 594 609 608
f 595 596 610
f 595 610 609
f 596 597 611
f 596 611 610
f 597 598 612
f 597 612 611
f 598 599 613
f 598 613 612
f 599 600 614
f 599 614 613
f 600 601 615
f 600 615 614
f 601 602 616
f 601 616 615
f 602 589 603
f 602 603 616
f 603 604 618
f 603 618 617
f 604 605 619
f 604 619 618
f 605 606 620
f 605 620 619
f 606 607 621
f 606 621 620
f 607 608 622
f 607 622 621
f 608 609 623
f 608 623 622
f 609 610 624
f 609 624 623
f 610 611 625
f 610 625 624
f 611 612 626
f 611 626 625
f 612 613 627
f 612 627 626
f 613 614 628
f 613 628 627
f 614 615 629
f 614 629 628
f 615 616 630
f 615 630 629
f 616 603 617
f 616 617 630
f 617 618 632
f 617 632 631
f 618 619 633
f 618 633 632
f 619 620 634
f 619 634 633
f 620 621 635
f 620 635 634
f 621 622 636
f 621 636 635
f 622 623 637
f 622 637 636
f 623 624 638
f 623 638 637
f 624 625 639
f 624 639 638
f 625 626 640
f 625 640 639
f 626 627 641
f 626 641 640
f 627 628 642
f 627 642 641
f 628 629 643
f 628 643 642
f 629 630 644
f 629 644 643
f 630 617 631
f 630 631 644
f 631 632 646
f 631 646 645
f 632 633 647
f 632 647 646
f 633 634 648
f 633 648 647
f 634 635 649
f 634 649 648
f 635 636 650
f 635 650 649
f 636 637 651
f 636 651 650
f 637 638 652
f 637 652 651
f 638 639 653
f 638 653 652
f 639 640 654
f 639 654 653
f 640 641 655
f 640 655 654
f 641 642 656
f 641 656 655
f 642 643 657
f 642 657 656
f 643 644 658
f 643 658 657
f 644 631 645
f 644 645 658
o Guard_Shoulder_R
usemtl GuardArmorLight
f 659 662 661
f 659 661 660
f 663 664 665
f 663 665 666
f 659 660 664
f 659 664 663
f 662 666 665
f 662 665 661
f 660 661 665
f 660 665 664
f 659 663 666
f 659 666 662
o Guard_Head
usemtl GuardSkin
f 667 668 688
f 667 688 687
f 668 669 689
f 668 689 688
f 669 670 690
f 669 690 689
f 670 671 691
f 670 691 690
f 671 672 692
f 671 692 691
f 672 673 693
f 672 693 692
f 673 674 694
f 673 694 693
f 674 675 695
f 674 695 694
f 675 676 696
f 675 696 695
f 676 677 697
f 676 697 696
f 677 678 698
f 677 698 697
f 678 679 699
f 678 699 698
f 679 680 700
f 679 700 699
f 680 681 701
f 680 701 700
f 681 682 702
f 681 702 701
f 682 683 703
f 682 703 702
f 683 684 704
f 683 704 703
f 684 685 705
f 684 705 704
f 685 686 706
f 685 706 705
f 686 667 687
f 686 687 706
f 687 688 708
f 687 708 707
f 688 689 709
f 688 709 708
f 689 690 710
f 689 710 709
f 690 691 711
f 690 711 710
f 691 692 712
f 691 712 711
f 692 693 713
f 692 713 712
f 693 694 714
f 693 714 713
f 694 695 715
f 694 715 714
f 695 696 716
f 695 716 715
f 696 697 717
f 696 717 716
f 697 698 718
f 697 718 717
f 698 699 719
f 698 719 718
f 699 700 720
f 699 720 719
f 700 701 721
f 700 721 720
f 701 702 722
f 701 722 721
f 702 703 723
f 702 723 722
f 703 704 724
f 703 724 723
f 704 705 725
f 704 725 724
f 705 706 726
f 705 726 725
f 706 687 707
f 706 707 726
f 707 708 728
f 707 728 727
f 708 709 729
f 708 729 728
f 709 710 730
f 709 730 729
f 710 711 731
f 710 731 730
f 711 712 732
f 711 732 731
f 712 713 733
f 712 733 732
f 713 714 734
f 713 734 733
f 714 715 735
f 714 735 734
f 715 716 736
f 715 736 735
f 716 717 737
f 716 737 736
f 717 718 738
f 717 738 737
f 718 719 739
f 718 739 738
f 719 720 740
f 719 740 739
f 720 721 741
f 720 741 740
f 721 722 742
f 721 742 741
f 722 723 743
f 722 743 742
f 723 724 744
f 723 744 743
f 724 725 745
f 724 745 744
f 725 726 746
f 725 746 745
f 726 707 727
f 726 727 746
f 727 728 748
f 727 748 747
f 728 729 749
f 728 749 748
f 729 730 750
f 729 750 749
f 730 731 751
f 730 751 750
f 731 732 752
f 731 752 751
f 732 733 753
f 732 753 752
f 733 734 754
f 733 754 753
f 734 735 755
f 734 755 754
f 735 736 756
f 735 756 755
f 736 737 757
f 736 757 756
f 737 738 758
f 737 758 757
f 738 739 759
f 738 759 758
f 739 740 760
f 739 760 759
f 740 741 761
f 740 761 760
f 741 742 762
f 741 762 761
f 742 743 763
f 742 763 762
f 743 744 764
f 743 764 763
f 744 745 765
f 744 765 764
f 745 746 766
f 745 766 765
f 746 727 747
f 746 747 766
f 747 748 768
f 747 768 767
f 748 749 769
f 748 769 768
f 749 750 770
f 749 770 769
f 750 751 771
f 750 771 770
f 751 752 772
f 751 772 771
f 752 753 773
f 752 773 772
f 753 754 774
f 753 774 773
f 754 755 775
f 754 775 774
f 755 756 776
f 755 776 775
f 756 757 777
f 756 777 776
f 757 758 778
f 757 778 777
f 758 759 779
f 758 779 778
f 759 760 780
f 759 780 779
f 760 761 781
f 760 781 780
f 761 762 782
f 761 782 781
f 762 763 783
f 762 783 782
f 763 764 784
f 763 784 783
f 764 765 785
f 764 785 784
f 765 766 786
f 765 786 785
f 766 747 767
f 766 767 786
f 767 768 788
f 767 788 787
f 768 769 789
f 768 789 788
f 769 770 790
f 769 790 789
f 770 771 791
f 770 791 790
f 771 772 792
f 771 792 791
f 772 773 793
f 772 793 792
f 773 774 794
f 773 794 793
f 774 775 795
f 774 795 794
f 775 776 796
f 775 796 795
f 776 777 797
f 776 797 796
f 777 778 798
f 777 798 797
f 778 779 799
f 778 799 798
f 779 780 800
f 779 800 799
f 780 781 801
f 780 801 800
f 781 782 802
f 781 802 801
f 782 783 803
f 782 803 802
f 783 784 804
f 783 804 803
f 784 785 805
f 784 805 804
f 785 786 806
f 785 806 805
f 786 767 787
f 786 787 806
f 787 788 808
f 787 808 807
f 788 789 809
f 788 809 808
f 789 790 810
f 789 810 809
f 790 791 811
f 790 811 810
f 791 792 812
f 791 812 811
f 792 793 813
f 792 813 812
f 793 794 814
f 793 814 813
f 794 795 815
f 794 815 814
f 795 796 816
f 795 816 815
f 796 797 817
f 796 817 816
f 797 798 818
f 797 818 817
f 798 799 819
f 798 819 818
f 799 800 820
f 799 820 819
f 800 801 821
f 800 821 820
f 801 802 822
f 801 822 821
f 802 803 823
f 802 823 822
f 803 804 824
f 803 824 823
f 804 805 825
f 804 825 824
f 805 806 826
f 805 826 825
f 806 787 807
f 806 807 826
f 807 808 828
f 807 828 827
f 808 809 829
f 808 829 828
f 809 810 830
f 809 830 829
f 810 811 831
f 810 831 830
f 811 812 832
f 811 832 831
f 812 813 833
f 812 833 832
f 813 814 834
f 813 834 833
f 814 815 835
f 814 835 834
f 815 816 836
f 815 836 835
f 816 817 837
f 816 837 836
f 817 818 838
f 817 838 837
f 818 819 839
f 818 839 838
f 819 820 840
f 819 840 839
f 820 821 841
f 820 841 840
f 821 822 842
f 821 842 841
f 822 823 843
f 822 843 842
f 823 824 844
f 823 844 843
f 824 825 845
f 824 845 844
f 825 826 846
f 825 846 845
f 826 807 827
f 826 827 846
f 827 828 848
f 827 848 847
f 828 829 849
f 828 849 848
f 829 830 850
f 829 850 849
f 830 831 851
f 830 851 850
f 831 832 852
f 831 852 851
f 832 833 853
f 832 853 852
f 833 834 854
f 833 854 853
f 834 835 855
f 834 855 854
f 835 836 856
f 835 856 855
f 836 837 857
f 836 857 856
f 837 838 858
f 837 858 857
f 838 839 859
f 838 859 858
f 839 840 860
f 839 860 859
f 840 841 861
f 840 861 860
f 841 842 862
f 841 862 861
f 842 843 863
f 842 863 862
f 843 844 864
f 843 864 863
f 844 845 865
f 844 865 864
f 845 846 866
f 845 866 865
f 846 827 847
f 846 847 866
f 847 848 868
f 847 868 867
f 848 849 869
f 848 869 868
f 849 850 870
f 849 870 869
f 850 851 871
f 850 871 870
f 851 852 872
f 851 872 871
f 852 853 873
f 852 873 872
f 853 854 874
f 853 874 873
f 854 855 875
f 854 875 874
f 855 856 876
f 855 876 875
f 856 857 877
f 856 877 876
f 857 858 878
f 857 878 877
f 858 859 879
f 858 879 878
f 859 860 880
f 859 880 879
f 860 861 881
f 860 881 880
f 861 862 882
f 861 882 881
f 862 863 883
f 862 883 882
f 863 864 884
f 863 884 883
f 864 865 885
f 864 885 884
f 865 866 886
f 865 886 885
f 866 847 867
f 866 867 886
o Guard_Helmet
usemtl GuardArmor
f 887 908 888
f 887 907 908
f 888 909 889
f 888 908 909
f 889 910 890
f 889 909 910
f 890 911 891
f 890 910 911
f 891 912 892
f 891 911 912
f 892 913 893
f 892 912 913
f 893 914 894
f 893 913 914
f 894 915 895
f 894 914 915
f 895 916 896
f 895 915 916
f 896 917 897
f 896 916 917
f 897 918 898
f 897 917 918
f 898 919 899
f 898 918 919
f 899 920 900
f 899 919 920
f 900 921 901
f 900 920 921
f 901 922 902
f 901 921 922
f 902 923 903
f 902 922 923
f 903 924 904
f 903 923 924
f 904 925 905
f 904 924 925
f 905 926 906
f 905 925 926
f 906 907 887
f 906 926 907
f 907 928 908
f 907 927 928
f 908 929 909
f 908 928 929
f 909 930 910
f 909 929 930
f 910 931 911
f 910 930 931
f 911 932 912
f 911 931 932
f 912 933 913
f 912 932 933
f 913 934 914
f 913 933 934
f 914 935 915
f 914 934 935
f 915 936 916
f 915 935 936
f 916 937 917
f 916 936 937
f 917 938 918
f 917 937 938
f 918 939 919
f 918 938 939
f 919 940 920
f 919 939 940
f 920 941 921
f 920 940 941
f 921 942 922
f 921 941 942
f 922 943 923
f 922 942 943
f 923 944 924
f 923 943 944
f 924 945 925
f 924 944 945
f 925 946 926
f 925 945 946
f 926 927 907
f 926 946 927
f 947 887 888
f 948 928 927
f 947 888 889
f 948 929 928
f 947 889 890
f 948 930 929
f 947 890 891
f 948 931 930
f 947 891 892
f 948 932 931
f 947 892 893
f 948 933 932
f 947 893 894
f 948 934 933
f 947 894 895
f 948 935 934
f 947 895 896
f 948 936 935
f 947 896 897
f 948 937 936
f 947 897 898
f 948 938 937
f 947 898 899
f 948 939 938
f 947 899 900
f 948 940 939
f 947 900 901
f 948 941 940
f 947 901 902
f 948 942 941
f 947 902 903
f 948 943 942
f 947 903 904
f 948 944 943
f 947 904 905
f 948 945 944
f 947 905 906
f 948 946 945
f 947 906 887
f 948 927 946
o Guard_Visor
usemtl GuardVisor
f 949 952 951
f 949 951 950
f 953 954 955
f 953 955 956
f 949 950 954
f 949 954 953
f 952 956 955
f 952 955 951
f 950 951 955
f 950 955 954
f 949 953 956
f 949 956 952
o Guard_Crest
usemtl GuardGold
f 957 960 959
f 957 959 958
f 961 962 963
f 961 963 964
f 957 958 962
f 957 962 961
f 960 964 963
f 960 963 959
f 958 959 963
f 958 963 962
f 957 961 964
f 957 964 960
o Guard_HalberdShaft
usemtl GuardWood
f 965 976 966
f 965 975 976
f 966 977 967
f 966 976 977
f 967 978 968
f 967 977 978
f 968 979 969
f 968 978 979
f 969 980 970
f 969 979 980
f 970 981 971
f 970 980 981
f 971 982 972
f 971 981 982
f 972 983 973
f 972 982 983
f 973 984 974
f 973 983 984
f 974 975 965
f 974 984 975
f 985 965 966
f 986 976 975
f 985 966 967
f 986 977 976
f 985 967 968
f 986 978 977
f 985 968 969
f 986 979 978
f 985 969 970
f 986 980 979
f 985 970 971
f 986 981 980
f 985 971 972
f 986 982 981
f 985 972 973
f 986 983 982
f 985 973 974
f 986 984 983
f 985 974 965
f 986 975 984
o Guard_HalberdBlade
usemtl GuardMetal
f 987 990 989
f 987 989 988
f 991 992 993
f 991 993 994
f 987 988 992
f 987 992 991
f 990 994 993
f 990 993 989
f 988 989 993
f 988 993 992
f 987 991 994
f 987 994 990
o Guard_HalberdHook
usemtl GuardMetal
f 995 998 997
f 995 997 996
f 999 1000 1001
f 999 1001 1002
f 995 996 1000
f 995 1000 999
f 998 1002 1001
f 998 1001 997
f 996 997 1001
f 996 1001 1000
f 995 999 1002
f 995 1002 998
o Guard_HalberdTip
usemtl GuardMetal
f 1003 1014 1004
f 1003 1013 1014
f 1004 1015 1005
f 1004 1014 1015
f 1005 1016 1006
f 1005 1015 1016
f 1006 1017 1007
f 1006 1016 1017
f 1007 1018 1008
f 1007 1017 1018
f 1008 1019 1009
f 1008 1018 1019
f 1009 1020 1010
f 1009 1019 1020
f 1010 1021 1011
f 1010 1020 1021
f 1011 1022 1012
f 1011 1021 1022
f 1012 1013 1003
f 1012 1022 1013
f 1023 1003 1004
f 1024 1014 1013
f 1023 1004 1005
f 1024 1015 1014
f 1023 1005 1006
f 1024 1016 1015
f 1023 1006 1007
f 1024 1017 1016
f 1023 1007 1008
f 1024 1018 1017
f 1023 1008 1009
f 1024 1019 1018
f 1023 1009 1010
f 1024 1020 1019
f 1023 1010 1011
f 1024 1021 1020
f 1023 1011 1012
f 1024 1022 1021
f 1023 1012 1003
f 1024 1013 1022
